<svg width="807" height="807" viewBox="0 0 807 807" xmlns="http://www.w3.org/2000/svg"><path d="M403.079 806.157C625.693 806.157 806.157 625.693 806.157 403.079C806.157 180.464 625.693 0 403.079 0C180.464 0 0 180.464 0 403.079C0 625.693 180.464 806.157 403.079 806.157Z" fill="transparent"/><path d="M74.1023 179.355L79.9235 171.961L129.797 186.75L103.838 141.439L109.029 134.831L139.866 189.11L134.045 196.504L74.1023 179.041V179.355Z M128.066 117.054L134.045 111.39L173.849 153.397L167.713 159.061L128.066 117.054Z M158.274 90.4644L188.638 68.7529L192.886 74.7315L169.287 91.5657L179.513 105.883L200.753 90.7791L205.001 96.7576L183.761 111.861L194.46 126.808L218.216 109.973L222.464 115.952L191.942 137.663L158.431 90.6218L158.274 90.4644Z M211.608 53.4921L219.79 50.0309L249.997 88.8913L240.872 40.9058L251.727 36.3432L280.676 76.4623L273.124 27.2181L280.991 23.7568L289.801 82.9128L279.417 87.318L249.525 46.0977L258.807 96.1285L248.424 100.534L211.451 53.3348L211.608 53.4921Z M351.475 17.3067L332.28 19.6667L331.494 12.4295L378.063 6.76562L378.85 14.0028L359.656 16.3627L365.792 66.3936L357.453 67.3376L351.317 17.3067H351.475Z M406.225 5.97852L414.564 6.4505L412.99 31.3086L441.624 33.1966L443.198 8.33846L451.536 8.81045L447.76 66.5504L439.422 66.0785L441.152 40.4337L412.518 38.5458L410.788 64.1905L402.449 63.7185L406.225 5.97852Z M483.002 14.9463L491.183 16.6769L479.069 73.1583L470.888 71.4277L483.002 14.9463Z M504.714 61.2012L512.895 64.1905C511.794 71.4276 514.468 77.2488 523.121 80.3954C530.201 83.07 536.337 82.2834 538.382 76.4622C540.585 70.3263 536.494 66.7077 530.673 62.9318L524.065 58.5266C515.727 53.0201 511.636 46.5695 514.94 37.6017C518.244 28.634 528.471 25.9593 539.798 30.0499C551.126 34.2978 556.161 42.6363 553.958 52.8627L545.777 49.8735C546.563 42.7936 543.417 38.7031 536.966 36.3431C530.831 33.9832 525.009 35.0845 523.121 40.119C521.391 44.8389 523.436 48.6148 528.628 51.9187L535.236 56.4813C544.833 63.0892 550.497 68.5957 546.878 78.5075C542.945 89.0486 532.246 91.2512 520.447 86.8459C506.916 81.8114 502.511 71.7423 504.871 61.3585L504.714 61.2012Z M616.103 68.2814L632.622 79.9238C644.58 88.2622 646.31 97.702 640.174 106.355C634.038 115.008 624.599 116.582 612.799 108.243L603.045 101.321L589.672 120.357L582.749 115.48L616.103 68.124V68.2814ZM616.732 102.107C623.969 107.142 629.161 106.67 632.937 101.321C636.87 95.814 635.454 90.6222 628.217 85.5876L618.778 78.9798L607.135 95.4994L616.575 102.107H616.732Z M672.584 111.861L686.587 126.493C696.656 137.034 696.498 146.474 688.947 153.868C682.968 159.69 675.731 160.791 668.022 155.756L662.358 184.705L655.278 177.31L660.785 149.463L653.39 141.754L636.556 157.802L630.735 151.823L672.427 111.861H672.584ZM666.606 145.058C672.742 151.351 677.933 151.98 682.653 147.418C687.531 142.698 687.216 137.506 681.08 131.213L673.056 122.874L658.425 136.719L666.448 145.058H666.606Z M695.712 179.199C710.344 169.602 727.178 172.591 736.775 187.38C746.372 202.169 742.124 218.846 727.492 228.286C712.861 237.883 695.869 234.893 686.272 220.104C676.675 205.315 680.923 188.639 695.712 179.199ZM722.773 220.891C733.943 213.654 737.719 202.012 730.796 191.313C723.874 180.615 711.917 179.356 700.589 186.593C689.419 193.83 685.643 205.473 692.565 216.171C699.488 226.87 711.602 228.128 722.773 220.891Z M723.402 249.84L726.706 257.864C720.098 260.538 718.839 265.415 720.727 269.978C722.615 274.698 727.021 277.373 733.628 274.698L772.331 258.808L775.478 266.517L736.932 282.407C726.549 286.655 718.053 281.778 714.277 272.653C710.501 263.685 713.018 254.088 723.402 249.84Z M785.39 297.668L793.728 334.168L786.648 335.742L780.198 307.422L762.892 311.356L768.713 336.843L761.633 338.416L755.812 312.929L737.876 317.02L744.327 345.496L737.247 347.069L728.908 310.569L785.39 297.668Z M768.87 361.701C786.177 360.914 799.235 371.927 800.021 389.391C800.651 403.078 793.886 412.99 781.929 416.451L781.614 407.798C789.48 404.966 793.099 397.729 792.784 389.705C792.312 377.119 782.558 370.039 769.342 370.668C756.127 371.298 747.001 379.007 747.473 391.593C747.788 399.617 752.036 406.54 760.06 408.742L760.374 417.395C748.26 414.878 740.708 405.596 740.079 391.908C739.292 374.444 751.407 362.487 768.87 361.858V361.701Z M788.379 455.941L791.211 436.747L798.448 437.848L791.683 484.418L784.446 483.317L787.278 464.122L737.247 456.885L738.505 448.704L788.536 455.941H788.379Z M736.46 618.778L730.954 626.172L680.766 612.642L707.669 657.009L702.634 663.774L670.539 610.44L676.203 602.888L736.46 618.778Z M683.125 683.283L677.147 689.104L637.185 647.412L643.164 641.591L683.125 683.283Z M654.334 709.556L624.599 731.897L620.194 726.076L643.321 708.77L632.78 694.767L612.013 710.343L607.607 704.522L628.375 688.946L617.362 674.315L594.234 691.778L589.829 685.957L619.722 663.616L654.334 709.714V709.556Z M602.258 747.631L594.077 751.407L563.083 713.333L573.309 760.846L562.611 765.724L532.718 726.549L541.529 775.478L533.662 779.097L523.279 720.413L533.505 715.693L564.499 755.969L553.958 706.253L564.184 701.533L602.258 747.631Z M463.336 787.592L482.53 784.76L483.631 791.998L437.062 798.92L435.96 791.683L455.155 788.851L447.76 738.82L456.099 737.562L463.493 787.592H463.336Z M408.9 800.021L400.561 799.707L401.505 774.849L372.871 773.747L371.927 798.605L363.589 798.291L365.791 740.551L374.13 740.865L373.186 766.51L401.82 767.612L402.764 741.967L411.102 742.281L408.9 800.021Z M331.651 792.941L323.47 791.368L334.326 734.729L342.507 736.303L331.651 792.941Z M309.153 747.316L300.972 744.484C301.916 737.089 299.084 731.583 290.431 728.594C283.351 726.234 277.215 727.178 275.17 732.842C273.124 739.135 277.372 742.439 283.193 746.215L289.959 750.463C298.297 755.812 302.702 762.105 299.713 771.23C296.724 780.198 286.497 783.344 275.17 779.411C263.685 775.478 258.493 767.297 260.381 756.913L268.562 759.745C267.932 766.825 271.236 770.915 277.687 773.118C283.98 775.321 289.644 774.062 291.375 768.87C292.948 764.15 290.745 760.532 285.553 757.228L278.788 752.98C269.034 746.687 263.213 741.337 266.674 731.426C270.292 720.885 280.991 718.367 292.791 722.458C306.478 727.02 311.041 737.089 309.153 747.473V747.316Z M197.134 742.596L180.457 731.268C168.343 723.087 166.455 713.805 172.433 704.994C178.412 696.184 187.694 694.453 199.809 702.634L209.563 709.242L222.622 689.891L229.544 694.611L197.134 742.596ZM195.875 708.77C188.638 703.893 183.446 704.365 179.671 709.872C175.895 715.535 177.311 720.57 184.705 725.447L194.302 731.898L205.63 715.221L196.033 708.77H195.875Z M140.653 701.219L126.178 687.216C115.637 677.147 115.48 667.55 122.874 659.998C128.696 654.02 135.776 652.604 143.642 657.324L148.205 628.218L155.599 635.298L151.037 663.302L158.746 670.697L174.951 654.02L180.929 659.841L140.653 701.376V701.219ZM145.373 667.708C139.079 661.572 133.888 661.257 129.168 665.977C124.448 670.854 125.077 676.046 131.37 682.182L139.709 690.206L153.711 675.731L145.373 667.708Z M115.165 633.724C100.848 643.636 84.014 641.119 74.1022 626.645C64.1905 612.17 67.9664 595.493 82.2834 585.739C96.6004 575.827 113.592 578.344 123.504 592.819C133.416 607.293 129.482 623.97 115.165 633.724ZM87.3179 592.976C76.3048 600.528 73.0009 612.17 80.0808 622.554C87.1606 632.938 99.275 634.039 110.131 626.487C121.144 618.935 124.605 607.293 117.368 596.909C110.288 586.525 98.1737 585.424 87.1606 592.976H87.3179Z M85.902 564.027L82.4408 556.161C88.8913 553.329 90.1499 548.452 88.1047 543.889C86.0594 539.169 81.6541 536.652 75.2036 539.484L36.9725 556.161L33.6686 548.452L71.8997 531.775C82.2835 527.212 90.7793 532.089 94.7125 541.057C98.6457 550.025 96.2858 559.465 86.0594 564.027H85.902Z M22.8128 517.772L13.5304 481.586L20.6102 479.856L27.8474 508.018L44.9963 503.613L38.5458 478.44L45.6257 476.709L52.0762 501.882L69.8544 497.319L62.6173 469.157L69.6971 467.427L78.9795 503.613L22.9702 518.087L22.8128 517.772Z M37.7591 453.267C20.4529 454.368 7.23715 443.827 6.13585 426.364C5.3492 412.833 11.7997 402.764 23.5994 398.988L24.2288 407.641C16.3623 410.631 12.901 417.868 13.5303 425.892C14.317 438.478 24.2288 445.243 37.4445 444.299C50.6602 443.513 59.6279 435.489 58.684 422.902C58.212 414.879 53.8067 408.113 45.7829 406.068L45.1536 397.415C57.268 399.618 64.9772 408.743 65.9211 422.43C67.0224 439.894 55.2227 452.008 37.9164 453.11L37.7591 453.267Z M15.8903 359.341L13.5304 378.692L6.29321 377.749L12.1144 330.864L19.3516 331.808L16.9916 351.002L67.1798 357.138L66.0785 365.477L15.8903 359.341Z" fill="currentColor"/></svg>