<svg width="104" height="111" viewBox="0 0 104 111" fill="none" xmlns="http://www.w3.org/2000/svg">
<path d="M2.65527 31.0738L3.48234 29.6313L11.811 29.6422L11.8183 29.6313L10.1787 28.7011L5.54638 26.0341L6.15579 24.9731L13.788 29.366L12.9537 30.8194L4.62862 30.7976L4.62137 30.8085L6.26099 31.7387L10.8933 34.4057L10.2839 35.4667L2.65164 31.0738L2.65527 31.0738Z" fill="#E4DCD1"/>
<path d="M10.1714 19.7009L14.0492 15.5405L14.8582 16.2963L11.8473 19.5265L13.8098 21.3614L16.5123 18.4655L17.3176 19.2213L14.6151 22.1172L16.661 24.032L19.6827 20.791L20.4916 21.5467L16.6066 25.7144L10.1751 19.7009L10.1714 19.7009Z" fill="#E4DCD1"/>
<path d="M18.1809 11.6745L19.3345 10.9514L24.7684 16.1074L24.7721 16.1074L22.2872 9.09832L23.8035 8.14634L29.0851 13.5021L29.0888 13.5021L26.7962 6.27145L27.9062 5.57745L30.6196 14.2761L29.1722 15.1844L23.7128 9.68695L23.7092 9.68695L26.2702 17.0048L24.8228 17.9132L18.1773 11.6781L18.1809 11.6745Z" fill="#E4DCD1"/>
<path d="M38.6182 1.65688L39.964 1.46066L42.866 8.36433L42.8732 8.36433L43.4137 0.955612L45.184 0.697625L47.8647 7.7212L47.8719 7.7212L48.6772 0.185299L49.9722 -0.00363895L48.9638 9.04379L47.277 9.29087L44.4875 2.06383L44.4802 2.06383L43.8853 9.78503L42.1985 10.0321L38.6218 1.65324L38.6182 1.65688Z" fill="#E4DCD1"/>
<path d="M56.0229 0.287059L61.6672 0.933824L61.5403 2.03478L57.1546 1.53336L56.8499 4.20398L60.7821 4.65454L60.6552 5.75549L56.723 5.30493L56.4038 8.09184L60.8003 8.59326L60.6769 9.69421L55.0217 9.04745L56.0192 0.294334L56.0229 0.287059Z" fill="#E4DCD1"/>
<path d="M67.6598 2.31451L70.725 3.38276C72.4771 3.99319 72.9451 5.23585 72.546 6.39131L72.546 6.39857C72.245 7.25608 71.5485 7.71754 70.8738 7.80111L70.8738 7.80837C71.5956 8.397 72.1107 9.21454 71.6936 10.4063L71.6936 10.4172C71.1531 11.9651 69.713 12.3648 67.8593 11.718L64.7687 10.6425L67.6598 2.32177L67.6598 2.31451ZM69.3974 6.88183C70.3079 7.19795 71.0152 6.87093 71.2764 6.11879L71.2764 6.11152C71.534 5.37028 71.1857 4.66539 70.2752 4.34928L68.5087 3.73521L67.6272 6.26777L69.3938 6.88546L69.3974 6.88183ZM68.1749 10.7006C69.4264 11.1367 70.1446 10.7806 70.4421 9.93034L70.4421 9.92308C70.7432 9.06557 70.3986 8.34613 69.1435 7.90647L67.2826 7.25608L66.314 10.0502L68.1749 10.697L68.1749 10.7006Z" fill="#E4DCD1"/>
<path d="M75.459 12.056L76.5835 12.7645C76.1845 13.8182 76.4202 14.7557 77.6028 15.5005C78.575 16.111 79.5217 16.1873 80.0151 15.3988L80.0223 15.3879C80.552 14.5449 80.0405 13.8836 79.2932 13.1242L78.4408 12.2558C77.3779 11.173 76.9571 10.0721 77.7334 8.83666L77.7443 8.82213C78.5061 7.60491 80.1275 7.51043 81.6765 8.48785C83.2472 9.47616 83.7296 10.8787 83.0767 12.343L81.9558 11.6381C82.2931 10.6135 81.9558 9.89765 81.0598 9.33082C80.2073 8.7967 79.3114 8.77126 78.8688 9.47616L78.8615 9.48706C78.4589 10.1266 78.6512 10.7443 79.3077 11.4201L80.1674 12.2994C81.4044 13.5748 82.0682 14.574 81.2122 15.9438L81.2013 15.9583C80.3017 17.3936 78.6294 17.3827 77.0006 16.358C75.1397 15.188 74.8024 13.5421 75.459 12.0523L75.459 12.056Z" fill="#E4DCD1"/>
<path d="M88.9786 14.1779L89.9181 15.0318L84.0053 21.554L83.0658 20.7001L88.9786 14.1779Z" fill="#E4DCD1"/>
<path d="M94.6737 21.7865L92.86 19.4538L93.7306 18.7743L98.1343 24.439L97.2637 25.1184L95.4536 22.7893L89.3848 27.5238L88.6049 26.521L94.6737 21.7865Z" fill="#E4DCD1"/>
<path d="M101.007 29.2825L103.459 34.4166L102.462 34.8926L100.557 30.903L98.138 32.0621L99.8465 35.6375L98.8489 36.1171L97.1404 32.5417L94.6157 33.7517L96.5273 37.7522L95.5298 38.2281L93.0704 33.0831L101.007 29.2788L101.007 29.2825Z" fill="#E4DCD1"/>
<path d="M102.915 54.9422C102.709 54.9495 102.516 54.9059 102.342 54.8114C102.168 54.7169 102.027 54.5861 101.921 54.419C101.816 54.2518 101.758 54.0629 101.751 53.8558C101.744 53.656 101.787 53.467 101.882 53.2926C101.976 53.1182 102.106 52.9729 102.273 52.8638C102.44 52.7548 102.629 52.6967 102.836 52.6894C103.042 52.6822 103.231 52.7258 103.405 52.8239C103.576 52.922 103.717 53.0528 103.826 53.2236C103.935 53.3907 103.993 53.576 104 53.7759C104.007 53.983 103.96 54.1755 103.866 54.35C103.768 54.5244 103.637 54.6661 103.474 54.7714C103.311 54.8768 103.126 54.9349 102.919 54.9422L102.915 54.9422Z" fill="#E4DCD1"/>
<path d="M100.394 72.612L100.405 72.612C102.821 73.702 103.855 76.0747 102.763 78.5091C101.911 80.4095 100.314 81.3033 98.4572 80.969L99.0013 79.7554C100.271 79.9153 101.258 79.1704 101.758 78.0477C102.545 76.2963 101.697 74.6758 99.8538 73.8474L99.8429 73.8474C97.9965 73.0117 96.2299 73.4549 95.4428 75.2099C94.9386 76.3327 95.0365 77.5644 95.9978 78.4038L95.4537 79.6174C93.9773 78.451 93.5746 76.6597 94.4271 74.7594C95.519 72.3213 97.9748 71.5183 100.394 72.6083L100.394 72.612Z" fill="#E4DCD1"/>
<path d="M94.5612 84.221L94.5685 84.2283C96.6217 85.8997 96.988 88.4759 95.3013 90.5506C93.6181 92.6253 91.0208 92.7961 88.9677 91.1247L88.9568 91.1174C86.9 89.4424 86.53 86.8553 88.2131 84.777C89.8999 82.7022 92.4972 82.5424 94.5576 84.2174L94.5612 84.221ZM89.8092 90.071L89.8165 90.0782C91.3872 91.3572 93.23 91.35 94.4415 89.8566C95.6531 88.3632 95.2831 86.5574 93.7124 85.2784L93.7052 85.2711C92.1345 83.9921 90.2881 83.9885 89.0729 85.4819C87.8613 86.9752 88.2385 88.792 89.8056 90.071L89.8092 90.071Z" fill="#E4DCD1"/>
<path d="M87.64 98.3154L85.9931 99.4745L79.7394 94.7001L79.7285 94.7073L82.0972 102.214L80.4467 103.377L75.39 96.1644L76.3912 95.4595L78.4008 98.3263L80.7333 101.673L80.7442 101.666L78.3972 94.0497L79.5725 93.2212L85.9315 98.0138L85.9424 98.0066L83.5917 94.6746L81.5821 91.8078L82.5797 91.1029L87.6364 98.3154L87.64 98.3154Z" fill="#E4DCD1"/>
<path d="M74.6028 106.193L73.4348 106.691L69.9778 98.5843L71.1459 98.0865L74.6028 106.193Z" fill="#E4DCD1"/>
<path d="M67.4567 108.882L65.8352 109.23L60.267 103.028L60.2561 103.028L60.6624 104.87L61.7869 110.102L60.5935 110.36L58.7399 101.745L60.3758 101.393L65.9332 107.599L65.944 107.599L65.5378 105.757L64.4132 100.525L65.6067 100.267L67.4603 108.882L67.4567 108.882Z" fill="#E4DCD1"/>
<path d="M54.4848 106.611L54.4848 106.622C54.3724 109.27 52.5586 111.109 49.8961 110.996C47.8357 110.909 46.3955 109.801 46.0147 108.05L47.3387 108.108C47.6579 109.234 48.7099 109.841 49.9287 109.892C51.8549 109.972 53.0484 108.587 53.1354 106.567L53.1354 106.556C53.2225 104.514 52.1487 103.039 50.2225 102.959C48.6627 102.894 47.3351 103.773 47.2661 105.401L47.2661 105.466L50.3241 105.597L50.2806 106.669L46.0183 106.487L46.2142 101.862L47.2553 101.905L47.2154 103.239C47.7522 102.454 48.8477 101.804 50.3132 101.865C52.9395 101.978 54.6009 103.951 54.4885 106.618L54.4848 106.611Z" fill="#E4DCD1"/>
<path d="M36.2495 102.149L35.0306 101.626C35.2592 100.521 34.8819 99.6344 33.5978 99.0821C32.5458 98.6315 31.599 98.7042 31.2326 99.5581L31.2326 99.569C30.8373 100.485 31.443 101.055 32.2991 101.691L33.2749 102.414C34.4901 103.319 35.0778 104.34 34.5046 105.681L34.4974 105.695C33.9351 107.014 32.3499 107.359 30.6668 106.64C28.9618 105.909 28.269 104.601 28.6825 103.05L29.8977 103.569C29.7236 104.634 30.1662 105.288 31.1383 105.706C32.0633 106.102 32.9521 105.986 33.2785 105.223L33.2785 105.212C33.5796 104.518 33.2931 103.936 32.5422 103.373L31.5591 102.639C30.1408 101.571 29.3282 100.688 29.963 99.202L29.9703 99.1875C30.6341 97.6323 32.2882 97.378 34.0548 98.1374C36.0753 99.0022 36.663 100.575 36.2458 102.145L36.2495 102.149Z" fill="#E4DCD1"/>
<path d="M25.1385 98.8096L25.1312 98.8205C23.5315 100.932 20.9741 101.386 18.8448 99.7652C16.7154 98.1483 16.4579 95.554 18.0612 93.4429L18.0685 93.432C19.6718 91.3137 22.2437 90.8595 24.3694 92.4764C26.4951 94.0933 26.7418 96.6913 25.1385 98.8096ZM19.1386 94.2532L19.1313 94.2641C17.9089 95.8774 17.9778 97.7232 19.5086 98.8895C21.0394 100.056 22.8277 99.6199 24.0502 98.0066L24.0575 97.9957C25.2799 96.3824 25.2219 94.5293 23.6911 93.3666C22.1603 92.2039 20.3574 92.6399 19.135 94.2532L19.1386 94.2532Z" fill="#E4DCD1"/>
<path d="M14.6913 90.0782L14.6804 90.0855C12.5801 91.7024 9.99732 91.4626 8.36858 89.3406C6.73984 87.2187 7.17513 84.6498 9.27182 83.0365L9.28271 83.0292C11.3867 81.4087 13.9839 81.6485 15.6127 83.7668C17.2414 85.8888 16.7952 88.4577 14.6913 90.0782ZM10.1061 84.1011L10.0953 84.1084C8.49191 85.3438 8.07476 87.1387 9.24643 88.6684C10.4181 90.1945 12.2572 90.249 13.8606 89.0136L13.8715 89.0064C15.4748 87.771 15.9065 85.9724 14.7348 84.4463C13.5631 82.9202 11.7131 82.8694 10.1098 84.1011L10.1061 84.1011Z" fill="#E4DCD1"/>
<path d="M2.70609 80.1515L2.06402 78.6181L7.13525 72.0015L7.13525 71.9906L5.39768 72.7282L0.467925 74.7921L-0.00364352 73.662L8.11467 70.2647L8.76036 71.809L3.6855 78.4147L3.6855 78.4256L5.42307 77.688L10.3528 75.6241L10.8244 76.7542L2.70609 80.1515Z" fill="#E4DCD1"/>
<path d="M1.79198 52.704C1.99874 52.7113 2.18738 52.7658 2.35424 52.8712C2.52111 52.9765 2.65532 53.1182 2.74601 53.2926C2.84032 53.4671 2.88386 53.6596 2.8766 53.8667C2.86935 54.0666 2.81493 54.2483 2.70973 54.419C2.60453 54.5862 2.46306 54.7206 2.28894 54.8187C2.11482 54.9168 1.92257 54.9641 1.7158 54.9568C1.50904 54.9495 1.32403 54.8914 1.15717 54.7824C0.993931 54.6734 0.863346 54.5317 0.765404 54.3536C0.667462 54.1792 0.620303 53.9903 0.627558 53.7941C0.634813 53.587 0.692857 53.398 0.801681 53.2309C0.910506 53.0637 1.05198 52.9329 1.22247 52.8385C1.39296 52.744 1.58159 52.7004 1.78836 52.7077L1.79198 52.704Z" fill="#E4DCD1"/>
</svg>
