<svg width="512" height="512" viewBox="0 0 512 512" fill="none" xmlns="http://www.w3.org/2000/svg"><path d="M512 0H0V512H50.7546C40.9546 491.678 34.4077 469.792 31 446.38H133.076C136.24 462.283 141.254 476.481 148.069 488.929C152.778 497.563 158.464 505.248 165.11 512H366.701C370.932 506.617 374.17 500.635 376.415 494.088C378.848 486.988 380.065 479.037 380.065 470.234V469.855C380.065 455.894 377.534 444.346 372.569 435.163C367.555 425.981 360.351 418.077 350.956 411.499C341.562 404.873 330.415 399.43 317.466 395.17C304.518 390.911 290.402 387.03 275.02 383.622L198.888 366.395C175.231 360.762 153.764 353.615 134.488 344.907C115.212 336.246 98.8076 325.36 85.2751 312.25C71.7429 299.188 61.3259 283.758 53.9758 266.01C46.6741 248.261 43.0232 227.91 43.0232 204.908V203.819C43.0232 188.674 45.311 174.238 49.9841 160.514C54.6086 146.835 61.1799 134.293 69.7471 122.887C78.2656 111.527 88.634 101.352 100.852 92.4072C113.07 83.4619 126.846 75.8418 142.228 69.4521C157.61 63.1104 174.306 58.2354 192.365 54.9697C210.425 51.6562 229.312 50 249.074 50C280.082 50 307.682 53.7393 331.972 61.1699C356.262 68.6475 377.291 79.3438 395.107 93.2588C412.923 107.221 427.234 124.07 438.089 143.9C448.944 163.731 456.343 186.354 460.237 211.771H358.501C354.851 197.099 349.642 184.414 342.973 173.812C336.256 163.164 328.175 154.408 318.635 147.593C309.094 140.729 298.19 135.713 285.875 132.542C273.559 129.371 259.735 127.762 244.353 127.762C234.812 127.762 225.709 128.424 216.899 129.797C208.137 131.122 199.959 133.204 192.365 136.044C184.821 138.884 177.957 142.292 171.872 146.314C165.788 150.338 160.579 155.07 156.296 160.466C152.012 165.861 148.75 171.777 146.414 178.262C144.077 184.746 142.958 191.893 142.958 199.749V200.506C142.958 211.014 144.662 220.432 148.069 228.762C151.477 237.092 156.588 244.475 163.451 250.959C170.266 257.443 178.736 263.027 188.861 267.666C198.986 272.305 210.619 276.232 223.811 279.403L300.673 297.01C328.711 303.636 353.828 311.02 376.074 319.207C398.271 327.396 417.06 337.618 432.442 349.829C447.824 362.087 459.555 376.948 467.733 394.413C475.911 411.925 480 433.128 480 458.07V459.159C480 477.002 477.566 493.614 472.698 508.902C472.367 509.942 472.027 510.975 471.676 512H512V0Z" fill="#E4DCD1"/></svg>