<svg width="124" height="44" viewBox="0 0 124 44" fill="none" xmlns="http://www.w3.org/2000/svg">
<path d="M28.1001 21.6004C28.1001 24.6004 27.9001 27.6004 27.6001 30.5004C27.3001 33.4004 26.4001 36.0004 25.0001 38.3004C24.0001 39.9004 22.6 41.2004 20.8 42.3004C19 43.4004 16.8001 44.0004 14.1001 44.0004C12.3001 44.0004 10.7001 43.7004 9.20007 43.1004C7.70007 42.5004 6.50005 41.7004 5.40005 40.6004C4.50005 39.7004 3.70007 38.6004 3.10007 37.3004C2.50007 36.0004 2.10006 34.6004 2.00006 33.1004H7.20007C7.30007 34.1004 7.50006 35.0004 8.00006 35.8004C8.40006 36.6004 9.00007 37.2004 9.60007 37.8004C10.8001 38.9004 12.4 39.4004 14.3 39.4004C15.6 39.4004 16.7001 39.2004 17.7001 38.7004C18.6001 38.2004 19.4001 37.6004 20.0001 36.9004C20.6001 36.1004 21.2001 35.3004 21.6001 34.3004C22.0001 33.3004 22.3001 32.2004 22.5001 31.1004C22.7001 30.0004 22.8001 28.8004 22.9001 27.6004C23.0001 26.4004 23.0001 25.3004 23.0001 24.2004C22.3001 25.6004 21.1001 26.8004 19.4001 27.7004C17.7001 28.6004 15.8 29.1004 13.8 29.1004C11.9 29.1004 10.2001 28.8004 8.70007 28.2004C7.20007 27.6004 6.00006 26.8004 5.00006 25.9004C3.60006 24.6004 2.60005 23.1004 1.90005 21.2004C1.20005 19.4004 0.800049 17.3004 0.800049 15.1004C0.800049 13.0004 1.10005 11.1004 1.80005 9.40039C2.50005 7.70039 3.40007 6.20039 4.60007 4.90039C5.70007 3.70039 7.10007 2.7004 8.70007 2.0004C10.3001 1.3004 12.2001 0.900391 14.4001 0.900391C16.8001 0.900391 18.8001 1.40039 20.5001 2.40039C22.2001 3.40039 23.6001 4.6004 24.6001 6.0004C25.4001 7.0004 26.0001 8.20039 26.4001 9.40039C26.9001 10.6004 27.2001 11.9004 27.5001 13.3004C27.8001 14.7004 27.9001 16.1004 28.0001 17.5004C28.1001 18.7004 28.1001 20.2004 28.1001 21.6004ZM22.4001 14.7004C22.4001 11.8004 21.6001 9.40041 19.9001 7.70041C19.2001 7.00041 18.4001 6.40039 17.5001 5.90039C16.6001 5.40039 15.4001 5.20041 14.1001 5.20041C12.8001 5.20041 11.7001 5.40039 10.7001 5.90039C9.80007 6.30039 9.00005 6.9004 8.30005 7.6004C6.70005 9.4004 5.80005 11.7004 5.80005 14.8004C5.80005 16.3004 6.00005 17.6004 6.40005 18.8004C6.80005 20.0004 7.40007 21.0004 8.20007 21.9004C8.80007 22.6004 9.70007 23.2004 10.6001 23.6004C11.6001 24.0004 12.7001 24.3004 14.1001 24.3004C15.4001 24.3004 16.6001 24.1004 17.5001 23.6004C18.5001 23.1004 19.3001 22.5004 19.9001 21.8004C21.6001 20.0004 22.4001 17.7004 22.4001 14.7004Z" fill="#E4DCD1"/>
<path d="M123.4 29.7C123.4 31.8 123.1 33.7 122.4 35.4C121.7 37.1 120.8 38.6 119.6 39.9C118.5 41.1 117.1 42.1 115.5 42.8C113.9 43.5 112 43.9 109.8 43.9C107.4 43.9 105.4 43.4 103.7 42.4C102 41.4 100.6 40.2 99.6001 38.8C98.8001 37.8 98.2001 36.6 97.8001 35.4C97.3001 34.2 97.0001 32.9 96.7001 31.5C96.4001 30.1 96.3001 28.7 96.2001 27.3C96.1001 25.8 96.1001 24.4 96.1001 22.9C96.1001 19.9 96.3001 16.9 96.6001 14C96.9001 11.1 97.8001 8.50001 99.2001 6.20001C100.2 4.60001 101.6 3.30001 103.4 2.20001C105.2 1.10001 107.4 0.5 110.1 0.5C111.9 0.5 113.5 0.799994 115 1.39999C116.5 1.99999 117.7 2.89999 118.8 3.89999C119.7 4.79999 120.5 5.90001 121.1 7.20001C121.7 8.50001 122.1 9.89999 122.2 11.4H117C116.9 10.4 116.7 9.50001 116.2 8.70001C115.8 7.90001 115.2 7.30001 114.6 6.70001C114 6.20001 113.3 5.8 112.6 5.5C111.8 5.2 111 5.10001 110 5.10001C108.7 5.10001 107.6 5.29999 106.6 5.79999C105.7 6.29999 104.9 6.90001 104.3 7.60001C103.6 8.40001 103.1 9.20001 102.7 10.2C102.3 11.2 102 12.3 101.8 13.4C101.6 14.5 101.5 15.7 101.4 16.9C101.3 18.1 101.3 19.2 101.3 20.3C102 18.9 103.2 17.7 104.9 16.8C106.6 15.9 108.5 15.4 110.5 15.4C112.4 15.4 114.1 15.7 115.6 16.3C117.1 16.9 118.3 17.7 119.3 18.6C120.7 19.9 121.7 21.5 122.4 23.3C123 25.5 123.4 27.5 123.4 29.7ZM118.2 29.8C118.2 28.3 118 27 117.6 25.8C117.2 24.6 116.6 23.6 115.8 22.7C115.2 22 114.3 21.4 113.4 21C112.4 20.6 111.3 20.3 109.9 20.3C108.5 20.3 107.4 20.5 106.5 21C105.5 21.5 104.7 22.1 104.1 22.8C102.5 24.6 101.8 26.9 101.8 29.8C101.8 32.7 102.6 35.1 104.3 36.8C105 37.5 105.8 38.1 106.7 38.6C107.6 39.1 108.8 39.3 110.1 39.3C111.4 39.3 112.5 39.1 113.5 38.6C114.4 38.2 115.2 37.6 115.9 36.9C117.4 35.2 118.2 32.8 118.2 29.8Z" fill="#E4DCD1"/>
<path d="M89.1002 22.1992H34.9001V27.6992H89.1002V22.1992Z" fill="#E4DCD1"/>
</svg>
