<svg width="238" height="33" viewBox="0 0 238 33" fill="none" xmlns="http://www.w3.org/2000/svg">
<path d="M40.2 25.5996V5.09961H48.0999C49.2999 5.09961 50.1 5.09962 50.7 5.19962C51.3 5.29962 51.8999 5.39959 52.4999 5.79959C53.2999 6.19959 53.8999 6.89962 54.3999 7.69962C54.8999 8.49962 55.0999 9.49962 55.0999 10.6996C55.0999 11.7996 54.8999 12.6996 54.3999 13.3996C53.8999 14.1996 53.1999 14.6996 52.3999 15.0996C53.5999 15.2996 54.4999 15.7996 55.0999 16.5996C55.6999 17.3996 56.0999 18.4996 56.0999 19.7996C56.0999 20.8996 55.8999 21.7996 55.3999 22.7996C54.8999 23.5996 54.1999 24.2996 53.3999 24.7996C52.7999 25.1996 52.1999 25.3996 51.5999 25.3996C51.0999 25.4996 50.0999 25.4996 48.3999 25.4996L40.2 25.5996ZM45.5999 9.29959V12.9996H47.2999C48.9999 12.9996 49.7999 12.3996 49.7999 11.0996C49.7999 9.89961 48.9999 9.29959 47.2999 9.29959H45.5999ZM45.5999 17.2996V21.0996H47.8999C48.4999 21.0996 48.8999 21.0996 49.0999 21.0996C49.2999 21.0996 49.5999 20.9996 49.7999 20.8996C50.3999 20.4996 50.5999 20.0996 50.5999 19.1996C50.5999 17.8996 49.7999 17.2996 47.9999 17.2996H45.5999Z" fill="#E4DCD1"/>
<path d="M71.4999 19.7996H62.0999C62.1999 20.4996 62.5999 20.9996 63.1999 21.4996C63.7999 21.9996 64.5999 22.0996 65.5999 22.0996C66.6999 22.0996 67.9999 21.6996 69.4999 21.0996L70.7999 24.4996L69.6999 25.0996C68.3999 25.6996 66.7999 25.8996 65.2999 25.8996C62.7999 25.8996 60.7999 25.1996 59.1999 23.5996C57.6999 22.1996 56.8999 20.1996 56.8999 17.6996C56.8999 15.2996 57.5999 13.3996 58.8999 11.8996C60.1999 10.3996 61.9999 9.59961 64.2999 9.59961C66.6999 9.59961 68.4999 10.3996 69.6999 11.9996C70.8999 13.4996 71.5999 15.8996 71.5999 18.8996L71.4999 19.7996ZM64.3999 13.4996C63.7999 13.4996 63.1999 13.6996 62.6999 14.1996C62.1999 14.6996 61.9999 15.2996 61.8999 16.0996H66.8999C66.7999 15.2996 66.3999 14.6996 66.0999 14.1996C65.5999 13.6996 65.0999 13.4996 64.3999 13.4996Z" fill="#E4DCD1"/>
<path d="M73.0999 25.5996V3.09961H78.2998V25.5996H73.0999Z" fill="#E4DCD1"/>
<path d="M88.8 15.5996C88.8 14.0996 87.7 13.2996 85.7 13.2996C84.9 13.2996 83.7 13.4996 82.1 13.9996L81.1 10.5996L82.2 10.1996C83.7 9.79962 85.1 9.59961 86.4 9.59961C91.2 9.59961 93.5 11.8996 93.5 16.3996V25.3996H89.1V23.5996C89 23.6996 88.9 23.9996 88.7 24.0996C88.5 24.1996 88.3 24.4996 88.2 24.5996C87.1 25.3996 85.9 25.7996 84.6 25.7996C83.2 25.7996 81.9 25.2996 80.9 24.3996C79.9 23.4996 79.5 22.2996 79.5 20.7996C79.5 19.0996 80.1 17.7996 81.4 16.9996C82.6 15.9996 84.4 15.6996 86.8 15.6996H88.7V15.5996H88.8ZM88.8 19.5996V18.8996H87.7C85.6 18.8996 84.6 19.4996 84.6 20.6996C84.6 21.1996 84.7 21.4996 85.1 21.7996C85.5 22.0996 85.8 22.1996 86.3 22.1996C87 22.1996 87.7 21.9996 88.1 21.4996C88.5 20.8996 88.8 20.3996 88.8 19.5996Z" fill="#E4DCD1"/>
<path d="M94.5999 24.8004L95.6999 21.1004C96.4999 21.5004 97.1998 21.6004 97.7998 21.8004C98.3998 21.9004 98.9999 22.0004 99.5999 22.0004C100.2 22.0004 100.7 21.9004 101 21.8004C101.4 21.6004 101.6 21.3004 101.6 21.1004C101.6 21.0004 101.6 20.7004 101.5 20.6004C101.4 20.5004 101.4 20.4004 101.3 20.4004C101.2 20.3004 100.8 20.2004 100.2 20.0004C99.9999 20.0004 99.5999 19.9004 99.1999 19.8004C98.7999 19.7004 98.4999 19.6004 98.0999 19.4004C95.9999 18.6004 94.7998 17.1004 94.7998 15.0004C94.7998 13.5004 95.3998 12.3004 96.4998 11.3004C97.5998 10.3004 99.0998 9.90039 100.9 9.90039C101.6 9.90039 102.3 10.0004 103 10.1004C103.7 10.2004 104.5 10.5004 105.5 10.8004L104.5 14.2004C103.2 13.7004 102.1 13.6004 101.3 13.6004C100.1 13.6004 99.5999 14.0004 99.5999 14.7004C99.5999 14.9004 99.6998 15.1004 99.7998 15.3004C99.9998 15.4004 100.4 15.5004 100.9 15.7004L101.6 15.8004C102.6 16.0004 103.3 16.3004 104.1 16.6004C105.6 17.4004 106.4 18.7004 106.4 20.6004C106.4 22.3004 105.8 23.6004 104.6 24.5004C103.4 25.5004 101.9 25.9004 99.7998 25.9004C98.7998 25.9004 97.7999 25.8004 96.5999 25.5004C95.9999 25.4004 95.4998 25.3004 95.2998 25.1004C95.1998 25.0004 94.7999 24.9004 94.5999 24.8004Z" fill="#E4DCD1"/>
<path d="M128 5.6004L126.9 9.6004C125.4 9.1004 124 8.90039 122.9 8.90039C122.1 8.90039 121.4 9.00039 120.9 9.40039C120.4 9.80039 120.2 10.1004 120.2 10.7004C120.2 11.4004 120.8 12.0004 122 12.4004L123.2 12.8004L125.5 13.6004C127.8 14.7004 128.9 16.5004 128.9 19.2004C128.9 21.2004 128.2 22.9004 126.8 24.2004C125.4 25.4004 123.5 26.0004 121 26.0004C119.9 26.0004 118.9 25.9004 117.8 25.6004C117 25.5004 116 25.2004 114.8 24.8004L116.1 20.6004C118 21.2004 119.4 21.4004 120.5 21.4004C122.4 21.4004 123.4 20.8004 123.4 19.5004C123.4 18.9004 123.2 18.4004 122.7 18.2004C122.6 18.1004 122.5 18.1004 122.2 18.0004C121.9 17.9004 121.7 17.8004 121.2 17.6004L120.1 17.2004C119.6 17.1004 119.1 17.0004 118.9 16.8004C116 15.7004 114.6 13.8004 114.6 11.0004C114.6 9.0004 115.3 7.40041 116.7 6.20041C118.1 5.00041 120 4.40039 122.4 4.40039C123.5 4.40039 124.4 4.50038 125.5 4.80038C126 4.90038 126.5 5.0004 126.8 5.0004C127.2 5.2004 127.5 5.4004 128 5.6004Z" fill="#E4DCD1"/>
<path d="M130 25.5996V3.09961H135.2V11.7996C136.4 10.3996 137.9 9.69962 139.5 9.69962C141.2 9.69962 142.5 10.2996 143.4 11.3996C144.4 12.4996 144.8 13.9996 144.8 15.7996V25.6996H139.6V17.3996V16.1996C139.5 15.6996 139.4 15.3996 139 14.9996C138.6 14.5996 138.2 14.4996 137.7 14.4996C136.9 14.4996 136.2 14.8996 135.6 15.5996C135.4 15.9996 135.2 16.1996 135.1 16.5996C135 16.9996 135 17.3996 135 18.0996V25.5996H130Z" fill="#E4DCD1"/>
<path d="M146.5 17.8992C146.5 15.3992 147.2 13.4992 148.6 11.9992C150 10.5992 152 9.69922 154.4 9.69922C156.9 9.69922 158.8 10.3992 160.3 11.9992C161.7 13.3992 162.6 15.3992 162.6 17.7992C162.6 20.2992 161.9 22.1992 160.3 23.6992C158.9 25.0992 156.9 25.9992 154.4 25.9992C151.9 25.9992 150 25.2992 148.6 23.8992C147.3 22.0992 146.5 20.1992 146.5 17.8992ZM154.5 13.6992C153.7 13.6992 153.1 14.0992 152.6 14.7992C152.1 15.4992 151.9 16.4992 151.9 17.6992C151.9 18.8992 152.1 19.7992 152.6 20.5992C153.1 21.2992 153.8 21.6992 154.5 21.6992C155.3 21.6992 155.9 21.2992 156.4 20.5992C156.9 19.8992 157.1 18.8992 157.1 17.5992C157.1 16.3992 156.9 15.4992 156.4 14.6992C156.1 14.1992 155.4 13.6992 154.5 13.6992Z" fill="#E4DCD1"/>
<path d="M164.2 31.2996V9.9996H169V12.3996C169.1 12.1996 169.2 11.9996 169.4 11.8996C169.5 11.7996 169.6 11.6996 169.8 11.3996C170.9 10.1996 172.3 9.59961 174 9.59961C175.9 9.59961 177.3 10.2996 178.4 11.6996C179.5 13.0996 180.1 14.9996 180.1 17.4996C180.1 19.9996 179.5 21.8996 178.3 23.5996C177.1 25.0996 175.6 25.9996 173.7 25.9996C173 25.9996 172.3 25.8996 171.7 25.5996C171.1 25.3996 170.4 24.8996 169.7 24.1996V31.2996H164.5H164.2ZM169.3 17.5996V17.7996C169.3 18.8996 169.5 19.6996 170.1 20.2996C170.6 20.8996 171.3 21.2996 172.1 21.2996C172.8 21.2996 173.5 20.8996 174 20.1996C174.5 19.4996 174.7 18.6996 174.7 17.4996C174.7 16.2996 174.5 15.4996 174 14.7996C173.5 14.0996 172.9 13.6996 172.1 13.6996C171.3 13.6996 170.7 14.0996 170.2 14.7996C169.5 15.5996 169.3 16.4996 169.3 17.5996Z" fill="#E4DCD1"/>
<path d="M181.3 31.2996V9.9996H186.1V12.3996C186.2 12.1996 186.3 11.9996 186.5 11.8996C186.7 11.7996 186.7 11.6996 186.9 11.3996C188 10.1996 189.4 9.59961 191.1 9.59961C193 9.59961 194.4 10.2996 195.5 11.6996C196.6 13.0996 197.2 14.9996 197.2 17.4996C197.2 19.9996 196.6 21.8996 195.4 23.5996C194.2 25.0996 192.7 25.9996 190.8 25.9996C190.1 25.9996 189.4 25.8996 188.8 25.5996C188.2 25.2996 187.5 24.8996 186.8 24.1996V31.2996H181.6H181.3ZM186.5 17.5996V17.7996C186.5 18.8996 186.7 19.6996 187.3 20.2996C187.8 20.8996 188.5 21.2996 189.3 21.2996C190 21.2996 190.7 20.8996 191.2 20.1996C191.7 19.4996 191.9 18.6996 191.9 17.4996C191.9 16.2996 191.7 15.4996 191.2 14.7996C190.7 14.0996 190.1 13.6996 189.3 13.6996C188.5 13.6996 187.9 14.0996 187.4 14.7996C186.8 15.5996 186.5 16.4996 186.5 17.5996Z" fill="#E4DCD1"/>
<path d="M198.6 7.9996V3.09961H203.8V7.9996H198.6ZM198.6 25.5996V9.9996H203.8V25.5996H198.6Z" fill="#E4DCD1"/>
<path d="M205.6 25.5992V9.99921H210.2V12.2992C210.9 11.2992 211.7 10.5992 212.5 10.2992C213.2 9.89919 214 9.69922 215 9.69922C216.7 9.69922 218.1 10.2992 219 11.3992C220 12.5992 220.4 14.0992 220.4 16.1992V25.6992H215.3V17.9992V16.7992C215.3 16.1992 215.1 15.6992 214.7 15.2992C214.3 14.8992 213.9 14.6992 213.3 14.6992C212.9 14.6992 212.5 14.7992 212.1 15.0992C211.7 15.3992 211.4 15.6992 211.1 16.0992C211 16.4992 210.9 16.6992 210.7 17.0992C210.5 17.4992 210.6 17.8992 210.6 18.4992V25.9992H205.5V25.5992H205.6Z" fill="#E4DCD1"/>
<path d="M232.9 11.9996V9.9996H237.5V23.1996C237.5 25.7996 236.8 27.7996 235.5 29.2996C234.1 30.6996 232.2 31.3996 229.7 31.3996C228 31.3996 226.4 31.1996 224.8 30.6996C224.3 30.5996 223.8 30.2996 223.1 29.9996L224.4 26.1996C226.1 26.8996 227.5 27.2996 228.7 27.2996C229.9 27.2996 230.8 27.0996 231.4 26.4996C232.1 25.8996 232.5 25.1996 232.5 24.1996V23.5996C231.3 24.8996 229.9 25.5996 228.2 25.5996C226.3 25.5996 224.8 24.8996 223.7 23.4996C222.6 22.0996 222 20.0996 222 17.5996C222 15.1996 222.6 13.2996 223.7 11.8996C224.9 10.3996 226.3 9.59961 228.1 9.59961C228.9 9.59961 229.8 9.79962 230.6 10.1996C231.4 10.5996 232.1 11.1996 232.9 11.9996ZM227.1 17.5996V17.9996C227.1 19.0996 227.3 19.8996 227.8 20.4996C228.3 21.0996 228.9 21.2996 229.7 21.2996C231.5 21.2996 232.4 20.0996 232.4 17.6996C232.4 16.4996 232.2 15.6996 231.7 15.0996C231.2 14.4996 230.5 14.0996 229.7 14.0996C228.9 14.0996 228.3 14.4996 227.8 15.0996C227.4 15.5996 227.1 16.4996 227.1 17.5996Z" fill="#E4DCD1"/>
<path d="M32.7 7.49921V0.199219H25.3C25.2 0.199219 24.9 0.199219 24.8 0.199219C24.7 0.199219 24.4 0.199219 24.3 0.199219C23.8 0.199219 23.3 0.2992 22.9 0.3992C19.5 1.1992 17 4.29921 17 7.99921C17 12.3992 20.6 15.8992 24.9 15.8992C28.6 15.8992 31.7 13.3992 32.5 9.99921C32.6 9.59921 32.6 9.19919 32.7 8.79919C32.7 8.59919 32.7 8.29921 32.7 8.09921C32.7 7.89921 32.9 7.69921 32.7 7.49921Z" fill="#E4DCD1"/>
<path d="M0.899902 7.49921V0.199219H8.2999C8.3999 0.199219 8.6999 0.199219 8.7999 0.199219C8.8999 0.199219 9.1999 0.199219 9.2999 0.199219C9.7999 0.199219 10.2999 0.2992 10.6999 0.3992C14.0999 1.1992 16.5999 4.29921 16.5999 7.99921C16.5999 12.3992 12.9999 15.8992 8.69992 15.8992C4.99992 15.8992 1.89991 13.3992 1.09991 9.99921C0.999915 9.59921 0.999902 9.19919 0.899902 8.79919C0.899902 8.59919 0.899902 8.29921 0.899902 8.09921C0.899902 7.89921 0.899902 7.69921 0.899902 7.49921Z" fill="#E4DCD1"/>
<path d="M0.899933 24.9984V32.2984H8.29993C8.39993 32.2984 8.69993 32.2984 8.79993 32.2984C8.89993 32.2984 9.19993 32.2984 9.29993 32.2984C9.79993 32.2984 10.3 32.1984 10.7 32.0984C14.1 31.2984 16.5999 28.1984 16.5999 24.3984C16.5999 19.9984 12.9999 16.3984 8.59995 16.3984C4.89995 16.3984 1.79993 18.8984 0.899933 22.2984C0.799933 22.6984 0.799951 23.0984 0.699951 23.4984C0.699951 23.6984 0.699951 23.9985 0.699951 24.1985C0.699951 24.3985 0.899933 24.7984 0.899933 24.9984Z" fill="#E4DCD1"/>
<path d="M16.9998 24.9984V32.2984H24.3998C24.4998 32.2984 24.7998 32.2984 24.8998 32.2984C24.9998 32.2984 25.2998 32.2984 25.3998 32.2984C25.8998 32.2984 26.3998 32.1984 26.7998 32.0984C30.1998 31.2984 32.6998 28.1984 32.6998 24.3984C32.6998 19.9984 29.0998 16.3984 24.6998 16.3984C20.9998 16.3984 17.8998 18.8984 16.9998 22.2984C16.8998 22.6984 16.8998 23.0984 16.7998 23.4984C16.7998 23.6984 16.7998 23.9985 16.7998 24.1985C16.7998 24.3985 16.9998 24.7984 16.9998 24.9984Z" fill="#E4DCD1"/>
</svg>
