<svg width="175" height="30" viewBox="0 0 175 30" fill="none" xmlns="http://www.w3.org/2000/svg">
<path fill-rule="evenodd" clip-rule="evenodd" d="M163.8 12.0992C165.5 12.1992 166.6 12.4992 167.3 13.0992C168 13.6992 168.3 14.4992 168.3 15.3992V29.3992H174.6V15.1992C174.6 13.5992 173.9 12.2992 172.4 11.0992C170.8 9.99922 168.4 9.29922 165.2 9.19922C161 9.39922 158.1 9.99922 156.3 11.3992C154.8 9.99922 152 9.29922 147.7 9.19922L141.9 9.49922L137.4 10.5992V29.1992H143.7V12.5992L147.8 12.0992C151.1 12.0992 152.9 13.1992 152.9 15.1992V29.2992H159.2V13.3992C160.3 12.4992 161.9 12.0992 163.8 12.0992Z" fill="#E4DCD1"/>
<path fill-rule="evenodd" clip-rule="evenodd" d="M112.1 9.59961H105.7L96.9001 18.5996V0.599609H90.6001V29.1996H96.9001V19.2996L106.2 29.1996H113.2L102.6 18.9996L112.1 9.59961Z" fill="#E4DCD1"/>
<path fill-rule="evenodd" clip-rule="evenodd" d="M123 12.099H123.2C125.1 12.199 126.3 12.599 127.1 13.599L128.2 16.299L128.3 17.799H117.7C118 15.299 118.8 13.699 120.2 12.999C121.5 12.299 122.4 11.999 123 12.099ZM123.5 9.29896H123C119.9 9.49896 117.4 10.399 115.5 12.099C113.6 13.899 112.7 16.299 112.6 19.499C112.7 22.699 113.6 25.099 115.6 26.799C117.5 28.499 120 29.399 123 29.599H124.8C128.3 29.599 131.1 29.099 132.8 28.099L131.4 25.399L129.7 25.899L124.8 26.499L123 26.399C121.2 25.999 120.1 25.399 119.2 24.299L117.9 21.499L117.7 19.999H133.8C133.8 12.699 130.5 9.19896 123.5 9.29896Z" fill="#E4DCD1"/>
<path fill-rule="evenodd" clip-rule="evenodd" d="M62.0999 18.4003V26.5003L58.2999 27.0003H57.3999C54.2999 26.8003 52.6999 25.6003 52.6999 23.2003C52.6999 20.9003 54.3999 19.4003 57.3999 18.9003L62.0999 18.4003ZM51.0999 9.70028L49.9999 12.8003L57.4999 12.1003C60.6999 12.5003 62.2999 13.6003 62.1999 15.2003V16.2003L57.4999 16.7003C54.3999 17.1003 51.8999 17.8003 49.8999 18.9003C47.8999 20.0003 46.9999 21.5003 46.8999 23.5003C46.8999 27.3003 50.3999 29.2003 57.4999 29.4003H58.0999L67.9999 27.9003V16.0003C67.8999 13.5003 66.9999 11.7003 65.0999 10.7003C63.0999 9.70028 60.7999 9.10028 57.8999 9.20028L51.0999 9.70028Z" fill="#E4DCD1"/>
<path fill-rule="evenodd" clip-rule="evenodd" d="M46.2999 12.8L47.3999 9.7L40.9999 9.5L36.3999 10.1L34.2 10.6V29.1H40.4999V12.7L41.7999 12.6L46.2999 12.8Z" fill="#E4DCD1"/>
<path fill-rule="evenodd" clip-rule="evenodd" d="M85.4001 13.0996L87.0001 10.4996C85.2001 9.69961 82.9001 9.19961 79.9001 9.09961C77.3001 9.19961 75.1001 9.69961 73.5001 10.7996C71.9001 11.7996 71.1001 13.1996 71.1001 14.8996C71.0001 15.7996 71.4001 16.7996 72.2001 17.7996C73.0001 18.6996 74.7001 19.6996 77.2001 20.2996C79.9001 20.8996 81.3 22.0996 81.3 23.4996C81.2 25.2996 79.7001 26.0996 77.0001 26.2996L71.9001 25.1996L70.3 27.9996L77.9001 29.4996C80.9001 29.3996 83.2001 28.8996 85.0001 27.6996C86.8001 26.3996 87.7001 25.0996 87.7001 23.3996C87.8001 22.2996 87.4001 21.1996 86.4001 20.2996C85.5001 19.2996 83.7001 18.3996 81.1001 17.6996C78.5001 17.0996 77.1001 15.9996 77.0001 14.5996C77.0001 13.0996 78.3001 12.1996 80.9001 11.9996C83.1001 12.1996 84.6001 12.5996 85.4001 13.0996Z" fill="#E4DCD1"/>
<path fill-rule="evenodd" clip-rule="evenodd" d="M8.7001 8.70039V4.00039H15.9001C18.2001 4.20039 19.9001 4.80039 20.8001 5.70039C21.7001 6.50039 22.2001 7.50039 22.2001 8.40039C22.1001 10.4004 21.3001 11.9004 19.7001 13.0004L15.6001 15.0004L18.7001 15.9004L20.1001 16.4004L22.0001 17.8004C23.0001 18.6004 23.6001 19.8004 23.8001 21.5004C23.7001 23.4004 22.9001 24.6004 21.4001 25.3004L16.6001 26.6004L8.7001 26.4004V21.8004L1.6001 29.0004L12.7001 29.7004C17.8001 29.7004 22.0001 29.1004 25.2001 27.9004C28.3001 26.8004 30.2001 25.2004 30.8001 23.1004C31.2001 21.3004 31.1001 19.8004 30.3001 18.6004C29.0001 16.7004 26.4001 15.6004 22.5001 15.2004C26.0001 14.2004 28.2001 12.8004 29.2001 11.0004C29.7001 10.0004 29.8001 8.70039 29.4001 7.20039C28.8001 5.20039 26.8001 3.70039 23.7001 2.60039C20.5001 1.50039 16.3001 0.900391 11.2001 0.900391L1.6001 1.90039L8.7001 8.70039Z" fill="#E4DCD1"/>
<path fill-rule="evenodd" clip-rule="evenodd" d="M0.5 26.6004L11.9 15.1004L0.5 3.90039V26.6004Z" fill="#E4DCD1"/>
</svg>
