<svg width="201" height="31" viewBox="0 0 201 31" fill="none" xmlns="http://www.w3.org/2000/svg">
<path d="M0.100098 0.800781H11.2001C14.2001 0.800781 17.0001 0.900778 18.7001 1.50078C22.2001 2.60078 23.7001 5.50078 23.7001 8.20078C23.7001 9.80078 23.3001 10.7008 23.2001 11.0008C21.9001 13.9008 19.1001 14.5008 17.6001 14.8008C19.4001 15.1008 21.7001 15.5008 23.3001 17.3008C24.3001 18.4008 24.9001 20.0008 24.9001 21.6008C24.9001 23.8008 23.7001 27.0008 20.1001 28.6008C17.9001 29.5008 15.6001 29.7008 12.3001 29.7008H0.100098V0.800781ZM6.9001 6.20078V12.2008H12.3001C14.0001 12.2008 16.6001 12.1008 16.6001 9.10078C16.6001 6.30078 14.2001 6.20078 12.8001 6.20078H6.9001ZM6.9001 17.5008V24.5008H11.9001C14.3001 24.5008 17.5001 24.4008 17.5001 21.1008C17.5001 17.6008 14.6001 17.6008 13.2001 17.5008H6.9001Z" fill="#E4DCD1"/>
<path d="M35.0001 10.5996C36.4001 9.39961 37.9001 8.49961 41.2001 8.09961V13.6996L39.1001 13.9996C36.1001 14.4996 35.2001 14.9996 35.2001 17.6996V29.6996H28.9001V8.29961H35.0001V10.5996Z" fill="#E4DCD1"/>
<path d="M55.1 7.30084C63.8 7.80084 65.7 14.7008 65.7 18.6008C65.7 24.0008 62.6 29.9008 54.3 29.9008C48.3 29.9008 42.8 26.5008 42.8 18.6008C42.9 12.0008 47 6.80084 55.1 7.30084ZM50.3 14.4008C49.5 15.6008 49.2 17.1008 49.2 18.5008C49.2 21.9008 50.9 24.9008 54.4 24.9008C57.8 24.9008 59.4 22.2008 59.4 18.8008C59.4 16.4008 58.8 14.6008 57.6 13.5008C56.3 12.3008 54.8 12.2008 53.9 12.3008C52.2 12.4008 51.1 13.0008 50.3 14.4008Z" fill="#E4DCD1"/>
<path d="M80.7001 7.30084C89.4001 7.80084 91.3001 14.7008 91.3001 18.6008C91.3001 24.0008 88.2001 29.9008 79.9001 29.9008C73.9001 29.9008 68.4001 26.5008 68.4001 18.6008C68.4001 12.0008 72.5001 6.80084 80.7001 7.30084ZM75.8001 14.4008C75.0001 15.6008 74.7001 17.1008 74.7001 18.5008C74.7001 21.9008 76.4001 24.9008 79.9001 24.9008C83.3001 24.9008 84.9001 22.2008 84.9001 18.8008C84.9001 16.4008 84.3002 14.6008 83.1002 13.5008C81.8002 12.3008 80.3001 12.2008 79.4001 12.3008C77.7001 12.4008 76.7001 13.0008 75.8001 14.4008Z" fill="#E4DCD1"/>
<path d="M95.4001 0.800781H101.6V15.6008L108.5 8.30078H116.1L108.8 15.9008L117.1 29.6008H109.8L104.3 20.4008L101.6 22.9008V29.6008H95.5002L95.4001 0.800781Z" fill="#E4DCD1"/>
<path d="M120.2 6.2C120.2 5.1 120.3 3.7 121.1 2.6C121.9 1.5 123.6 0.5 126.6 0.5C127.8 0.5 129.1 0.700002 130.4 0.900002V5.6H128.8C126.4 5.6 126.3 6.1 126.3 9H130.5V12.9H126.4V29.9H120.1V12.9H116.7V9H120.1V6.2H120.2ZM133.8 0.800003H140V5.7H133.8V0.800003ZM133.8 8.4H140V29.7H133.8V8.4Z" fill="#E4DCD1"/>
<path d="M165.5 24.2992C164.8 25.3992 164 26.4992 162.9 27.4992C161 29.1992 158.3 30.4992 154.9 30.4992C148.5 30.4992 144.1 26.4992 144.1 19.4992C144.1 14.2992 146.6 7.69922 155 7.69922C156.3 7.69922 159.9 7.79922 162.7 10.7992C165.5 13.7992 165.6 17.8992 165.7 20.3992H150.5C150.5 22.9992 152 25.6992 155.4 25.6992C158.8 25.6992 160 23.4992 160.8 21.8992L165.5 24.2992ZM159.3 16.3992C159.2 15.4992 159 14.2992 158.1 13.3992C157.3 12.5992 156.1 12.1992 155 12.1992C153.5 12.1992 152.4 12.8992 151.8 13.5992C150.9 14.5992 150.7 15.4992 150.5 16.3992H159.3Z" fill="#E4DCD1"/>
<path d="M175.7 0.800781V29.7008H169.4V0.800781H175.7Z" fill="#E4DCD1"/>
<path d="M200.5 0.800781V29.7008H194.8V27.7008C193.8 28.7008 192.2 30.3008 189 30.3008C186.9 30.3008 184.7 29.5008 183 27.8008C179.9 24.8008 179.9 20.5008 179.9 19.2008C179.9 11.2008 184.5 7.80078 188.8 7.80078C191.6 7.80078 193.3 9.10078 194.4 10.0008V0.90078L200.5 0.800781ZM192.3 25.0008C194.5 23.5008 194.5 20.2008 194.5 19.0008C194.5 18.0008 194.5 15.4008 193.2 13.7008C192.9 13.3008 192 12.4008 190.7 12.4008C186.3 12.4008 186.3 18.0008 186.3 18.9008C186.3 21.9008 187.1 25.5008 190.3 25.5008C190.9 25.6008 191.7 25.4008 192.3 25.0008Z" fill="#E4DCD1"/>
</svg>
