<svg width="188" height="61" viewBox="0 0 188 61" fill="none" xmlns="http://www.w3.org/2000/svg">
<path d="M186.2 52.7C186.4 52.8 186.7 53 186.8 53.2C187.2 53.9 187.3 54.2 187.3 54.4C187.3 54.7 187.2 55 187.1 55.3C187 55.6 186.7 55.8 186.4 55.9C186.7 56 186.9 56.2 187 56.5C187.1 56.7 187.2 57.1 187.2 57.5C187.2 58.2 187.1 59 187.1 59.1H185.8V58.2V57.6C185.8 57.2 185.7 56.9 185.6 56.8C185.5 56.7 185.2 56.6 184.8 56.6H183.4V59.2H182V52.6H185C185.6 52.5 185.9 52.6 186.2 52.7ZM183.4 53.6V55.4H184.9C185.2 55.4 185.4 55.4 185.5 55.3C185.8 55.2 185.9 54.9 185.9 54.6C185.9 54.3 185.8 54 185.5 53.8C185.4 53.7 185.1 53.7 184.9 53.7H183.4V53.6ZM179 52.5H180.8V59.1H179.6V54.7V53.6L178.4 59.1H177.1L175.9 53.6V54.7V59.1H174.7V52.5H176.5L177.6 57.7L179 52.5Z" fill="#E4DCD1"/>
<path d="M70.6999 53.1993C63.8999 48.8993 54.5999 47.9993 39.7999 52.1993C23.8999 55.9993 18.5999 58.3993 11.5999 53.4993C8.89989 51.0993 7.99989 47.2993 8.59989 41.8993C10.2999 32.8993 14.7999 24.3993 22.6999 14.8993C27.0999 9.89928 31.2999 5.69928 36.6999 3.99928C40.8999 2.89928 40.4999 6.19927 39.8999 6.69927C39.2999 6.69927 38.4999 6.79928 37.7999 7.29928C37.1999 7.79928 35.6999 9.09928 35.5999 11.0993C35.4999 13.9993 38.4999 13.3993 39.7999 11.7993C41.1999 9.99928 43.2999 6.49928 41.5999 3.39928C40.8999 2.29928 39.7999 1.49927 38.2999 1.19927C33.2999 0.899274 28.6999 3.29928 24.3999 5.89928C14.9999 12.4993 7.4999 21.3993 3.2999 31.2993C0.799905 37.1993 -1.30006 45.7993 1.89994 52.6993C4.49994 57.4993 9.79989 60.0993 16.0999 59.4993C20.4999 58.9993 25.9999 57.5993 29.5999 56.6993C33.1999 55.7993 51.7999 49.4993 57.7999 60.5993C57.7999 60.5993 59.7999 56.5993 64.8999 56.4993C69.0999 56.0993 75.0999 57.6993 79.4999 60.8993C78.2999 58.6993 74.0999 55.4993 70.6999 53.1993Z" fill="#E4DCD1"/>
<path d="M41.5999 15.8991C38.0999 13.5991 31.1999 17.9991 25.4999 25.3991C20.3999 32.0991 18.1999 39.8991 20.5999 43.4991C24.1999 47.6991 30.7999 41.5991 33.5999 38.1991L33.9999 37.7991C35.8999 35.7991 37.3999 33.2991 38.7999 30.8991C38.7999 30.8991 40.0999 28.6991 40.1999 28.5991C40.9999 28.3991 41.9999 28.1991 43.0999 27.8991C43.0999 27.9991 38.8999 34.9991 39.2999 38.4991C39.3999 39.5991 39.2999 43.4991 43.1999 44.6991C48.2999 45.4991 52.2999 41.6991 55.8999 38.0991C55.8999 38.0991 56.4999 37.4991 56.7999 37.1991C56.6999 37.5991 56.5999 37.9991 56.5999 37.9991C55.0999 43.1991 57.0999 44.2991 58.3999 44.5991C62.1999 45.6991 66.6999 40.1991 66.7999 40.1991C66.6999 41.9991 66.2999 43.2991 68.1999 44.4991C69.9999 45.0991 71.6999 44.1991 72.9999 43.2991C77.7999 39.9991 81.6999 34.5991 84.7999 30.0991H82.8999C82.8999 30.0991 77.9999 37.0991 74.7999 38.6991C74.7999 38.6991 74.1999 38.9991 73.8999 38.7991C73.4999 38.3991 73.5999 37.6991 73.8999 37.0991L86.1999 15.7991H80.3999C80.3999 15.7991 79.7999 16.8991 79.6999 16.8991C79.6999 16.8991 79.5999 16.6991 79.4999 16.5991C75.8999 11.5991 67.7999 19.2991 61.6999 28.0991C59.2999 31.4991 56.2999 35.2991 53.2999 38.0991C53.2999 38.0991 48.6999 42.2991 46.6999 39.2991C45.9999 37.9991 46.1999 36.1991 46.5999 34.9991C48.8999 28.3991 52.8999 22.4991 57.2999 18.9991C58.5999 17.9991 59.9999 17.6991 60.5999 18.1991C61.1999 18.5991 61.2999 19.5991 60.9999 20.0991C59.9999 20.0991 59.1999 20.3991 58.3999 21.0991C56.9999 22.4991 56.5999 23.8991 56.9999 25.1991C59.0999 28.1991 63.1999 22.2991 62.9999 18.6991C62.8999 17.3991 62.2999 16.1991 61.1999 15.6991C59.6999 14.7991 57.3999 15.0991 55.8999 15.7991C53.9999 16.4991 50.6999 19.0991 48.8999 21.1991C46.5999 23.7991 42.5999 26.5991 41.2999 26.2991C41.7999 25.4991 45.1999 18.4991 41.5999 15.8991ZM69.4999 26.1991C70.5999 24.5991 73.8999 20.4991 74.6999 19.6991C77.3999 17.2991 78.4999 18.3991 78.5999 19.0991C76.0999 23.5991 73.1999 28.6991 70.3999 33.3991L69.4999 34.6991C68.2999 36.4991 66.9999 38.1991 65.0999 39.2991C64.7999 39.3991 64.3999 39.3991 63.9999 39.1991C63.5999 38.8991 63.3999 38.5991 63.4999 38.0991C63.4999 36.5991 64.9999 32.2991 69.4999 26.1991ZM37.9999 28.8991L37.8999 29.0991L35.3999 33.1991C33.8999 35.1991 31.9999 37.6991 29.5999 38.9991C28.8999 39.1991 27.8999 39.3991 27.3999 38.7991C26.3999 37.4991 26.8999 35.7991 27.2999 34.3991L27.4999 33.8991C28.7999 30.4991 30.6999 27.3991 32.6999 24.6991H32.7999C32.7999 24.6991 32.7999 24.6991 32.7999 24.7991C33.9999 27.0991 36.2999 28.1991 38.0999 28.7991C37.9999 28.6991 37.9999 28.6991 37.9999 28.8991C38.0999 28.6991 38.0999 28.5991 37.9999 28.8991ZM40.3999 24.0991L39.2999 26.6991C39.0999 26.7991 38.8999 26.7991 38.5999 26.6991L38.0999 26.5991C36.4999 26.0991 35.2999 25.0991 34.9999 23.7991C34.4999 21.3991 36.5999 19.4991 37.4999 18.7991C38.3999 18.1991 39.6999 17.8991 40.4999 18.4991C40.9999 19.0991 41.0999 19.7991 41.0999 20.5991C41.1999 21.6991 40.7999 22.8991 40.3999 24.0991Z" fill="#E4DCD1"/>
<path d="M113.6 31.7996C113 30.5996 111.8 29.8996 110.3 29.9996C105.7 30.3996 101.3 34.1996 98.8999 39.5996C97.6999 42.3996 96.9999 44.6996 96.4999 48.2996C97.8999 46.5996 100.8 43.9996 104.2 42.4996C104.2 42.4996 104.7 38.9996 107 35.8996C107.8 34.5996 109.6 32.5996 111.5 33.0996C113.2 33.6996 112.6 38.3996 110.3 42.8996C108.6 46.1996 106.1 49.5996 103.5 51.8996C101.2 53.7996 97.8999 56.0996 94.8999 54.3996C93.0999 53.2996 92.0999 50.9996 92.2999 47.9996C93.1999 39.4996 97.0999 32.2996 102.5 24.0996C108.1 16.3996 114.4 8.69964 122.9 4.39964C124.7 3.49964 126.2 3.29964 127.6 3.79964C127.6 3.79964 119.7 8.09964 115.9 16.1996C115 18.1996 113.6 20.9996 115 23.3996C115.7 24.6996 116.9 24.7996 118 24.6996C122.6 23.5996 125.7 19.2996 128.1 15.3996C129.5 12.3996 130.8 9.39964 130.8 6.09964C130.8 5.69964 130.8 5.19964 130.7 4.69964C132.9 3.49964 137.4 5.59964 137.4 5.59964C140.9 6.79964 148.5 12.4996 151.1 13.5996C152.3 12.0996 154.3 9.99964 155.5 8.89964L153.8 7.89964C151.1 6.19964 148.4 4.79964 145.6 3.19964C139.3 -0.200363 134.2 0.999641 131.6 1.89964C130.6 2.29964 129.7 2.59964 129.7 2.59964C127.8 0.499638 124.6 0.699637 122.3 1.19964C113.9 3.59964 106.1 9.49964 97.6999 19.6996C91.4999 27.6996 87.6999 34.5996 85.6999 41.3996C84.0999 45.9996 83.6999 52.7996 87.4999 56.6996C90.6999 60.0996 95.0999 59.3996 98.0999 58.1996C104.7 54.9996 110.7 47.9996 113.6 39.8996C114 37.6996 114.8 34.2996 113.6 31.7996ZM128.7 6.49964C127.8 16.4996 120 22.3996 118.1 22.7996C116.9 22.9996 115 22.4996 116.7 18.3996C119.3 12.7996 123.8 7.99964 128.6 5.49964C128.8 5.89964 128.7 6.19964 128.7 6.49964Z" fill="#E4DCD1"/>
<path d="M174.8 7.80039C170.6 10.2004 166.3 11.7004 161 11.1004C159.5 12.8004 158.1 14.4004 156.8 16.2004C164.2 18.0004 171.9 13.9004 176.4 9.90039C181 5.90039 183.4 0.900391 183.4 0.900391C183.4 0.900391 180 5.00039 174.8 7.80039Z" fill="#E4DCD1"/>
<path d="M95.7 16H90.2999L87.2 21.3H92.7L95.7 16Z" fill="#E4DCD1"/>
<path d="M161.1 53.8001C160.5 54.2001 159.7 53.9001 160 53.0001C160.8 50.7001 163.9 45.8001 163.9 45.8001L172.5 30.6001H166.7C166.4 31.1001 165.8 32.2001 165.8 32.2001C165.5 31.7001 164.7 30.7001 164.4 30.5001C163 29.6001 160.9 30.0001 159.4 30.9001C153.1 34.6001 148.5 41.9001 144.9 47.5001C144.9 47.5001 141.1 53.8001 139 54.2001C137.3 54.3001 137.5 52.1001 137.6 51.6001C138.2 47.8001 139.7 44.3001 141.2 41.1001C144.2 39.0001 147.8 36.2001 150.9 33.2001C157.7 26.6001 163.5 19.3001 164.4 17.6001C164.4 17.6001 163.5 17.8001 162.5 17.8001C157.2 25.1001 146.4 35.8001 143.2 37.5001C144.7 34.0001 154 17.4001 161.9 9.40005L163.2 8.20005C165.1 6.40005 167.2 4.30005 168.7 4.00005C168.9 4.00005 169.1 4.00005 169.3 4.40005C169.4 5.90005 168.8 7.00005 168.2 8.20005L167.3 10.0001C167.3 10.0001 168.6 9.80005 169.4 9.50005C170.3 7.70005 171.4 5.70006 171 3.30006C170.9 2.60006 170.3 1.90006 169.6 1.80006C167.2 1.30006 164.6 3.10005 162.6 4.60005L162.5 4.70005C151.8 13.1 142.7 25.2001 134.9 41.7001C134.3 42.2001 132.1 42.6001 131.8 42.4001C132.6 40.8001 133.6 38.6001 134.1 36.3001C134.2 35.7001 134.3 34.9001 134.3 34.3001C134.3 32.8001 133.9 31.5001 132.6 30.5001C131.1 29.8001 129.3 30.1001 128 30.7001C122.4 33.0001 118.1 38.8001 115.1 43.6001C113.4 46.6001 111.9 49.9001 111.4 53.6001C111.1 56.6001 111.7 58.4001 113.3 59.3001C115 60.2001 117.2 59.3001 118 58.8001C123.7 55.8001 127.7 49.8001 130.9 44.2001C131 44.2001 132.7 44.1001 134 43.8001C134 43.8001 134 43.8001 134.1 43.8001C134 44.1001 133.4 46.1001 133.4 46.1001C131.5 51.9001 130.4 56.0001 132.4 58.3001C135.1 61.6001 139.5 58.2001 143.2 53.7001C142.4 59.1001 145.2 60.0001 147.4 59.6001C149.9 59.0001 152.7 56.3001 154 55.0001C153.6 56.6001 153.7 59.4001 155.9 59.7001C157.5 60.0001 158.6 59.2001 160 58.5001C164.8 55.9001 170.5 47.1001 172 44.7001H170C167.2 47.5001 164.4 51.8001 161.1 53.8001ZM118 53.1001C117.7 52.6001 117.6 52.1001 117.6 51.6001C117.5 48.4001 121.1 42.5001 123.6 39.2001C124.6 41.6001 127 43.0001 128.5 43.6001C126.7 47.6001 120.6 56.0001 118 53.1001ZM129.4 41.9001C129.2 42.0001 126.3 41.0001 125.7 38.2001C125.2 35.8001 126.8 34.0001 128.5 33.0001C129.2 32.4001 130.2 32.3001 131 32.5001C131.7 33.0001 131.9 33.8001 131.9 34.7001C131.9 35.3001 131.8 35.8001 131.8 36.4001V36.5001C131.1 38.4001 130.4 40.2001 129.4 41.9001ZM153.3 52.0001L152.7 52.5001C151.9 53.2001 151 54.0001 150 53.6001C149.7 53.5001 149.5 53.1001 149.5 52.9001C149.5 50.9001 150.4 48.9001 151.3 47.1001L151.5 46.6001C154.1 42.3001 157.1 37.2001 161.5 33.7001C162.2 33.1001 163.1 32.7001 163.9 33.1001C164.1 33.3001 164.3 33.6001 164.3 33.9001C164.3 34.0001 164.2 34.3001 164.2 34.4001C163 36.3001 161.8 38.5001 160.6 40.5001C158.5 44.4001 156.2 48.4001 153.3 52.0001Z" fill="#E4DCD1"/>
</svg>
