<svg width="460" height="67" viewBox="0 0 460 67" fill="none" xmlns="http://www.w3.org/2000/svg">
<path fill-rule="evenodd" clip-rule="evenodd" d="M0.5 33.5996L100.3 66.1992L200.5 32.7988L100.3 0.199219L0.5 33.5996ZM123.1 34.2988L124.1 36.6992C124.1 36.7422 124.1 36.7656 124.108 36.7871C124.118 36.8164 124.142 36.8418 124.2 36.9004L124.7 37.5L128.4 27.5996C128.98 26.1074 129.045 25.3535 129.456 24.9824C129.87 24.6094 130.635 24.625 132.633 24.6641C133.437 24.6797 134.44 24.6992 135.7 24.6992C136.251 24.6992 136.502 25.1113 136.775 25.8457C136.843 26.0273 136.912 26.2285 136.987 26.4492C137.103 26.791 137.235 27.1758 137.4 27.5996L137.803 28.6465L138.545 30.5703L139.262 32.4102C140.183 34.7539 141.129 37.0742 141.4 37.4004C141.871 36.7266 142.614 34.918 143.233 33.4121L143.244 33.3887C143.54 32.668 143.806 32.0195 144 31.5996C144.099 31.3359 144.252 30.9844 144.417 30.6074C144.616 30.1504 144.833 29.6562 144.989 29.2324C145.094 28.9453 145.173 28.6895 145.2 28.5C145.318 27.9395 145.297 27.5371 145.172 27.2422C144.89 26.5684 144.073 26.4512 143.146 26.3203L143 26.2988V24.6992H155L155.1 26.4004C152.5 26.4004 151.9 27.1992 151 29.2988L146.9 39.1992C146.79 39.4844 146.632 39.8379 146.458 40.2285C145.838 41.6133 145.01 43.4629 145.4 44.4004C145.664 44.7695 145.984 44.8047 146.346 44.8438C146.668 44.8789 147.023 44.916 147.4 45.1992L147.3 46.5H135.5L135.4 45.1992C135.644 44.8516 136.009 44.7461 136.339 44.6504L136.356 44.6445C136.555 44.5859 136.741 44.5312 136.878 44.4277C137.159 44.2109 137.235 43.7852 136.8 42.6992C136.3 41.5996 135.8 40.5 135.4 39.4004C134.6 37.4004 133.6 34.7988 132.6 32.9004C132 34 129.6 40 128.7 42.0996C128.1 43.5 127.7 44.6992 129.7 44.7988L129.8 46.4004H118L117.9 45.0996C118.167 44.7559 118.537 44.6602 118.875 44.5723C119.151 44.502 119.405 44.4355 119.566 44.2461C119.636 44.1621 119.689 44.0547 119.717 43.9141C119.753 43.7363 119.751 43.5059 119.7 43.1992L116.4 35.1992C115.6 33.4004 114.9 31.7988 114.2 29.9004C113.5 27.7988 113.3 26.2988 110.5 26.2988L110.6 24.5996H122.7L122.8 26.2988C119.511 26.3867 121.016 29.6934 122.453 32.8496C122.677 33.3398 122.898 33.8281 123.1 34.2988ZM55.3 25.2988H64.1001C72.8 25.2988 73.3 38.1992 66.2002 40.2988C64.6279 40.7715 60.3357 40.6875 57.406 40.6289C56.6094 40.6133 55.9133 40.5996 55.4001 40.5996L55.3 39.7988V25.2988ZM67.8 46C80.8 42 80.9001 24.2988 67.7002 20.0996C64.8687 19.1562 55.9749 19.3262 49.9226 19.4414H49.9043C48.269 19.4727 46.8423 19.5 45.8 19.5V21.1992C47.7 21.1992 48.6001 21.6992 48.6001 23.5996V42.6992C48.6001 44.5 47.6001 45 45.8 45V46.6992C47.0132 46.6738 48.8259 46.6875 50.9097 46.7051C56.8994 46.752 65.1292 46.8164 67.8 46ZM94.2002 29.2988C104.4 27.0977 107.8 38.6992 98.6001 40.5977C87.9001 42.8984 84.8 31.1992 94.2002 29.2988ZM96 47.0977C76.5 47.0977 77.8 22.8984 95.6001 22.8984H96.9001C114.8 22.8984 116.2 47.0977 96 47.0977Z" fill="#E4DCD1"/>
<path d="M224.2 24.5996H231.8C233.3 24.5996 234.5 24.7996 235.4 25.2996C236.3 25.6996 237.1 26.3996 237.7 27.1996C238.3 27.9996 238.8 28.9996 239 30.0996C239.3 31.1996 239.4 32.3996 239.4 33.4996C239.4 35.3996 239.2 36.7996 238.8 37.8996C238.4 38.9996 237.8 39.8996 237.1 40.5996C236.4 41.2996 235.6 41.7996 234.8 41.9996C233.7 42.2996 232.6 42.4996 231.7 42.4996H224.1L224.2 24.5996ZM229.3 28.6996V38.4996H230.6C231.7 38.4996 232.5 38.3996 232.9 38.0996C233.4 37.7996 233.7 37.3996 234 36.6996C234.3 36.0996 234.4 34.9996 234.4 33.5996C234.4 31.6996 234.1 30.3996 233.5 29.7996C232.9 29.0996 232 28.6996 230.6 28.6996H229.3ZM241.2 35.9996C241.2 33.9996 241.8 32.3996 243.1 31.0996C244.4 29.7996 246 29.1996 248.1 29.1996C250.5 29.1996 252.3 29.9996 253.5 31.4996C254.5 32.6996 255 34.1996 255 35.8996C255 37.8996 254.4 39.4996 253.1 40.7996C251.9 42.0996 250.1 42.6996 248.1 42.6996C246.1 42.6996 244.7 42.1996 243.5 41.0996C241.9 39.7996 241.2 38.0996 241.2 35.9996ZM245.9 35.9996C245.9 37.1996 246.1 37.9996 246.6 38.5996C247 39.1996 247.6 39.3996 248.2 39.3996C248.9 39.3996 249.4 39.0996 249.8 38.5996C250.2 37.9996 250.4 37.1996 250.4 35.8996C250.4 34.7996 250.2 33.8996 249.8 33.2996C249.4 32.6996 248.8 32.4996 248.2 32.4996C247.5 32.4996 247 32.7996 246.5 33.2996C246.1 33.9996 245.9 34.8996 245.9 35.9996ZM255.4 29.4996H259.8L261.8 37.5996L264.3 29.4996H268.4L271 37.6996L273 29.4996H277.4L273 42.3996H269L266.5 34.5996L264.1 42.3996H260L255.4 29.4996ZM296.8 39.4996H291L290.2 42.4996H285L291.2 24.6996H296.8L303 42.4996H297.7L296.8 39.4996ZM295.7 35.6996L293.9 29.2996L292.1 35.6996H295.7ZM312.6 29.4996H316.9V41.6996V42.2996C316.9 43.0996 316.7 43.8996 316.4 44.6996C316.1 45.3996 315.6 46.0996 315.1 46.4996C314.6 46.9996 313.9 47.2996 313.1 47.4996C312.3 47.6996 311.3 47.7996 310.3 47.7996C307.9 47.7996 306.3 47.3996 305.4 46.5996C304.5 45.7996 304 44.6996 304 43.3996C304 43.1996 304 42.9996 304 42.6996L308.4 43.2996C308.5 43.7996 308.7 44.0996 308.9 44.1996C309.2 44.4996 309.7 44.5996 310.2 44.5996C310.9 44.5996 311.4 44.3996 311.7 43.9996C312 43.5996 312.2 42.8996 312.2 41.9996V39.9996C311.7 40.5996 311.3 40.9996 310.8 41.2996C310.1 41.6996 309.3 41.8996 308.5 41.8996C306.9 41.8996 305.6 41.0996 304.7 39.5996C304 38.4996 303.6 37.0996 303.6 35.3996C303.6 33.3996 304.1 31.8996 305 30.7996C305.9 29.6996 307.1 29.1996 308.5 29.1996C309.4 29.1996 310.2 29.3996 310.8 29.6996C311.4 29.9996 312 30.5996 312.5 31.3996L312.6 29.4996ZM308.3 35.7996C308.3 36.7996 308.5 37.4996 308.9 37.8996C309.3 38.3996 309.8 38.5996 310.4 38.5996C311 38.5996 311.5 38.3996 311.9 37.8996C312.3 37.3996 312.5 36.6996 312.5 35.7996C312.5 34.7996 312.3 34.0996 311.9 33.5996C311.5 33.0996 311 32.7996 310.4 32.7996C309.8 32.7996 309.3 32.9996 309 33.4996C308.5 33.8996 308.3 34.6996 308.3 35.7996ZM320.1 29.4996H324.4V31.5996C324.8 30.6996 325.3 29.9996 325.7 29.6996C326.1 29.2996 326.7 29.1996 327.4 29.1996C328.1 29.1996 328.8 29.3996 329.7 29.8996L328.3 33.3996C327.7 33.1996 327.3 32.9996 327 32.9996C326.4 32.9996 325.9 33.2996 325.6 33.7996C325.1 34.5996 324.9 35.9996 324.9 37.9996V42.2996H320.3V29.4996H320.1ZM330.2 35.9996C330.2 33.9996 330.8 32.3996 332.1 31.0996C333.3 29.7996 335 29.1996 337.1 29.1996C339.5 29.1996 341.3 29.9996 342.5 31.4996C343.5 32.6996 344 34.1996 344 35.8996C344 37.8996 343.4 39.4996 342.1 40.7996C340.9 42.0996 339.1 42.6996 337.1 42.6996C335.1 42.6996 333.7 42.1996 332.5 41.0996C330.9 39.7996 330.2 38.0996 330.2 35.9996ZM334.8 35.9996C334.8 37.1996 335 37.9996 335.5 38.5996C335.9 39.1996 336.5 39.3996 337.1 39.3996C337.8 39.3996 338.3 39.0996 338.7 38.5996C339.1 37.9996 339.3 37.1996 339.3 35.8996C339.3 34.7996 339.1 33.8996 338.7 33.2996C338.3 32.6996 337.7 32.4996 337.1 32.4996C336.4 32.4996 335.9 32.7996 335.4 33.2996C335 33.9996 334.8 34.8996 334.8 35.9996ZM345.6 36.4996L350.4 36.1996C350.5 37.0996 350.7 37.6996 351.1 38.1996C351.6 38.8996 352.4 39.2996 353.4 39.2996C354.1 39.2996 354.7 39.0996 355.1 38.6996C355.5 38.2996 355.7 37.8996 355.7 37.3996C355.7 36.8996 355.5 36.4996 355.1 36.0996C354.7 35.6996 353.8 35.3996 352.4 34.9996C350.1 34.4996 348.6 33.6996 347.6 32.7996C346.6 31.8996 346.1 30.6996 346.1 29.3996C346.1 28.4996 346.4 27.5996 346.9 26.7996C347.4 25.9996 348.2 25.2996 349.2 24.7996C350.2 24.2996 351.6 24.0996 353.2 24.0996C355.3 24.0996 356.9 24.4996 358 25.3996C359.1 26.2996 359.8 27.5996 360 29.3996L355.2 29.6996C355.1 28.8996 354.8 28.2996 354.4 27.8996C354 27.4996 353.4 27.2996 352.7 27.2996C352.1 27.2996 351.6 27.3996 351.3 27.6996C351 27.9996 350.8 28.2996 350.8 28.6996C350.8 28.9996 350.9 29.1996 351.2 29.4996C351.4 29.6996 352 29.9996 352.9 30.1996C355.2 30.6996 356.7 31.2996 357.7 31.7996C358.7 32.2996 359.4 32.9996 359.8 33.7996C360.2 34.5996 360.5 35.4996 360.5 36.4996C360.5 37.6996 360.2 38.6996 359.6 39.6996C359 40.6996 358.2 41.3996 357.1 41.8996C356 42.3996 354.7 42.6996 353.2 42.6996C350.3 42.6996 348.5 42.0996 347.4 40.8996C346.3 39.7996 345.7 38.2996 345.6 36.4996ZM371.8 37.2996L376.1 37.7996C375.9 38.7996 375.5 39.6996 374.9 40.3996C374.3 41.0996 373.6 41.6996 372.8 42.0996C371.9 42.4996 370.8 42.6996 369.5 42.6996C368.2 42.6996 367.1 42.5996 366.3 42.2996C365.4 41.9996 364.7 41.5996 364.1 40.9996C363.5 40.3996 363 39.6996 362.6 38.9996C362.2 38.1996 362.1 37.1996 362.1 35.8996C362.1 34.5996 362.3 33.3996 362.7 32.5996C363 31.8996 363.4 31.2996 364 30.7996C364.5 30.2996 365.1 29.8996 365.7 29.5996C366.6 29.1996 367.8 28.9996 369.1 28.9996C371.1 28.9996 372.5 29.3996 373.5 30.0996C374.5 30.8996 375.3 31.9996 375.7 33.3996L371.4 33.9996C371.3 33.3996 371 32.9996 370.6 32.6996C370.2 32.3996 369.7 32.2996 369.1 32.2996C368.3 32.2996 367.7 32.5996 367.2 33.1996C366.7 33.7996 366.5 34.6996 366.5 35.8996C366.5 36.9996 366.7 37.7996 367.2 38.3996C367.7 38.9996 368.3 39.1996 369 39.1996C369.6 39.1996 370.1 38.9996 370.5 38.6996C371.3 38.4996 371.6 37.9996 371.8 37.2996ZM378.5 24.5996H383.1V27.9996H378.5V24.5996ZM378.5 29.4996H383.1V42.3996H378.5V29.4996ZM399.2 37.1996H389.9C390 37.9996 390.2 38.5996 390.5 38.9996C391 39.5996 391.5 39.8996 392.3 39.8996C392.8 39.8996 393.2 39.7996 393.6 39.4996C393.9 39.2996 394.1 39.0996 394.4 38.6996L398.9 39.1996C398.2 40.4996 397.3 41.4996 396.4 41.9996C395.4 42.5996 394 42.8996 392.2 42.8996C390.6 42.8996 389.3 42.6996 388.5 42.1996C387.7 41.6996 386.8 40.8996 386.2 39.8996C385.6 38.7996 385.3 37.5996 385.3 36.1996C385.3 34.0996 385.9 32.5996 387.1 31.2996C388.3 29.9996 390 29.3996 392 29.3996C393.7 29.3996 395.1 29.6996 396 30.2996C397 30.8996 397.8 31.6996 398.3 32.7996C398.8 33.8996 399.1 35.2996 399.1 36.8996L399.2 37.1996ZM394.6 34.8996C394.5 33.8996 394.3 33.1996 393.9 32.7996C393.5 32.3996 393 32.1996 392.3 32.1996C391.6 32.1996 391 32.4996 390.5 33.1996C390.2 33.5996 390 34.1996 390 34.9996L394.6 34.8996ZM401.4 29.4996H405.6V31.5996C406.2 30.6996 406.9 30.0996 407.6 29.6996C408.3 29.2996 409.1 29.0996 410 29.0996C411.3 29.0996 412.3 29.4996 413 30.2996C413.7 31.0996 414.1 32.3996 414.1 33.9996V42.2996H409.5V35.1996C409.5 34.3996 409.4 33.7996 409.1 33.3996C408.8 33.0996 408.4 32.8996 407.9 32.8996C407.3 32.8996 406.9 33.0996 406.5 33.5996C406.2 34.0996 406 34.8996 406 36.0996V42.2996H401.4V29.4996ZM425.7 37.2996L430 37.7996C429.8 38.7996 429.4 39.6996 428.8 40.3996C428.2 41.0996 427.5 41.6996 426.7 42.0996C425.8 42.4996 424.7 42.6996 423.4 42.6996C422.1 42.6996 421 42.5996 420.2 42.2996C419.3 41.9996 418.6 41.5996 418 40.9996C417.4 40.3996 416.9 39.6996 416.5 38.9996C416.1 38.1996 416 37.1996 416 35.8996C416 34.5996 416.2 33.3996 416.6 32.5996C416.9 31.8996 417.3 31.2996 417.9 30.7996C418.4 30.2996 419 29.8996 419.6 29.5996C420.5 29.1996 421.7 28.9996 423 28.9996C425 28.9996 426.4 29.3996 427.4 30.0996C428.4 30.8996 429.2 31.9996 429.6 33.3996L425.3 33.9996C425.2 33.3996 424.9 32.9996 424.5 32.6996C424.1 32.3996 423.6 32.2996 423 32.2996C422.2 32.2996 421.6 32.5996 421.1 33.1996C420.6 33.7996 420.4 34.6996 420.4 35.8996C420.4 36.9996 420.6 37.7996 421.1 38.3996C421.6 38.9996 422.2 39.1996 422.9 39.1996C423.5 39.1996 424 38.9996 424.4 38.6996C425.2 38.4996 425.5 37.9996 425.7 37.2996ZM445.5 37.1996H436.2C436.3 37.9996 436.5 38.5996 436.8 38.9996C437.2 39.5996 437.8 39.8996 438.6 39.8996C439.1 39.8996 439.5 39.7996 439.9 39.4996C440.2 39.2996 440.4 39.0996 440.7 38.6996L445.2 39.1996C444.5 40.4996 443.6 41.4996 442.7 41.9996C441.7 42.5996 440.3 42.8996 438.5 42.8996C436.9 42.8996 435.6 42.6996 434.8 42.1996C434 41.6996 433.1 40.8996 432.5 39.8996C431.9 38.7996 431.6 37.5996 431.6 36.1996C431.6 34.0996 432.2 32.5996 433.4 31.2996C434.6 29.9996 436.3 29.3996 438.3 29.3996C440 29.3996 441.4 29.6996 442.3 30.2996C443.2 30.8996 444.1 31.6996 444.6 32.7996C445.1 33.8996 445.4 35.2996 445.4 36.8996L445.5 37.1996ZM440.8 34.8996C440.7 33.8996 440.5 33.1996 440.1 32.7996C439.7 32.3996 439.2 32.1996 438.5 32.1996C437.8 32.1996 437.2 32.4996 436.7 33.1996C436.4 33.5996 436.2 34.1996 436.2 34.9996L440.8 34.8996ZM446.8 38.7996L451.3 38.2996C451.5 38.8996 451.8 39.2996 452.1 39.5996C452.4 39.8996 452.9 39.9996 453.5 39.9996C454.1 39.9996 454.6 39.8996 455 39.5996C455.3 39.3996 455.4 39.0996 455.4 38.7996C455.4 38.3996 455.2 38.1996 454.9 37.9996C454.6 37.8996 454 37.6996 452.9 37.4996C451.3 37.1996 450.2 36.8996 449.6 36.6996C449 36.3996 448.4 35.9996 448 35.3996C447.6 34.7996 447.4 34.0996 447.4 33.2996C447.4 32.3996 447.6 31.6996 448.1 31.0996C448.6 30.4996 449.2 29.9996 450 29.6996C450.8 29.3996 451.9 29.1996 453.3 29.1996C454.7 29.1996 455.8 29.2996 456.5 29.5996C457.2 29.7996 457.8 30.1996 458.2 30.6996C458.7 31.1996 459 31.8996 459.4 32.6996L455.1 33.1996C455 32.7996 454.8 32.4996 454.5 32.2996C454.1 31.9996 453.7 31.8996 453.2 31.8996C452.7 31.8996 452.3 31.9996 452.1 32.1996C451.9 32.3996 451.7 32.5996 451.7 32.8996C451.7 33.1996 451.9 33.4996 452.2 33.5996C452.5 33.7996 453.2 33.8996 454.2 33.9996C455.8 34.1996 456.9 34.4996 457.6 34.7996C458.4 35.0996 458.9 35.5996 459.3 36.1996C459.7 36.7996 459.9 37.4996 459.9 38.2996C459.9 39.0996 459.7 39.7996 459.3 40.4996C458.9 41.1996 458.2 41.7996 457.3 42.1996C456.4 42.5996 455.1 42.7996 453.7 42.7996C451.5 42.7996 450 42.4996 449.1 41.7996C447.6 41.0996 447 40.0996 446.8 38.7996Z" fill="#E4DCD1"/>
</svg>
