<svg width="171" height="78" viewBox="0 0 171 78" fill="none" xmlns="http://www.w3.org/2000/svg">
<path d="M83.5997 53C82.8997 52.7 82.3998 52.4 81.8998 52.2C80.3998 51.5 78.8997 51.1 77.1997 51C72.6997 50.7 69.5997 53.1 68.5997 57.4C67.7997 61.2 67.8998 64.9 69.7998 68.5C71.3998 71.4 74.0998 72.8 77.3998 72.4C78.0998 72.3 78.1997 72.1 78.1997 71.5C78.0997 69.6 78.1997 67.8 78.1997 66C78.1997 64.3 77.9997 62.7 76.5997 61.3C79.5997 61.3 82.2997 61.3 85.1997 61.3C85.9997 61.3 85.7998 61.9 85.7998 62.2C85.7998 66.1 85.7998 70.2 85.7998 74.1C85.7998 76 85.7998 76 83.8998 76.5C79.7998 77.5 75.6997 77.8 71.5997 76.8C64.1997 74.9 59.7998 69.1 59.7998 61.4C59.8998 54.2 64.7997 48.5 72.0997 46.9C75.4997 46.1 78.8998 46.2 82.2998 47C82.9998 47.2 83.0997 47.5 83.1997 48.1C83.1997 49.6 83.3997 51.2 83.5997 53Z" fill="#E4DCD1"/>
<path d="M40.0996 38.2C41.9996 37.9 41.9996 37.9 42.4996 39.5C42.8996 40.5 43.0996 41.6 43.5996 42.5C44.3996 41.4 44.9997 39.2 44.7997 38C46.2997 38 47.6996 38 49.1996 38C49.7996 38 49.9997 38.2 49.8997 38.8C49.8997 39.5 49.4996 39.1 49.1996 39.1C48.6996 39.1 48.2997 38.9 48.2997 39.7C48.3997 40.2 47.8996 40.9 48.9996 40.8C49.3996 40.8 49.5996 40.9 49.6996 41.4C49.6996 42.1 49.2996 41.8 48.9996 41.8C48.4996 41.7 48.1997 42 48.2997 42.5C48.3997 43.1 47.7997 43.8 48.8997 44C49.4997 44.1 49.8996 43.9 50.4996 43.8C50.5996 44.6 50.3996 45 49.5996 44.9C48.5996 44.9 47.3997 44.9 46.3997 44.9C46.5997 42.7 46.4996 40.7 46.4996 38.6C46.3996 38.6 46.2996 38.6 46.0996 38.5C45.7996 39.4 45.3996 40.4 45.1996 41.3C44.7996 42.2 44.3996 43.3 44.1996 44.2C43.9996 45 43.5996 44.9 43.0996 44.7C42.4996 44.4 42.1996 44 41.9996 43.5C41.2996 41.6 40.6996 39.9 40.0996 38.2Z" fill="#E4DCD1"/>
<path d="M31.5998 38.1992C31.4998 38.1992 31.3998 38.1992 31.2998 38.1992C29.4998 37.5992 28.6998 37.6992 27.8998 38.6992C27.0998 39.6992 27.1998 41.6992 27.9998 42.7992C28.2998 43.1992 28.5998 43.4992 28.8998 43.5992C29.7998 43.9992 30.0997 43.6992 30.1997 42.7992C30.1997 42.4992 30.0997 42.1992 30.1997 41.9992C30.2997 41.5992 29.6997 41.0992 30.1997 40.9992C30.6997 40.7992 31.2998 40.8992 31.7998 40.8992C32.1998 40.8992 32.1997 41.1992 32.1997 41.4992C32.1997 42.0992 32.1997 42.6992 32.1997 43.2992C32.1997 45.0992 32.1998 45.0992 30.3998 45.2992C27.7998 45.4992 25.6998 44.1992 25.2998 41.8992C24.5998 37.9992 28.2998 36.3992 30.9998 37.0992C31.8998 36.8992 31.4998 37.5992 31.5998 38.1992Z" fill="#E4DCD1"/>
<path d="M56.0996 44.6001C56.2996 44.5001 56.3996 44.3001 56.5996 44.2001C56.9996 44.4001 57.1996 44.2001 57.1996 43.8001C57.2996 41.9001 57.4996 39.9001 56.9996 38.0001C57.8996 37.8001 58.7997 37.8001 59.3997 38.9001C59.9997 39.9001 60.7997 40.8001 61.7997 42.1001C61.7997 40.5001 61.9996 39.3001 61.4996 38.1001C61.8996 37.9001 62.2996 38.0001 62.4996 38.0001C62.7996 38.0001 62.9997 38.1001 62.8997 38.5001C62.4997 40.3001 62.6996 42.2001 62.6996 44.0001C62.6996 45.1001 62.2996 44.9001 61.5996 44.6001C60.6996 44.0001 60.0997 43.1001 59.2997 42.3001C58.8997 41.8001 58.6996 41.3001 57.9996 41.0001C57.9996 42.3001 57.7996 43.5001 58.1996 44.8001C57.5996 44.9001 56.8996 44.6001 56.0996 44.6001Z" fill="#E4DCD1"/>
<path d="M80.2998 44.7C80.4998 42.4 80.4998 40.3 80.2998 38C81.2998 38 82.2998 38 83.2998 38C83.8998 38 83.8998 38.3 83.8998 38.8C83.8998 39.3 83.4997 39.1 83.1997 39.1C82.7997 39.1 82.2998 38.8 82.2998 39.6C82.2998 40.2 81.9997 41 83.0997 40.8C83.4997 40.7 83.5997 41 83.5997 41.4C83.5997 41.9 83.3998 41.9 82.9998 41.8C82.1998 41.6 82.1997 42.1 82.1997 42.6C82.2997 43.2 81.7998 44 82.9998 43.9C83.4998 43.9 83.9998 43.7 84.4998 43.7C84.5998 44.5 84.1998 44.9 83.2998 44.8C82.2998 44.6 81.2998 44.7 80.2998 44.7Z" fill="#E4DCD1"/>
<path d="M9.89979 42.8008C13.7998 42.8008 17.4997 42.8008 21.1997 42.8008C21.9997 42.8008 21.9997 43.4008 22.1997 43.8008C25.1997 52.5008 28.1997 61.3008 31.1997 70.0008C31.6997 71.3008 32.0997 72.7008 33.0997 73.9008C33.4997 72.9008 33.5997 71.9008 33.5997 71.0008C33.5997 64.8008 33.5997 58.5008 33.5997 52.3008C33.5997 50.3008 32.7997 48.6008 31.1997 46.9008C32.1997 46.9008 32.9998 46.9008 33.7998 46.9008C35.5998 46.9008 37.4998 46.9008 39.2998 46.9008C40.0998 46.9008 40.4998 47.2008 40.9998 47.7008C44.8998 53.1008 48.9998 58.4008 52.8998 63.8008C53.0998 64.1008 53.2998 64.6008 53.7998 64.6008C53.7998 64.2008 53.7998 63.8008 53.7998 63.5008C53.7998 60.4008 53.7998 57.3008 53.7998 54.1008C53.7998 51.6008 53.4997 49.0008 51.6997 46.9008C54.4997 46.9008 57.1998 46.9008 59.7998 46.9008L59.8998 47.0008C58.4998 49.4008 58.2998 51.9008 58.2998 54.5008C58.2998 61.6008 58.2998 68.9008 58.2998 76.0008C58.2998 76.9008 58.0997 77.1008 57.1997 76.9008C53.1997 76.1008 50.0997 73.6008 47.6997 70.5008C44.7997 66.7008 41.8998 63.0008 38.9998 59.2008C38.7998 58.9008 38.4998 58.6008 38.2998 58.4008C37.8998 58.7008 38.0997 59.1008 38.0997 59.3008C38.0997 63.0008 38.0997 66.5008 38.0997 70.2008C38.0997 72.4008 38.0998 74.5008 39.9998 76.3008C33.3998 76.3008 26.9997 76.3008 20.6997 76.3008C20.6997 76.2008 20.5997 76.1008 20.6997 76.1008C22.6997 74.1008 22.4998 71.9008 21.4998 69.5008C20.9998 68.5008 21.0997 67.0008 20.1997 66.4008C19.3997 65.9008 17.9998 66.2008 16.8998 66.2008C14.8998 66.2008 12.9998 66.2008 10.9998 66.2008C10.1998 66.2008 9.99982 66.4008 9.79982 67.1008C9.49982 68.0008 9.19979 69.0008 8.89979 69.9008C8.09979 72.1008 7.59972 74.2008 9.69972 76.2008C6.39972 76.2008 3.29972 76.2008 0.199718 76.2008C0.199718 76.1008 0.0997179 76.0008 0.199718 75.9008C2.69972 73.0008 3.59982 69.3008 4.79982 65.8008C6.99982 59.7008 8.99982 53.5008 11.2998 47.4008C11.8998 46.0008 11.3998 44.4008 9.89979 42.8008ZM15.0997 51.7008C14.0997 54.7008 13.0997 57.6008 12.0997 60.6008C11.9997 60.8008 11.9998 61.1008 11.8998 61.3008C11.5998 61.9008 11.9998 61.9008 12.4998 61.9008C13.6998 61.9008 14.9998 61.9008 16.2998 61.9008C18.7998 61.9008 18.7997 61.9008 18.0997 59.5008C17.2997 56.9008 16.3998 54.3008 15.4998 51.7008C15.2998 51.7008 15.1997 51.7008 15.0997 51.7008Z" fill="#E4DCD1"/>
<path d="M157 76.5008C159.6 74.2008 158.3 72.0008 157.6 69.6008C156.9 67.7008 156.9 67.7008 155 67.7008C153 67.7008 151 67.7008 149 67.7008C148.2 67.7008 147.9 68.0008 147.7 68.6008C147.4 69.4008 147.1 70.3008 146.9 71.1008C146.2 72.9008 145.9 74.7008 147.7 76.4008C138.4 76.4008 129.4 76.4008 120.2 76.4008C122.2 74.1008 121.7 71.4008 121.7 68.9008C121.7 63.1008 121.7 57.2008 121.7 51.4008C121.7 49.8008 121.5 48.3008 120.1 47.0008C124 47.0008 127.6 47.0008 131.5 47.0008C129.7 48.9008 130 51.2008 130 53.5008C130 59.2008 130 65.0008 130 70.8008C130 71.5008 130.3 71.6008 130.8 71.8008C134.1 72.6008 137.2 72.6008 140.1 70.8008C140.2 70.7008 140.4 70.7008 140.6 70.5008C140.1 72.3008 139.8 74.1008 139.3 75.8008C139.7 76.0008 139.8 75.7008 140 75.5008C140.8 74.4008 141.5 73.1008 142 71.6008C144.3 65.2008 146.4 58.7008 148.8 52.3008C149.5 50.4008 149.9 48.5008 148 46.8008C150.8 46.8008 153.3 46.8008 155.7 46.8008C158.4 46.8008 158.4 46.8008 159.4 49.4008C161.8 56.4008 164.2 63.3008 166.6 70.4008C167.4 72.6008 168.3 74.5008 170.1 76.4008C165.4 76.5008 161.3 76.5008 157 76.5008ZM152.2 54.9008C151.3 57.8008 150.2 60.7008 149.3 63.7008C151.2 63.7008 153 63.7008 154.7 63.7008C155.4 63.7008 155.5 63.4008 155.3 62.9008C154.8 61.7008 154.5 60.5008 154.1 59.3008C153.6 57.8008 153.1 56.3008 152.6 54.8008C152.4 54.8008 152.3 54.8008 152.2 54.9008Z" fill="#E4DCD1"/>
<path d="M103 77.2991C97.3998 77.1991 92.4997 75.1991 89.0997 70.3991C84.4997 63.7991 86.1998 54.1991 92.9998 49.4991C99.2998 45.1991 106 44.9991 112.6 48.5991C117.8 51.3991 120.2 56.0991 120 61.8991C119.8 67.7991 116.8 72.1991 111.6 75.0991C109.2 76.6991 106.2 77.2991 103 77.2991ZM98.0997 70.1991C101.2 74.2991 107.3 73.9991 109.9 69.4991C110.8 67.9991 111.2 66.2991 111.3 64.4991C111.5 60.7991 111.1 57.2991 109 54.1991C107.3 51.7991 105.1 50.6991 102.1 50.9991C99.2997 51.2991 97.4998 52.9991 96.3998 55.4991C95.5998 57.1991 95.4998 59.0991 95.4998 61.2991C95.3998 64.2991 95.9997 67.4991 98.0997 70.1991Z" fill="#E4DCD1"/>
<path d="M40.1996 41.3004C40.1996 43.3004 38.3997 44.9004 36.2997 44.9004C34.1997 44.9004 32.5996 43.4004 32.5996 41.5004C32.5996 39.5004 34.2997 37.9004 36.3997 37.9004C38.5997 38.0004 40.1996 39.4004 40.1996 41.3004ZM37.6996 39.7004C37.1996 39.0004 36.5997 38.9004 35.7997 39.1004C34.6997 39.6004 34.5996 40.6004 34.6996 41.6004C34.7996 42.6004 34.9996 43.7004 36.1996 44.0004C36.9996 44.2004 37.5996 43.9004 37.9996 43.2004C38.2996 42.7004 38.3997 42.3004 38.2997 41.8004C38.2997 40.9004 38.1996 40.2004 37.6996 39.7004Z" fill="#E4DCD1"/>
<path d="M67.3999 38.0005C69.5999 38.1005 71.0999 39.6005 71.0999 41.6005C70.9999 43.5005 69.2998 45.1005 67.1998 45.1005C64.9998 45.1005 63.3999 43.6005 63.3999 41.6005C63.4999 39.5005 65.2999 37.9005 67.3999 38.0005ZM66.9999 39.0005C65.7999 39.1005 65.1999 40.2005 65.4999 41.9005C65.6999 43.2005 66.3999 44.0005 67.3999 44.0005C68.3999 43.9005 68.9999 43.2005 68.9999 41.7005C69.0999 39.9005 68.2999 38.9005 66.9999 39.0005Z" fill="#E4DCD1"/>
<path d="M73.3998 44.5998C73.4998 42.4998 73.4998 40.5998 73.3998 38.5998C73.3998 38.1998 73.2998 37.8998 73.7998 37.8998C74.9998 37.8998 76.1998 37.7998 77.3998 38.1998C78.8998 38.6998 79.7997 39.8998 79.5997 41.5998C79.4997 43.1998 78.4997 44.2998 76.9997 44.4998C75.7997 44.6998 74.5998 44.5998 73.3998 44.5998ZM75.2998 42.8998C75.2998 43.7998 75.7997 44.0998 76.5997 43.6998C77.3997 43.2998 77.5997 42.4998 77.6997 41.5998C77.6997 40.7998 77.5998 39.8998 76.7998 39.2998C75.8998 38.6998 75.3998 39.0998 75.2998 40.0998C75.2998 40.4998 75.2998 40.8998 75.2998 41.2998C75.2998 41.8998 75.2998 42.3998 75.2998 42.8998Z" fill="#E4DCD1"/>
<path d="M56.0997 44.5993C55.1997 44.8993 54.5997 44.3993 54.1997 43.6993C53.8997 43.1993 53.5998 42.7993 53.2998 41.9993C53.1998 43.0993 53.1998 43.8993 53.3998 44.5993C52.5998 44.5993 51.9998 44.5993 51.2998 44.5993C51.4998 42.3993 51.4998 40.1993 51.2998 37.9993C52.3998 37.8993 53.5997 37.8993 54.6997 38.0993C55.3997 38.1993 55.9997 38.5993 56.1997 39.2993C56.3997 39.9993 56.1998 40.5993 55.4998 41.0993C54.9998 41.3993 55.0998 41.6993 55.2998 42.0993C55.7998 42.8993 56.0997 43.4993 56.5997 44.2993C56.6997 44.6993 56.2997 44.4993 56.0997 44.5993ZM53.4998 41.2993C54.0998 41.3993 54.2998 40.6993 54.2998 40.1993C54.2998 39.5993 54.0998 39.1993 53.4998 39.1993C52.6998 39.1993 53.2998 39.8993 52.9998 40.2993C53.3998 40.4993 52.7998 41.1993 53.4998 41.2993Z" fill="#E4DCD1"/>
<path d="M147.3 9.39985C152.8 7.59985 157.5 4.39985 161.8 0.599845C162.1 0.499845 162.299 0.399845 162.599 0.599845C162.699 0.699845 162.699 0.899847 162.599 0.999847C162.499 5.69985 162.499 10.2998 162.599 14.9998C162.699 15.7998 162.099 15.7998 161.699 15.9998C159.499 16.9998 157.3 17.5998 154.9 17.8998C154.7 17.8998 154.5 17.8998 154.3 17.8998C153.5 17.8998 152.8 17.9998 151.9 17.7998C151 17.5998 150.099 17.4998 149.199 17.2998C148.699 17.1998 148.3 17.0998 147.8 17.0998C147.5 17.0998 147.2 16.9998 147 16.6998C147 16.3998 147.8 16.4998 147.4 15.9998C147.5 13.8998 147.5 11.5998 147.3 9.39985Z" fill="#6E6E6E"/>
<path d="M129 9.49929C131.3 9.79929 133.6 10.0993 135.9 10.4993C136.7 10.7993 137.5 10.6993 138.3 10.5993C138.7 10.5993 139.1 10.5993 139.4 10.5993C139.8 10.7993 140.3 10.3993 140.7 10.8993C141.1 12.5993 140.9 14.3993 140.8 16.0993C140.8 16.8993 139.8 16.4993 139.7 16.9993C139.2 17.4993 138.5 17.4993 137.8 17.7993C136.7 18.2993 135.7 18.7993 134.8 19.4993C134.2 19.7993 133.8 20.2993 133.3 20.7993C132.5 21.5993 132.3 22.4993 132.3 23.5993C132.3 24.4993 132.6 25.5993 131.9 26.3993C131 26.7993 130 26.4993 129.2 26.5993C128.8 26.5993 128.4 26.5993 128 26.5993C127.6 26.5993 127.3 26.5993 127 26.3993C126.9 26.2993 126.8 26.1993 126.7 26.0993C126.3 25.3993 126.2 24.7993 126.2 23.9993C126.3 19.3993 126 14.7993 126.3 10.1993C126.3 9.89929 126.4 9.59929 126.1 9.39929C125.9 9.29929 125.8 9.09929 125.8 8.89929C126.4 8.89929 126.8 8.69929 127.4 8.99929C128 9.79929 128.4 9.49929 129 9.49929Z" fill="#6E6E6E"/>
<path d="M164 14.5C165.6 13.6 166.9 12.3 168.4 11C168.4 12.2 168.4 13.2 168.4 14.2C168.4 16.3 168.3 18.2 168.4 20.3C168.6 22 167.799 23 166.599 24C163.899 26.3 160.8 27.3 157.3 27.7C156.4 27.8 155.4 28 154.5 27.9C154.7 24.8 154.599 21.7 154.599 18.6C154.599 18.3 154.6 18 154.8 17.8C157.2 17.4 159.6 17 161.8 15.7C162 15.4 163.6 14.6 164 14.5Z" fill="#ECECEC"/>
<path d="M134.6 19.2999C136 17.9999 137.9 17.4999 139.7 16.8999C140.7 16.1999 142 16.2999 143.1 16.2999C144 16.2999 145 16.2999 145.9 16.2999C146.3 16.2999 146.7 16.2999 147 16.6999C147.3 16.7999 147.5 16.8999 147.8 16.8999C148 16.9999 148.2 17.0999 148.2 17.3999C148.1 20.2999 148.2 23.1999 148.1 26.0999C148.1 26.6999 148 27.0999 147.3 27.2999C146.7 27.3999 146.1 27.4999 145.5 27.5999C144.9 27.6999 144.6 28.0999 143.9 28.1999C143.3 28.1999 142.7 28.3999 142.1 28.4999C142 28.4999 141.9 28.5999 141.8 28.5999C141.5 28.6999 141.2 28.6999 141 28.7999C140.8 28.8999 140.4 28.8999 140.2 28.9999C140 29.0999 139.7 29.0999 139.5 29.2999C139.2 29.4999 139 29.6999 138.7 29.7999C138.2 29.8999 137.9 29.9999 137.4 30.1999C136.9 30.3999 136.6 30.6999 136.2 30.9999C135.7 31.1999 135.4 31.5999 134.9 31.1999C134.4 30.2999 134.6 29.1999 134.6 28.1999C134.5 25.8999 134.5 23.6999 134.6 21.3999C134.6 20.5999 134 19.8999 134.6 19.2999Z" fill="#ECECEC"/>
<path d="M104.4 17.5992C105.3 16.0992 106.6 14.7992 108 13.6992C108.6 13.7992 108.4 14.2992 108.4 14.4992C108.4 19.7992 108.4 24.8992 108.4 30.1992C108.4 30.9992 108.3 31.5992 108.3 32.3992C108.3 32.8992 107.9 33.1992 107.6 33.3992C107.5 33.4992 107.4 33.5992 107.3 33.5992L107.2 33.6992C106.7 34.0992 106.3 34.3992 105.9 34.7992C105.5 35.1992 105.2 35.5992 104.8 35.7992C104.4 35.9992 104.1 35.8992 104 35.4992C103.7 33.1992 103.9 30.8992 103.9 28.5992C103.9 27.7992 103.9 26.8992 103.9 25.9992C103.9 25.5992 103.9 25.1992 104.2 24.8992C104.3 24.7992 104.3 24.6992 104.4 24.5992C104.8 23.8992 104.5 23.1992 104.6 22.3992C104.5 20.8992 104.5 19.2992 104.4 17.5992Z" fill="#6E6E6E"/>
<path d="M86.6997 33.6004C87.3997 32.5004 88.2998 31.6004 89.2998 30.9004C90.0998 31.2004 89.8998 31.9004 89.8998 32.5004C89.8998 36.6004 89.8998 40.8004 89.8998 44.8004C89.8998 46.1004 90.0998 47.4004 89.7998 48.7004C88.8998 49.5004 87.9997 50.3004 87.0997 51.1004C86.4997 50.8004 86.7998 50.3004 86.7998 49.9004C86.7998 44.8004 86.7998 39.8004 86.7998 34.8004C86.7998 34.5004 86.8997 34.1004 86.6997 33.6004Z" fill="#1D1D1D"/>
<path d="M98.5997 43.3C97.8997 43.6 97.2997 43.9 96.5997 44.2C96.1997 43.7 96.1997 43.3 96.1997 42.7C96.1997 37.9 96.1997 33.1 96.1997 28.2C96.1997 27.6 96.1997 27.2 96.5997 26.7C97.2997 26.3 97.8997 26.2 98.6997 26C99.0997 26.5 99.0997 26.9 99.0997 27.5C99.0997 32.1 99.0997 36.6 99.0997 41.2C98.9997 42.1 98.8997 42.8 98.5997 43.3Z" fill="#949494"/>
<path d="M108.899 13.1996C109.299 12.5996 109.699 12.1996 110.499 12.0996C110.999 12.4996 111.099 12.8996 111.099 13.4996C111.099 18.9996 111.099 24.3996 111.099 29.8996C111.099 30.2996 110.999 30.5996 110.899 30.8996C110.799 31.3996 110.299 31.5996 110.099 31.8996C109.499 32.3996 109.499 32.9996 109.599 33.7996C109.699 36.0996 109.799 38.3996 109.599 40.6996C109.499 40.7996 109.399 40.8996 109.299 40.9996C109.099 40.9996 108.899 40.9996 108.799 40.7996C108.599 40.3996 108.599 39.9996 108.599 39.4996C108.699 37.1996 108.499 34.8996 108.399 32.5996C108.799 31.7996 108.899 31.0996 108.899 30.2996C108.799 24.8996 108.899 19.5996 108.899 14.1996C108.699 13.6996 108.699 13.3996 108.899 13.1996Z" fill="#959595"/>
<path d="M100.4 25.7004C100.8 25.4004 101.2 25.4004 101.5 25.4004C102.2 25.6004 102.3 26.1004 102.3 26.6004C102.3 31.3004 102.3 36.1004 102.3 40.8004C102.3 41.3004 102.2 41.7004 101.7 41.9004C101.1 42.1004 100.7 42.3004 100.1 42.6004C99.6997 42.2004 99.6997 41.7004 99.6997 41.2004C99.6997 36.4004 99.6997 31.6004 99.6997 26.8004C99.7997 26.4004 99.7998 25.9004 100.4 25.7004Z" fill="#C9C9C9"/>
<path d="M100.4 25.6993C100.3 25.8993 100.1 26.0993 100.1 26.3993C100.1 31.8993 100.1 37.1993 100.1 42.6993C99.4997 42.8993 99.0998 43.1993 98.4998 43.3993C98.1998 42.6993 98.5997 42.0993 98.5997 41.3993C98.5997 36.2993 98.5997 31.1993 98.5997 26.1993C99.1997 25.7993 99.7998 25.5993 100.4 25.6993Z" fill="#B6B6B6"/>
<path d="M149.099 17.0996C149.999 17.1996 151 17.2996 151.8 17.5996C152.1 18.3996 152.099 19.0996 152.099 19.9996C152.099 21.5996 152.099 23.0996 152.099 24.6996C152.099 25.6996 152 26.8996 152.9 27.5996C152.5 27.7996 152.1 27.7996 151.8 27.5996C151.2 27.5996 150.6 27.5996 150 27.5996C149.2 27.4996 149 27.1996 149 26.3996C149.1 23.9996 149.1 21.5996 149 19.1996C149 18.3996 149.399 17.7996 149.099 17.0996Z" fill="#DADADA"/>
<path d="M95.3998 44.9008C95.0998 45.1008 94.7998 45.2008 94.4998 45.4008C94.0998 45.5008 93.8998 45.4008 93.7998 45.0008C93.6998 44.7008 93.6997 44.4008 93.6997 44.2008C93.6997 39.2008 93.6997 34.3008 93.6997 29.3008C93.6997 28.7008 93.6998 28.2008 94.2998 27.8008C94.5998 27.5008 94.9998 27.3008 95.3998 27.3008C95.8998 27.7008 95.7998 28.2008 95.7998 28.8008C95.7998 33.7008 95.7998 38.6008 95.7998 43.5008C95.7998 44.0008 95.7998 44.4008 95.3998 44.9008Z" fill="#676767"/>
<path d="M127.5 42.2996C125.7 42.6996 123.8 42.1996 122 42.1996C122.2 41.4996 122.799 41.7996 123.199 41.6996C123.299 41.6996 123.499 41.6996 123.599 41.6996C123.999 41.6996 124.399 41.7996 124.599 41.5996C124.999 41.2996 125 40.7996 125 40.4996C125 36.4996 125 32.3996 125 28.2996C125 27.7996 124.999 27.3996 124.599 27.0996C124.499 26.9996 124.4 26.8996 124.4 26.7996C124.5 26.3996 124.799 26.2996 125.099 26.1996C125.299 26.0996 125.499 26.0996 125.699 26.0996C125.899 26.0996 126.1 26.0996 126.3 26.0996C126.6 26.0996 126.899 26.1996 127.099 26.3996V26.4996C127.399 31.3996 127.2 36.2996 127.3 41.0996C127.3 41.3996 127.299 41.6996 127.199 41.8996C127.099 41.9996 127 42.0996 127 42.0996C126.9 42.1996 126.9 42.1996 126.9 42.0996C126.9 41.8996 126.7 42.1996 126.8 42.0996C126.9 42.1996 127.3 41.8996 127.5 42.2996Z" fill="#3D3D3D"/>
<path d="M110.499 31.2004C110.699 30.5004 110.699 30.0004 110.699 29.3004C110.699 24.2004 110.699 19.1004 110.699 14.0004C110.699 13.3004 110.599 12.7004 110.399 12.1004C110.799 11.8004 111.199 11.4004 111.799 11.4004C112.199 11.8004 112.199 12.2004 112.199 12.6004C112.199 18.3004 112.199 24.1004 112.199 29.8004C112.299 30.4004 111.999 30.6004 111.599 30.9004C111.299 31.1004 111.099 31.2004 110.799 31.2004C110.599 31.3004 110.499 31.3004 110.499 31.2004Z" fill="#9D9D9D"/>
<path d="M108.9 13.1992C109.2 13.6992 109.199 14.1992 109.199 14.6992C109.199 20.1992 109.2 25.5992 109.3 31.0992C109.3 31.7992 108.9 32.0992 108.5 32.4992C108.4 32.6992 108.3 32.8992 108 32.6992C108 26.6992 108 20.7992 108 14.6992C108 14.2992 108.4 13.9992 108 13.6992C108.1 13.3992 108.5 13.1992 108.9 13.1992Z" fill="#767676"/>
<path d="M93.1995 46.2008C92.6995 46.5008 92.2995 46.9008 91.8995 47.1008C91.4995 46.7008 91.5995 46.3008 91.5995 45.8008C91.5995 40.6008 91.5995 35.6008 91.5995 30.4008C91.5995 29.9008 91.6995 29.5008 91.8995 29.0008C92.2995 28.8008 92.5995 28.3008 92.9995 28.3008C93.4995 28.4008 93.3995 28.8008 93.3995 29.1008C93.3995 34.6008 93.3995 39.9008 93.3995 45.4008C93.3995 45.8008 93.2995 46.0008 93.1995 46.2008Z" fill="#464646"/>
<path d="M93.1995 46.1996C92.9995 45.8996 92.9995 45.5996 92.9995 45.3996C92.9995 39.8996 92.9995 34.5996 92.9995 29.0996C92.9995 28.7996 93.1995 28.5996 92.9995 28.2996C93.3995 27.9996 93.7995 27.6996 94.3995 27.5996C94.0995 28.0996 94.1995 28.4996 94.1995 28.9996C94.1995 34.0996 94.1995 39.0996 94.1995 44.0996C94.1995 44.4996 93.9995 44.9996 94.6995 45.0996C94.1995 45.7996 93.6995 46.0996 93.1995 46.1996Z" fill="#585858"/>
<path d="M117.399 9.7C117.699 9.6 117.999 9.5 118.299 9.5C118.699 9.9 118.699 10.3 118.699 10.8C118.599 15.7 118.699 20.7 118.699 25.6C118.699 26.3 118.799 26.8 118.899 27.5C118.799 27.9 118.399 28.1 118.099 28.1C117.299 28.2 117.099 27.7 116.999 27.1C116.899 26.7 116.899 26.3 116.899 25.9C116.899 21.3 116.899 16.7 116.899 12.1C116.899 11.2 116.899 10.3 117.399 9.7Z" fill="#E1E1E1"/>
<path d="M95.3994 44.8992C95.3994 38.9992 95.3994 33.0992 95.3994 27.1992C95.7994 26.8992 96.1994 26.7992 96.4994 26.6992C96.4994 32.4992 96.4994 38.3992 96.4994 44.0992C96.1994 44.3992 95.7994 44.6992 95.3994 44.8992Z" fill="#7B7B7B"/>
<path d="M141.9 28.2008C142.5 27.9008 143.1 27.8008 143.8 27.8008C144.6 27.8008 144.8 28.1008 144.8 28.9008C144.7 30.5008 144.9 33.8008 144.9 33.8008C144.1 34.8008 143.3 36.0008 142.3 36.8008C141.5 36.7008 141.8 36.1008 141.8 35.8008C141.8 33.3008 141.8 30.7008 141.9 28.2008Z" fill="#8E8E8E"/>
<path d="M112.1 30.3004C111.7 29.9004 111.9 29.5004 111.9 29.0004C111.9 23.2004 111.9 17.3004 111.9 11.5004C112.3 11.2004 112.6 11.0004 113 10.9004C113.3 11.1004 113.3 11.4004 113.3 11.7004C113 17.2004 113.2 22.8004 113.2 28.3004C113.2 28.9004 113.3 29.4004 112.8 29.9004C112.5 30.3004 112.4 30.4004 112.1 30.3004Z" fill="#AFAFAF"/>
<path d="M117.4 9.69922C116.9 15.2992 117.3 20.9992 117.2 26.6992C117.2 27.2992 117.1 27.9992 118 27.7992C118.1 28.1992 117.8 28.1992 117.5 28.3992C117 28.5992 116.6 28.6992 116.1 28.4992C115.6 28.1992 115.8 27.6992 115.8 27.2992C115.8 21.8992 115.9 16.5992 115.7 11.2992C115.7 10.7992 115.8 10.4992 116.2 10.0992C116.7 9.89922 117.1 9.79922 117.4 9.69922Z" fill="#D9D9D9"/>
<path d="M116.3 9.90039C116 10.7004 116.3 11.5004 116.3 12.3004C116.3 17.5004 116.3 22.6004 116.2 27.8004C116.2 28.1004 116.3 28.1004 116.5 28.2004C116.5 28.4004 116.4 28.5004 116.2 28.6004C115.9 28.7004 115.6 28.8004 115.3 28.8004C115.2 28.8004 115 28.7004 115 28.6004C114.8 28.3004 114.8 27.9004 114.8 27.6004C115.1 22.1004 114.9 16.6004 114.9 11.1004C114.9 10.5004 115 10.3004 115.5 10.1004C115.8 10.0004 116.1 9.90039 116.3 9.90039Z" fill="#CECECE"/>
<path d="M89.7998 48.9008C89.4998 48.4008 89.5997 48.0008 89.5997 47.5008C89.5997 42.4008 89.5997 37.3008 89.5997 32.3008C89.5997 31.8008 89.7998 31.4008 89.2998 31.0008C89.4998 30.7008 89.7997 30.4008 90.0997 30.3008C90.8997 30.5008 90.7998 31.2008 90.7998 31.8008C90.7998 34.5008 90.7998 37.3008 90.7998 39.9008C90.7998 42.3008 90.7998 44.6008 90.7998 46.9008C90.7998 47.4008 90.7997 47.8008 90.5997 48.2008C90.3997 48.4008 90.1998 48.6008 89.7998 48.9008Z" fill="#292929"/>
<path d="M90.6997 48.0996C90.3997 47.5996 90.4998 47.1996 90.4998 46.6996C90.4998 41.5996 90.4998 36.4996 90.4998 31.4996C90.4998 30.9996 90.6997 30.5996 90.1997 30.2996C90.4997 29.9996 90.7997 29.6996 91.0997 29.5996C91.7997 29.6996 91.5997 30.2996 91.5997 30.5996C91.5997 36.1996 91.5997 41.7996 91.5997 47.3996C91.2997 47.5996 90.9997 47.8996 90.6997 48.0996Z" fill="#353535"/>
<path d="M118.8 9.50078C119.3 9.40078 119.7 9.30078 120.1 9.30078C120.5 9.70078 120.6 10.1008 120.5 10.6008C120.3 15.7008 120.5 20.7008 120.4 25.7008C120.4 26.0008 120.4 26.3008 120.6 26.5008C120.7 26.6008 120.7 26.8008 120.7 26.9008C120.6 27.2008 120.4 27.4008 120 27.5008C119.8 27.5008 119.5 27.5008 119.3 27.4008C118.7 27.0008 118.7 26.5008 118.7 25.9008C118.7 21.2008 118.6 16.4008 118.7 11.7008C118.9 10.9008 118.7 10.2008 118.8 9.50078Z" fill="#CECECE"/>
<path d="M118.8 9.5C119.6 10.3 119.3 11.2 119.3 12C119.3 15.3 119.3 18.7 119.3 22C119.3 23.4 119.3 24.8 119.3 26.1C119.3 26.6 119.3 27 119.8 27.3C119.7 27.6 119.6 27.7 119.3 27.7C119.1 27.7 119 27.7 118.8 27.5C118.4 27.2 118.3 26.8 118.3 26.5C118.4 21.1 118.2 15.8 118.4 10.3C118.4 10 118.3 9.7 118.3 9.5C118.6 9.5 118.7 9.5 118.8 9.5Z" fill="#D9D9D9"/>
<path d="M115.6 28.7004C115.8 28.6004 116.1 28.5004 116.3 28.4004C117.1 28.4004 117.5 28.8004 117.5 29.4004C117.6 33.1004 117.6 36.7004 117.5 40.4004C117.5 40.6004 117.4 40.9004 117.3 41.1004C117.1 41.4004 116.8 41.4004 116.5 41.4004C116 41.3004 115.6 41.2004 115.2 41.2004C115.7 40.5004 115.8 39.8004 115.8 38.9004C115.7 35.6004 115.8 32.1004 115.6 28.7004Z" fill="#6D6D6D"/>
<path d="M115.6 28.6992C116.1 28.9992 116.1 29.4992 116.1 29.8992C116.1 33.1992 116.1 36.4992 116.1 39.8992C116.1 40.5992 116.1 41.1992 115.3 41.3992C114.7 41.2992 114.3 41.2992 113.7 41.1992C113.7 40.7992 114 40.7992 114.2 40.6992C114.8 40.4992 114.7 39.9992 114.7 39.6992C114.7 36.6992 114.7 33.5992 114.7 30.5992C114.7 30.1992 114.6 29.7992 114.4 29.4992C114.4 29.2992 114.4 29.0992 114.6 28.9992C114.8 28.6992 115.2 28.8992 115.4 28.7992C115.5 28.6992 115.5 28.6992 115.6 28.6992Z" fill="#737373"/>
<path d="M114 40.9C113.8 41 113.7 41 113.5 41.1C112.1 40.7 110.6 41 109.2 40.9C109.1 40.9 109.1 40.8 109.1 40.8L109.2 40.7C109.4 40.5 109.6 40.4 109.9 40.4C110.2 40.4 110.6 40.4 110.8 40.4C111.1 40.4 111.3 40.4 111.6 40.4C112.4 40.4 112.5 39.8 112.5 39.2C112.5 36.5 112.6 33.8 112.5 31.1C112.5 30.8 112.5 30.5 112.5 30.3C112.6 29.7 113 29.7 113.3 29.5C113.5 29.5 113.6 29.5 113.7 29.6C114.3 29.8 114.4 30.2 114.3 30.7C114.2 33.7 114.3 36.6 114.2 39.6C114.4 40 114.4 40.5 114 40.9Z" fill="#7D7D7D"/>
<path d="M119.2 27.4992C119.4 27.3992 119.5 27.2992 119.7 27.1992C119.9 27.1992 120 27.1992 120.2 27.1992C120.7 27.3992 120.8 27.7992 120.8 28.0992C120.8 32.2992 120.8 36.5992 120.8 40.7992C120.8 40.9992 120.7 41.1992 120.7 41.3992C120.5 41.8992 120.1 41.6992 119.9 41.7992C119.3 41.6992 118.7 41.5992 118.1 41.4992C118.2 40.9992 118.7 41.0992 119 40.8992C119.5 40.5992 119.3 40.0992 119.3 39.6992C119.3 35.7992 119.4 31.7992 119.3 27.8992C119.1 27.8992 119.1 27.6992 119.2 27.4992Z" fill="#5D5D5D"/>
<path d="M131.8 41.7998C131.4 42.0998 130.9 41.9998 130.4 41.9998C130.2 42.0998 130.1 42.1998 129.9 41.9998C129.8 41.7998 130 41.6998 130.1 41.5998C130.6 41.4998 130.9 41.0998 130.9 40.6998C130.9 40.3998 130.9 40.0998 130.9 39.8998C130.8 37.0998 131.2 34.2998 131.1 31.3998C131 29.7998 131.4 28.1998 130.7 26.5998C131.6 26.1998 131.9 26.6998 131.9 27.4998C131.9 28.8998 131.9 30.2998 131.9 31.5998C131.9 31.9998 131.8 32.3998 132.1 32.7998C132.3 32.8998 132.4 32.9998 132.6 33.0998C132.9 33.4998 132.9 33.8998 132.9 34.3998C132.8 36.1998 132.9 37.9998 132.9 39.7998C132.9 40.4998 133 40.9998 133.6 41.2998C133.3 41.5998 132.9 41.5998 132.6 41.6998C132.3 41.6998 132 41.4998 131.8 41.7998Z" fill="#1F1F1F"/>
<path d="M113.399 29.5992C113.199 29.7992 112.899 29.8992 112.699 30.0992C112.599 30.1992 112.599 30.1992 112.499 30.0992C112.399 29.5992 112.799 29.2992 112.799 28.8992C112.799 23.3992 112.599 17.9992 112.899 12.4992C112.899 11.9992 112.999 11.5992 112.999 11.0992C113.399 10.7992 113.799 10.6992 114.099 10.6992C114.199 10.7992 114.199 10.9992 114.099 11.0992C113.699 11.6992 113.799 12.3992 113.799 13.0992C113.799 18.0992 113.799 23.0992 113.799 27.9992C113.699 28.4992 113.899 28.9992 113.399 29.5992Z" fill="#B5B5B5"/>
<path d="M114 10.8008C114 10.7008 114 10.6008 114 10.6008C114.2 10.3008 114.5 10.4008 114.7 10.4008C115.1 10.9008 115.1 11.3008 115.1 11.9008C115.1 16.6008 115.1 21.2008 115.1 25.9008C115.1 26.9008 115.3 28.0008 114.8 29.0008C114.7 29.1008 114.6 29.2008 114.5 29.2008C114.2 29.5008 113.9 29.7008 113.6 29.4008C113.7 28.7008 113.7 28.2008 113.7 27.5008C113.7 22.6008 113.7 17.8008 113.7 12.9008C113.8 12.1008 113.6 11.5008 114 10.8008Z" fill="#C1C1C1"/>
<path d="M118.8 41.4993C118.5 41.4993 118.1 41.3993 118 41.6993C117.5 41.5993 117.1 41.4993 116.6 41.4993C116.8 41.3993 116.9 41.3993 117.1 41.2993C117.8 40.9993 117.7 40.4993 117.7 39.9993C117.7 36.5993 117.7 33.0993 117.7 29.7993C117.7 29.1993 117.6 28.7993 118 28.2993C119.3 27.6993 119.3 27.7993 119.3 29.1993C119.3 32.7993 119.3 36.3993 119.3 39.9993C119.1 40.4993 119.2 41.0993 118.8 41.4993Z" fill="#646464"/>
<path d="M114.8 28.8994C114.8 28.1994 114.8 27.5994 114.8 26.8994C114.8 21.3994 114.8 15.7994 114.8 10.3994C115.1 10.1994 115.4 10.0994 115.7 10.1994C115.6 10.3994 115.3 10.4994 115.3 10.8994C115.6 15.9994 115.4 21.0994 115.5 26.1994C115.5 26.9994 114.9 27.8994 115.5 28.7994C115.3 28.8994 115 28.8994 114.8 28.8994Z" fill="#C9C9C9"/>
<path d="M121.9 9.19922C122 9.19922 122.1 9.19922 122.1 9.19922C122.3 9.29922 122.5 9.39922 122.7 9.49922C123.1 9.89922 123 10.2992 123 10.5992C123 15.2992 123 19.9992 123 24.6992C123 25.1992 122.9 25.5992 123.2 25.9992C123.3 26.0992 123.3 26.2992 123.3 26.3992C123.3 26.6992 123.1 26.8992 122.8 26.9992C122.6 26.9992 122.4 26.9992 122.2 26.8992C121.5 26.5992 121.4 26.0992 121.6 25.3992C121.7 20.3992 121.6 15.4992 121.7 10.4992C121.7 10.1992 121.6 9.69922 121.9 9.19922Z" fill="#B5B5B5"/>
<path d="M136.099 30.3992C136.499 30.0992 136.899 29.7992 137.299 29.6992C137.899 29.8992 137.699 30.3992 137.699 30.6992C137.699 32.7992 137.699 34.6992 137.699 36.7992C137.699 37.7992 137.799 38.8992 137.799 39.7992C137.499 39.9992 137.199 40.0992 136.899 40.2992C136.299 40.1992 135.999 39.7992 135.999 39.3992C135.899 36.4992 135.799 33.6992 136.099 30.7992C135.999 30.5992 136.099 30.4992 136.099 30.3992Z" fill="#525252"/>
<path d="M123.4 9.19922C123.9 9.19922 124.3 9.19922 124.7 9.19922C124.9 9.29922 125.1 9.49922 125.2 9.69922C125.4 10.6992 125.3 11.7992 125.3 12.8992C125.3 16.7992 125.3 20.6992 125.3 24.6992C125.3 25.2992 125.4 25.6992 125.1 26.1992C124.6 26.5992 124.3 26.3992 124.1 25.7992C123.9 25.2992 123.9 24.8992 123.9 24.3992C123.9 19.9992 123.9 15.4992 123.9 11.0992C123.9 10.5992 124.1 10.1992 123.6 9.89922C123.4 9.59922 123.3 9.49922 123.4 9.19922Z" fill="#9B9B9B"/>
<path d="M122.2 26.9006C122.4 26.9006 122.5 26.9006 122.7 27.0006C122.9 27.1006 123.1 27.2006 123.2 27.5006C123.4 28.0006 123.3 28.4006 123.3 28.9006C123.3 32.4006 123.3 35.8006 123.3 39.2006C123.3 40.1006 123.3 41.2006 123.4 42.1006C122.9 42.2006 122.5 41.9006 122.1 42.3006C121.3 42.2006 120.6 42.1006 119.8 42.1006C120 41.9006 120.3 41.9006 120.5 41.9006C120.8 41.7006 121.1 41.6006 121.4 41.6006C122 41.5006 122 41.1006 122 40.7006C122 36.8006 122.1 32.7006 121.9 28.8006C121.9 28.4006 121.9 28.0006 121.4 27.7006C121.3 27.6006 121.2 27.5006 121.2 27.4006C121.2 27.2006 121.3 27.0006 121.5 26.9006C121.8 26.7006 121.9 26.8006 122.2 26.9006Z" fill="#4E4E4E"/>
<path d="M101.8 42.0008C102.1 41.6008 102 41.2008 102 40.7008C102 36.1008 102 31.4008 102 26.8008C102 26.3008 102 25.9008 101.5 25.5008C101.9 25.2008 102.299 25.6008 102.599 25.3008C102.999 25.7008 103 26.2008 103 26.7008C103 31.2008 103 35.7008 103 40.2008C103 40.8008 103 41.4008 102.4 41.8008C102.3 42.1008 102.1 42.0008 101.8 42.0008Z" fill="#C1C1C1"/>
<path d="M130.1 41.7999C129.9 42.1999 130.3 41.9999 130.4 42.0999C129.5 42.4999 128.4 42.2999 127.5 42.3999C127.2 42.3999 126.8 42.3999 126.7 42.2999C126.4 42.1999 126.7 42.1999 126.8 42.0999C127.2 41.7999 127.6 41.7999 128.1 41.7999C128.4 41.7999 128.7 41.7999 128.9 41.6999C129.6 41.4999 129.4 40.8999 129.4 40.4999C129.4 36.1999 129.4 31.8999 129.4 27.4999C129.4 26.6999 129.6 26.2999 130.5 26.6999C130.8 27.1999 130.8 27.6999 130.8 28.1999C130.8 32.0999 130.8 36.0999 130.8 39.9999C130.7 40.5999 130.9 41.2999 130.1 41.7999Z" fill="#282828"/>
<path d="M102.5 41.7992C102.8 41.2992 102.699 40.7992 102.699 40.2992C102.699 35.2992 102.699 30.1992 102.699 25.2992C102.899 25.2992 102.999 25.2992 103.199 25.1992C103.699 25.3992 103.8 25.8992 103.8 26.2992C103.8 31.0992 103.8 35.9992 103.8 40.7992C103.8 40.8992 103.799 40.9992 103.699 41.0992C103.599 41.1992 103.6 41.3992 103.4 41.4992C103.1 41.8992 102.9 41.7992 102.5 41.7992Z" fill="#BEBEBE"/>
<path d="M103.4 41.3004C103.4 36.4004 103.4 31.5004 103.4 26.6004C103.4 26.1004 103.4 25.7004 103.1 25.2004C103.4 24.9004 103.7 25.0004 104 25.0004C104 28.7004 104 32.2004 104 35.9004C104.2 36.0004 104.3 36.1004 104.3 36.4004C104.3 37.8004 104.4 39.2004 104.2 40.6004C104.3 41.1004 104.1 41.5004 103.4 41.3004Z" fill="#B9B9B9"/>
<path d="M146.999 16.7003C146.599 16.7003 146.199 16.7003 145.899 16.6003C144.599 16.4003 143.199 16.7003 141.899 16.4003C141.899 16.2003 141.899 16.1003 141.999 16.0003C143.299 15.8003 143.499 14.9003 143.299 13.7003C143.199 13.1003 143.299 12.7003 143.299 12.1003C143.299 11.3003 143.099 10.8003 142.399 10.5003C142.299 10.4003 142.199 10.3003 142.299 10.1003C143.399 9.90033 144.599 9.70033 145.599 9.50033C146.099 9.40033 145.899 9.70033 145.799 9.90033C144.899 11.5003 145.399 13.2003 145.299 14.9003C145.299 15.5003 145.799 15.6003 146.199 15.7003C146.599 15.8003 146.999 15.8003 147.399 16.2003C147.599 16.9003 147.199 16.5003 146.999 16.7003Z" fill="#646464"/>
<path d="M151.8 27.499C152.2 27.499 152.6 27.499 152.9 27.499C152.6 24.599 152.8 21.699 152.8 18.799C152.8 18.199 152.9 17.599 153.7 17.799C154.3 18.099 154.3 18.599 154.3 19.099C154.3 21.699 154.3 24.299 154.3 26.899C154.3 27.299 154.3 27.599 153.9 27.699C153.3 27.699 152.6 27.999 151.8 27.499Z" fill="#E4E4E4"/>
<path d="M147.6 16.4004C147.2 16.3004 146.8 16.6004 146.5 16.2004C146.2 15.8004 146.1 15.4004 146.1 15.0004C146.1 13.8004 146.1 12.5004 146.1 11.2004C146.1 10.6004 146.2 10.1004 146.6 9.70038C146.8 9.40038 147.1 9.50037 147.4 9.50037C147.8 9.80037 147.8 10.3004 147.8 10.6004C147.8 12.5004 148 14.5004 147.6 16.4004Z" fill="#6A6A6A"/>
<path d="M147.3 27.2997C147.8 26.9997 147.8 26.4997 147.8 25.9997C147.9 23.0997 147.5 20.0997 148 17.1997C148.6 16.8997 148.8 17.1997 148.9 17.7997C149 18.5997 149 19.1997 149 19.9997C149 21.9997 149 23.8997 149 25.9997C149 26.5997 149 27.0997 148.4 27.4997C148.1 27.2997 147.7 27.2997 147.3 27.2997Z" fill="#E7E7E7"/>
<path d="M154.099 27.7C154.099 24.6 154.099 21.6 154.099 18.5C154.099 18.2 153.999 18 153.899 17.7C153.999 17.5 154.299 17.6 154.399 17.5C154.599 17.5 154.699 17.5 154.899 17.5C155.299 18.6 155.099 19.9 155.099 21.1C155.099 22.9 155.099 24.7 155.099 26.6C155.099 27.1 154.999 27.4 154.599 27.8C154.499 27.8 154.299 27.7 154.099 27.7Z" fill="#E8E8E8"/>
<path d="M146.599 9.59961C146.299 11.7996 146.5 13.9996 146.4 16.1996C145.4 16.3996 145 15.8996 145 14.8996C145.1 13.7996 145 12.5996 145 11.4996C145 10.7996 145 10.2996 145.8 9.99961V9.89961L145.699 9.79961C145.899 9.59961 146.299 9.69961 146.599 9.59961Z" fill="#666666"/>
<path d="M91.5996 47.4992C91.2996 46.9992 91.3997 46.5992 91.3997 46.0992C91.3997 40.9992 91.3997 35.8992 91.3997 30.9992C91.3997 30.4992 91.5996 30.0992 91.0996 29.6992C91.2996 29.3992 91.4997 29.2992 91.7997 29.1992C91.7997 35.1992 91.7997 41.2992 91.7997 47.2992C91.7997 47.2992 91.6996 47.3992 91.5996 47.4992Z" fill="#3E3E3E"/>
<path d="M125 9.39922C124.9 9.29922 124.8 9.29922 124.8 9.19922C125.2 9.19922 125.6 9.19922 125.9 9.19922C126 9.29922 126 9.29922 126.1 9.39922C126.5 9.99922 126.2 10.4992 126.2 11.0992C126.2 15.8992 126.1 20.6992 126.3 25.5992C126.3 25.8992 126.3 26.1992 126.1 26.3992C125.9 26.3992 125.8 26.3992 125.6 26.3992C125.1 26.0992 125.1 25.6992 125.1 25.2992C125.1 20.4992 125.1 15.5992 125.1 10.7992C125.1 10.2992 125.1 9.89922 125 9.39922Z" fill="#8C8C8C"/>
<path d="M123.4 9.19922C123.5 9.29922 123.6 9.29922 123.6 9.39922C124 9.89922 124 10.2992 124 10.8992C124 15.7992 124 20.6992 124 25.5992C124 25.9992 124 26.2992 123.8 26.4992C123.6 26.6992 123.4 26.6992 123.2 26.5992C123.2 26.4992 123.2 26.3992 123.2 26.2992C122.7 25.9992 123 25.5992 123 25.2992C123 20.2992 123 15.1992 123 10.2992C123 9.79922 122.9 9.49922 122.5 9.39922C122.4 9.29922 122.3 9.29922 122.3 9.19922C122.6 9.19922 123 9.19922 123.4 9.19922Z" fill="#AAAAAA"/>
<path d="M141.9 28.1992C142.5 28.2992 142.3 28.6992 142.3 28.9992C142.2 31.5992 142.1 34.2992 142.3 36.7992C142 37.1992 141.6 37.4992 141.3 37.5992C141.2 37.4992 141.1 37.3992 141.1 37.1992C140.9 34.5992 141 31.7992 141 29.1992C141 29.0992 141 28.8992 141.1 28.7992C141.1 28.5992 141.6 28.3992 141.9 28.1992Z" fill="#878787"/>
<path d="M121.9 9.19961C121.9 14.3996 121.9 19.4996 121.9 24.5996C121.9 25.0996 122.1 25.4996 121.7 25.8996C121.2 25.7996 121.1 25.4996 121.1 24.9996C121.2 20.6996 121.1 16.3996 121.2 11.9996C121.2 11.1996 121.1 10.5996 120.9 9.79961C120.8 9.59961 120.7 9.59961 120.5 9.49961C120.4 9.39961 120.2 9.29961 120.3 9.09961C120.9 9.19961 121.5 9.19961 121.9 9.19961Z" fill="#BDBDBD"/>
<path d="M120.4 9.19961C120.5 9.29961 120.6 9.29961 120.6 9.39961C120.9 9.69961 121 10.0996 121 10.4996C120.8 15.5996 120.9 20.6996 121 25.7996C121 26.1996 121 26.5996 120.6 26.6996C120.1 26.4996 120.1 25.9996 120.1 25.6996C120.1 20.8996 120.1 15.9996 120.1 11.1996C120.1 10.4996 120.2 9.79961 120.1 9.09961C120.2 9.19961 120.3 9.19961 120.4 9.19961Z" fill="#CACACA"/>
<path d="M104.7 35.7006C105 35.3006 105.3 35.0006 105.6 34.9006C105.8 34.8006 106.1 34.9006 106.1 35.1006C106.4 37.0006 106.8 39.0006 106.1 40.8006C106 41.0006 105.8 41.1006 105.6 41.2006C105.2 41.5006 104.8 41.5006 104.5 41.4006C104.5 39.5006 104.3 37.6006 104.7 35.7006Z" fill="#AEAEAE"/>
<path d="M148.5 27.3008C148.6 27.1008 148.7 26.8008 148.7 26.6008C148.7 23.6008 148.8 20.7008 148.6 17.7008C148.6 17.2008 148.5 16.9008 148 17.0008C147.9 16.9008 147.8 16.9008 147.8 16.8008C148.3 16.8008 148.7 16.8008 149.1 17.0008C149.2 17.3008 150.1 17.2008 149.4 17.8008C149.3 17.9008 149.4 18.3008 149.4 18.5008C149.4 21.2008 149.4 24.0008 149.3 26.8008C149.3 27.6008 150 27.2008 150.1 27.6008C149.5 27.6008 149 27.4008 148.5 27.3008Z" fill="#E0E0E0"/>
<path d="M136.1 30.4004C136.1 33.1004 136.2 35.9004 136.2 38.7004C136.2 39.4004 136.2 40.0004 136.9 40.4004C136.4 40.6004 136 40.7004 135.6 40.9004C135.2 40.4004 135.3 40.0004 135.3 39.4004C135.3 36.9004 135.3 34.4004 135.3 31.9004C135.3 31.7004 135.2 31.5004 135.1 31.3004C135.1 31.2004 135.1 31.0004 135.2 30.9004C135.5 30.8004 135.9 30.6004 136.1 30.4004Z" fill="#464646"/>
<path d="M137.8 39.8992C137.1 39.3992 137.4 38.6992 137.3 37.9992C137.3 35.2992 137.3 32.4992 137.3 29.6992C137.7 29.2992 138.1 29.0992 138.7 29.2992C138.8 29.3992 138.8 29.5992 138.7 29.6992C138.3 30.0992 138.4 30.4992 138.4 30.8992C138.4 33.1992 138.4 35.3992 138.4 37.6992C138.4 38.3992 138.7 38.7992 138.8 39.3992C138.4 39.6992 138.1 39.6992 137.8 39.8992Z" fill="#5C5C5C"/>
<path d="M141.2 37.5008C141.2 37.6008 141.2 37.6008 141.2 37.7008C140.9 38.2008 140.4 38.4008 140.1 38.5008C139.7 38.1008 139.8 37.7008 139.7 37.2008C139.7 34.8008 139.7 32.4008 139.7 30.0008C139.7 29.5008 139.7 29.1008 140.1 28.6008C140.3 28.3008 140.7 28.4008 140.9 28.3008C141.3 28.3008 141.4 28.5008 141.2 28.8008C141.1 29.0008 141.1 28.7008 141.1 28.9008C140.9 31.9008 140.8 34.7008 141.2 37.5008Z" fill="#7C7C7C"/>
<path d="M138.799 29.6007C138.799 29.5007 138.799 29.5007 138.799 29.4007C138.999 29.2007 139.099 28.8007 139.499 28.9007C139.999 28.7007 139.999 28.9007 139.899 29.3007C139.699 32.2007 139.899 35.0007 139.799 37.9007C139.799 38.2007 139.899 38.4007 139.999 38.7007C139.699 39.0007 139.299 39.2007 138.999 39.4007C138.499 39.1007 138.399 38.7007 138.399 38.3007C138.399 35.8007 138.399 33.3007 138.399 30.8007C138.399 30.3007 138.499 29.9007 138.799 29.6007Z" fill="#6B6B6B"/>
<path d="M140 38.6992C139.6 38.4992 139.4 38.2992 139.4 37.7992C139.4 35.1992 139.4 32.4992 139.3 29.8992C139.3 29.4992 139.9 29.1992 139.4 28.8992C139.6 28.6992 139.8 28.6992 140.1 28.6992C140.1 31.8992 140.1 35.1992 140 38.6992Z" fill="#717171"/>
<path d="M138.8 29.5996C138.8 32.3996 138.8 35.1996 138.8 37.9996C138.8 38.4996 138.8 38.8996 139 39.2996C138.9 39.3996 138.8 39.3996 138.8 39.4996C138.3 39.0996 138.1 38.6996 138.1 38.0996C138.1 35.6996 138.1 33.1996 138.1 30.6996C138 30.1996 138 29.5996 138.8 29.5996Z" fill="#646464"/>
<path d="M135.1 40.9992C135 41.2992 134.6 41.1992 134.3 41.3992C134 41.2992 133.7 41.2992 133.6 40.9992C133.5 37.9992 133.1 34.9992 133.8 31.9992C133.9 31.8992 133.9 31.6992 134.1 31.6992C134.2 31.6992 134.4 31.6992 134.5 31.6992C135 31.9992 134.9 32.4992 134.9 32.8992C134.9 35.0992 134.9 37.2992 134.9 39.4992C134.9 39.8992 134.9 40.2992 135.1 40.6992C135.2 40.6992 135.2 40.7992 135.1 40.9992Z" fill="#343434"/>
<path d="M134 41.1992C134.2 41.2992 134.3 41.2992 134.5 41.3992C134.2 41.3992 133.899 41.4992 133.699 41.4992C132.899 41.5992 132.699 41.1992 132.699 40.4992C132.799 38.4992 132.8 36.5992 132.8 34.5992C132.8 34.1992 132.8 33.7992 132.5 33.4992C132.5 32.7992 133 32.6992 133.5 32.6992C133.8 32.8992 133.799 33.1992 133.699 33.4992C133.499 35.7992 133.699 37.8992 133.599 40.1992C133.599 40.2992 133.6 40.7992 134 41.1992Z" fill="#272727"/>
<path d="M105.7 41.1992C105.8 41.0992 105.9 40.9992 105.9 40.9992C106.4 40.6992 106.4 40.1992 106.4 39.7992C106.3 38.5992 106.5 37.3992 106.3 36.0992C106.2 35.2992 106.4 34.3992 107.1 33.6992C107.4 33.6992 107.7 33.7992 107.7 34.0992C107.6 36.3992 108 38.6992 107.4 40.9992C106.8 41.2992 106.2 41.0992 105.7 41.1992Z" fill="#A4A4A4"/>
<path d="M107.3 40.9997C107.3 38.7997 107.3 36.5997 107.3 34.3997C107.3 34.0997 107.4 33.7997 107 33.5997C107.1 33.4997 107.199 33.3997 107.199 33.3997C108.099 33.1997 108.099 34.0997 108.099 34.4997C108.299 36.4997 108.299 38.3997 108.099 40.2997C107.999 40.4997 107.799 40.6997 107.599 40.7997C107.599 40.8997 107.5 40.9997 107.3 40.9997Z" fill="#9E9E9E"/>
<path d="M135.1 41.0008C135.1 40.9008 135.1 40.8008 135.1 40.7008C134.9 40.5008 134.9 40.3008 134.9 40.0008C134.9 37.4008 134.8 34.6008 134.9 32.0008C134.9 31.7008 134.8 31.3008 135.3 31.3008C135.7 31.7008 135.5 32.1008 135.5 32.4008C135.5 35.1008 135.5 37.9008 135.5 40.7008C135.4 40.9008 135.3 40.9008 135.1 41.0008Z" fill="#414141"/>
<path d="M86.6996 33.5996C86.9996 33.9996 86.8997 34.3996 86.8997 34.7996C86.8997 39.7996 86.8997 44.7996 86.8997 49.7996C86.8997 50.2996 86.7996 50.6996 87.0996 51.1996C86.9996 51.2996 86.8996 51.5996 86.6996 51.3996C86.5996 51.2996 86.5996 50.8996 86.5996 50.6996C86.5996 45.1996 86.5996 39.5996 86.5996 33.9996C86.5996 33.8996 86.6996 33.7996 86.6996 33.5996Z" fill="#101010"/>
<path d="M104.699 35.6992C105.299 36.1992 104.699 36.5992 104.699 37.0992C104.799 38.1992 104.699 39.4992 104.799 40.5992C104.799 40.9992 104.699 41.1992 104.499 41.3992C104.099 41.6992 103.699 41.6992 103.399 41.5992C103.399 41.4992 103.399 41.3992 103.399 41.2992C103.899 41.2992 104.099 40.9992 104.099 40.4992C104.099 38.8992 104.099 37.3992 104.099 35.7992C104.299 35.7992 104.499 35.6992 104.699 35.6992Z" fill="#B5B5B5"/>
<path d="M104.4 17.5996C104.8 19.6996 104.5 21.5996 104.6 23.6996C104.6 24.0996 104.6 24.4996 104.5 24.7996H104.4C104.4 24.7996 104.3 24.7996 104.3 24.6996C104.3 22.3996 104.1 19.9996 104.4 17.5996Z" fill="#606060"/>
<path d="M142.299 10.4004C142.299 10.5004 142.299 10.5004 142.299 10.6004C142.299 11.1004 141.899 11.1004 141.599 11.1004C141.199 11.1004 140.799 11.1004 140.499 10.8004C140.099 10.7004 139.699 10.9004 139.399 10.6004C140.399 10.5004 141.399 10.6004 142.299 10.4004Z" fill="#5D5D5D"/>
<path d="M138.299 10.6C137.499 11 136.699 10.8 135.899 10.7V10.6C135.899 10.6 135.899 10.5 135.999 10.5C136.599 10.5 137.499 10.6 138.299 10.6Z" fill="#636363"/>
<path d="M128.999 9.50039C128.399 9.80039 127.999 9.90039 127.399 9.40039C127.999 9.40039 128.399 9.40039 128.999 9.50039Z" fill="#656565"/>
<path d="M107.7 40.8996C107.8 40.7996 107.9 40.6996 107.9 40.6996C108.2 40.3996 108.5 40.3996 108.8 40.6996C109 40.6996 109.1 40.6996 109.3 40.6996C109.3 40.7996 109.3 40.7996 109.3 40.8996C108.8 40.8996 108.2 40.8996 107.7 40.8996Z" fill="#909090"/>
<path d="M131.8 41.7999C132 41.1999 132.4 41.5999 132.6 41.6999C132.3 41.7999 132.1 41.7999 131.8 41.7999Z" fill="#121212"/>
<path d="M154.4 17.6C154.3 17.8 154.1 17.8 153.9 17.8C153.1 17.7 153.2 18.3 153.2 18.8C153.2 21.3 153.2 23.9 153.2 26.4C153.2 26.8 153.4 27.2 153 27.5C151.9 27.4 151.9 26.6 151.9 25.7C151.9 23.4 151.9 21.1 152 18.8C152 18.3 151.4 18 152 17.5C152.7 17.6 153.5 17.6 154.4 17.6Z" fill="#DFDFDF"/>
<path d="M133.2 32.5C132.8 32.7 132.5 32.9 132.4 33.3C132.3 33.4 132.2 33.5 132.1 33.5C131.7 33.5 131.7 33.3 131.7 33C131.7 30.8 131.6 28.7 131.8 26.4C131.8 25.4 131.9 24.3 131.8 23.4C131.7 22.1 132.2 21.2 133.2 20.5C133.8 20.5 134.1 20.9 134.1 21.4C134.2 24.8 134.3 28.2 134.1 31.6C134.1 31.7 134.1 31.7 134 31.8C134 32.1 133.7 32.4 133.2 32.5Z" fill="#E2E2E2"/>
<path d="M128.1 42C127.6 42 127.2 42 126.8 42C126.8 37.3 126.8 32.6 126.8 27.9C126.8 27.4 126 26.8 127 26.5C127.3 26.5 127.7 26.5 127.9 26.5C128.2 26.8 128.3 27.2 128.3 27.5C128.3 32.1 128.3 36.8 128.3 41.4C128.2 41.6 128.2 41.8 128.1 42Z" fill="#353535"/>
<path d="M128.1 42.0004C127.8 41.5004 127.9 41.1004 127.9 40.6004C128 36.0004 127.8 31.5004 128 26.9004C128 26.7004 127.9 26.6004 127.9 26.4004C128.3 26.4004 128.7 26.4004 129 26.4004C129.3 27.0004 129.4 27.6004 129.4 28.3004C129.4 32.3004 129.4 36.5004 129.4 40.5004C129.4 41.1004 129.4 41.6004 128.8 42.0004C128.5 42.0004 128.3 42.0004 128.1 42.0004Z" fill="#303030"/>
<path d="M141.699 10.7991C141.999 10.7991 142.3 10.7991 142.4 10.5991C143.4 10.3991 143.699 10.9991 143.699 11.8991C143.699 13.0991 143.699 14.2991 143.699 15.4991C143.699 16.7991 142.599 15.9991 142.099 16.3991C143.399 16.6991 144.699 16.1991 145.999 16.6991C143.899 16.6991 141.799 16.5991 139.699 16.9991C139.399 16.8991 139.099 16.7991 139.599 16.5991C139.899 16.4991 140.299 16.4991 140.499 16.4991C141.199 15.9991 141.3 15.3991 141.3 14.5991C141.3 13.7991 141.3 12.8991 141.3 11.9991C141.3 11.4991 141.399 11.0991 141.699 10.7991Z" fill="#676767"/>
<path d="M128.8 42.0004C129.1 41.6004 129 41.2004 129 40.7004C129 36.6004 129 32.5004 129 28.4004C129 27.7004 128.5 27.1004 129 26.4004C129.9 26.4004 131 26.4004 131.9 26.4004C131.9 28.4004 131.9 30.3004 132 32.4004C132 32.8004 131.8 33.2004 132.2 33.4004C131.4 33.7004 131.7 33.0004 131.7 32.7004C131.7 30.9004 131.7 29.1004 131.7 27.4004C131.7 26.7004 131.4 26.5004 130.8 26.6004C130.6 26.7004 130.5 26.7004 130.3 26.6004C129.7 26.5004 129.5 26.6004 129.5 27.4004C129.6 31.9004 129.5 36.5004 129.5 41.0004C129.7 41.6004 129.6 42.1004 128.8 42.0004Z" fill="#2B2B2B"/>
<path d="M126.099 26.3993C125.599 21.7993 125.999 17.2993 125.899 12.6993C125.899 11.5993 125.699 10.4993 126.099 9.49931C126.899 9.39931 126.899 9.99931 126.799 10.4993C126.299 15.3993 126.699 20.1993 126.599 25.0993C126.599 25.5993 126.899 25.9993 126.999 26.4993C126.599 26.3993 126.399 26.3993 126.099 26.3993Z" fill="#848484"/>
<path d="M134.2 31.7004C133.9 31.0004 134 30.4004 134 29.6004C134 27.1004 134 24.6004 134 22.1004C134 21.4004 133.9 21.0004 133.3 20.6004C133.7 20.1004 134.1 19.7004 134.6 19.4004C135 20.7004 134.9 22.1004 134.9 23.4004C134.9 25.8004 134.9 28.1004 134.9 30.5004C134.9 30.7004 135 30.9004 135.2 31.0004C135.2 31.1004 135.2 31.1004 135.1 31.2004C135 31.5004 134.7 31.6004 134.4 31.7004C134.4 31.6004 134.3 31.6004 134.2 31.7004Z" fill="#E6E6E6"/>
<path d="M141.7 10.8008C141.7 12.3008 141.7 13.8008 141.7 15.3008C141.7 16.1008 141.4 16.5008 140.6 16.4008C140.6 14.5008 140.6 12.6008 140.6 10.8008C140.9 10.8008 141.3 10.8008 141.7 10.8008Z" fill="#6B6B6B"/>
<path d="M144.8 33.9C144.4 32.3 144.7 30.8 144.7 29.2C144.7 28.4 144.5 28 143.8 27.9C144.7 27.6 145 27.9 144.9 28.9C144.8 30.4 145 32.2 144.8 33.9Z" fill="#888888"/>
<path d="M141.199 28.8996C141.199 28.6996 141.099 28.4996 140.899 28.3996C141.199 28.0996 141.599 28.1996 141.799 28.1996C141.699 28.4996 141.399 28.6996 141.199 28.8996Z" fill="#818181"/>
<path d="M108.9 40.7004C108.6 40.7004 108.3 40.7004 108 40.7004C108 38.9004 108 37.1004 108 35.2004C108 34.5004 108.1 33.8004 107.3 33.3004C107.5 33.1004 107.8 32.8004 108 32.6004C108.2 32.5004 108.3 32.4004 108.5 32.4004C109 33.4004 109 34.5004 109 35.5004C108.9 37.3004 108.9 39.0004 108.9 40.7004Z" fill="#9A9A9A"/>
<path d="M107 33.5996C106.1 35.6996 106.7 37.7996 106.5 39.8996C106.5 40.3996 106.6 40.8996 105.8 40.7996C106.2 39.2996 106.2 37.6996 105.8 36.1996C105.7 35.6996 106.3 35.0996 105.5 34.6996C106 34.1996 106.5 33.9996 107 33.5996Z" fill="#A8A8A8"/>
<path d="M110.8 40.6996C110.5 40.6996 110.2 40.6996 109.9 40.6996C109.5 40.2996 109.6 39.7996 109.5 39.2996C109.5 37.1996 109.5 35.0996 109.5 32.9996C109.5 32.4996 109.7 32.0996 109.9 31.5996C109.8 31.1996 110.3 31.2996 110.4 31.0996C110.5 31.0996 110.599 31.0996 110.599 31.0996C111.099 31.1996 111.3 31.4996 111.3 31.9996C111.1 34.3996 111.299 36.6996 111.199 39.0996C111.199 39.6996 111.3 40.1996 110.8 40.6996Z" fill="#8B8B8B"/>
<path d="M110 31.5996C110 34.5996 110 37.5996 110 40.5996C109.8 40.5996 109.5 40.5996 109.3 40.5996C109.2 38.0996 109.5 35.4996 109.2 32.9996C109.1 32.2996 109.4 31.8996 110 31.5996Z" fill="#909090"/>
<path d="M123.2 26.7004C123.4 26.7004 123.5 26.7004 123.7 26.7004C124 26.5004 124.4 26.4004 124.6 26.8004C124.6 26.9004 124.6 26.9004 124.6 27.0004C125 27.4004 125 27.8004 125 28.3004C125 32.7004 125 37.0004 125 41.5004C125 41.8004 125 42.1004 124.8 42.3004C124.4 42.3004 124 42.3004 123.7 42.3004C123.4 41.5004 123.3 40.6004 123.3 39.8004C123.3 36.1004 123.3 32.5004 123.3 28.8004C123.3 28.3004 123.4 27.8004 122.9 27.5004C122.8 27.4004 122.7 27.3004 122.7 27.3004C122.8 26.8004 123 26.8004 123.2 26.7004Z" fill="#464646"/>
<path d="M124.699 41.9998C124.399 41.4998 124.499 41.0998 124.499 40.5998C124.499 35.9998 124.499 31.4998 124.499 26.8998C125.199 26.7998 125.399 27.0998 125.399 27.6998C125.399 32.0998 125.399 36.3998 125.399 40.8998C125.299 41.2998 125.599 42.0998 124.699 41.9998Z" fill="#434343"/>
<path d="M124.5 26.7008C124.2 26.7008 123.9 26.7008 123.6 26.6008C123.6 24.2008 123.6 21.9008 123.6 19.5008C123.6 16.1008 123.6 12.7008 123.6 9.30078C124.5 9.30078 124.4 10.0008 124.4 10.5008C124.4 15.3008 124.4 20.1008 124.4 25.0008C124.4 25.5008 124.2 26.1008 125.1 26.1008C125.3 26.0008 125.4 26.1008 125.3 26.4008C125 26.5008 124.7 26.6008 124.5 26.7008Z" fill="#A2A2A2"/>
<path d="M122.9 27.0996C123.8 27.0996 123.6 27.7996 123.6 28.1996C123.6 32.1996 123.6 36.2996 123.6 40.2996C123.6 40.8996 124.3 41.3996 123.6 41.9996C123.5 41.9996 123.4 41.9996 123.4 41.9996C122.8 41.5996 122.9 41.0996 122.9 40.5996C122.9 36.0996 122.9 31.5996 122.9 27.0996Z" fill="#4B4B4B"/>
<path d="M125.099 26.4004C124.999 26.3004 124.899 26.2004 124.899 26.1004C124.899 20.6004 124.899 14.9004 124.899 9.40039C125.699 9.90039 125.399 10.6004 125.399 11.4004C125.399 15.7004 125.399 20.1004 125.399 24.5004C125.399 25.2004 125.099 25.8004 125.599 26.5004C125.399 26.4004 125.299 26.4004 125.099 26.4004Z" fill="#919191"/>
<path d="M112.4 30.0996C112.5 30.0996 112.6 30.0996 112.6 30.0996C113.1 33.3996 112.8 36.7996 112.8 40.0996C112.8 41.0996 112 40.6996 111.5 40.7996C111.1 40.3996 111.1 39.8996 111.2 39.3996C111.3 36.7996 110.9 34.0996 111.4 31.4996C111.4 31.2996 111.3 31.1996 111.2 31.0996C111.4 30.8996 111.7 30.5996 111.9 30.3996C112.2 30.1996 112.4 30.1996 112.4 30.0996Z" fill="#838383"/>
<path d="M111.3 30.8993C111.6 31.1993 111.799 30.7993 112.199 30.8993C111.399 31.6993 111.4 32.4993 111.4 33.2993C111.4 35.6993 111.4 38.1993 111.4 40.5993C111.2 40.5993 110.899 40.5993 110.699 40.5993C110.799 37.6993 110.5 34.7993 110.9 31.8993C111 31.4993 110.6 31.3993 110.5 31.0993C110.8 31.0993 111.1 30.9993 111.3 30.8993Z" fill="#878787"/>
<path d="M118.799 41.5004C118.799 37.0004 118.799 32.5004 118.799 28.1004C118.499 28.1004 118.199 28.2004 117.899 28.2004C117.699 28.3004 117.599 28.2004 117.699 28.0004C117.899 27.9004 117.999 27.8004 118.199 27.7004C118.399 27.6004 118.699 27.5004 118.899 27.4004C119.099 27.4004 119.199 27.4004 119.399 27.4004C119.599 28.0004 119.699 28.5004 119.599 29.2004C119.599 33.0004 119.599 36.7004 119.599 40.5004C119.499 41.1004 119.599 41.6004 118.799 41.5004Z" fill="#606060"/>
<path d="M117.7 28C117.8 28.1 117.9 28.2 117.9 28.2C117.9 32.2 117.9 36.3 117.9 40.3C117.9 41 117.8 41.4 117 41.2C117.4 39.9 117.2 38.5 117.2 37.1C117.2 34.7 117.2 32.3 117.2 29.9C117.2 29.1 117 28.6 116.3 28.4C116.4 28.3 116.5 28.2 116.6 28.2C117 28.2 117.3 28.1 117.7 28Z" fill="#686868"/>
<path d="M121.3 27.1003C121.3 27.2003 121.3 27.3003 121.3 27.3003C121.7 27.7003 121.7 28.1003 121.7 28.7003C121.7 32.6003 121.7 36.4003 121.7 40.4003C121.7 41.0003 121.7 41.4003 121.3 41.9003C121 41.9003 120.7 41.9003 120.4 41.9003C120.4 37.4003 120.4 32.8003 120.5 28.3003C120.5 27.9003 120.3 27.7003 120.2 27.5003C120.4 27.4003 120.5 27.3003 120.7 27.2003C120.8 26.9003 121.1 26.9003 121.3 27.1003Z" fill="#575757"/>
<path d="M121.3 27.1C121.1 27.1 120.8 27.1 120.6 27.1C120.6 27 120.6 26.9 120.6 26.9C120.9 26.2 120.6 25.7 120.6 25C120.6 20.5 120.6 16.1 120.6 11.6C120.6 10.9 120.8 10.2 120.6 9.5C120.8 9.5 120.9 9.5 121.1 9.5C121.3 10.6 121.4 11.8 121.3 12.9C121.2 17.1 121.4 21.3 121.2 25.5C121.2 26.1 121.6 26.4 121.6 27C121.5 27 121.4 27.1 121.3 27.1Z" fill="#C4C4C4"/>
<path d="M113.9 29.2995C114.1 29.1995 114.3 28.9995 114.6 29.0995C115 29.4995 115.2 29.9995 115.2 30.4995C115 33.5995 115.2 36.6995 115.1 39.7995C115.1 40.4995 115 40.8995 114.2 40.6995C114.3 37.0995 114 33.5995 114.3 30.0995C114.3 29.4995 113.8 29.6995 113.7 29.3995C113.6 29.3995 113.8 29.3995 113.9 29.2995Z" fill="#787878"/>
<path d="M113.9 29.3008C113.8 29.4008 113.7 29.5008 113.7 29.6008C113.6 29.6008 113.5 29.6008 113.5 29.6008C113.5 24.0008 113.5 18.4008 113.5 12.8008C113.5 12.1008 113 11.2008 114.2 10.8008C114.2 16.2008 114.2 21.4008 114.2 26.8008C114 27.6008 114.1 28.5008 113.9 29.3008Z" fill="#BDBDBD"/>
<path d="M130.3 26.6992C130.5 26.6992 130.6 26.6992 130.8 26.6992C131.3 26.9992 131.6 27.3992 131.5 27.8992C131.4 32.1992 131.3 36.4992 131.3 40.9992C131.3 41.8992 130.8 41.8992 130.2 41.7992C130.5 41.2992 130.4 40.8992 130.4 40.3992C130.3 35.7992 130.3 31.1992 130.3 26.6992Z" fill="#242424"/>
<path d="M121.6 26.9004C121.1 26.5004 121.1 26.1004 121.1 25.5004C121.1 20.7004 121.1 16.0004 121.1 11.2004C121.1 10.6004 120.9 10.0004 121.1 9.40039C121.6 10.1004 121.6 10.8004 121.6 11.6004C121.6 16.2004 121.8 20.8004 121.5 25.3004C121.5 25.7004 121.8 25.7004 121.9 26.0004C121.6 26.5004 122.2 26.6004 122.4 26.8004C121.9 26.9004 121.8 26.9004 121.6 26.9004Z" fill="#C1C1C1"/>
<path d="M122.399 9.40019C122.999 9.30019 123.099 9.70019 123.099 10.2002C122.999 15.5002 123.199 20.8002 122.999 26.1002C122.999 26.2002 123.099 26.3002 123.099 26.4002C122.499 26.3002 122.599 25.9002 122.599 25.6002C122.599 20.5002 122.599 15.4002 122.699 10.4002C122.699 9.90019 122.599 9.80019 122.399 9.40019Z" fill="#AFAFAF"/>
<path d="M121.3 41.8002C121.3 37.0002 121.3 32.1002 121.3 27.3002C122 27.2002 122.2 27.5002 122.2 28.1002C122.2 32.3002 122.2 36.6002 122.2 40.8002C122.2 41.7002 122 41.9002 121.3 41.8002Z" fill="#525252"/>
<path d="M141.2 37.5C140.8 37.2 140.7 36.7 140.7 36.3C140.7 34.1 140.7 32 140.7 29.8C140.7 29.4 140.6 29 141.2 29C141.2 31.8 141.2 34.7 141.2 37.5Z" fill="#818181"/>
<path d="M134.399 31.5996C134.599 31.2996 134.799 31.1996 135.099 31.0996C135.199 31.1996 135.299 31.2996 135.399 31.3996C134.999 31.7996 135.199 32.1996 135.199 32.4996C135.199 35.1996 135.199 37.9996 135.199 40.5996C134.499 40.4996 134.699 39.8996 134.699 39.6996C134.699 37.2996 134.699 34.7996 134.799 32.3996C134.699 31.9996 134.699 31.7996 134.399 31.5996Z" fill="#3A3A3A"/>
<path d="M133.2 32.5008C133.5 32.2008 133.6 31.8008 134 31.8008C133.6 34.9008 133.9 38.0008 133.8 41.1008C133 41.2008 133.1 40.5008 133.1 40.3008C133.2 37.9008 132.8 35.4008 133.3 33.1008C133.5 32.8008 133.4 32.6008 133.2 32.5008Z" fill="#2D2D2D"/>
</svg>
