<svg width="163" height="98" viewBox="0 0 163 98" fill="none" xmlns="http://www.w3.org/2000/svg">
<path d="M39.3 12.1991C66.4 14.2991 114.7 29.9991 160 16.9991L161.4 2.69907C120.3 20.4991 68.9 1.99907 44.5 0.199072C2.4 -2.20093 0 32.4991 0 32.4991L0.300049 37.7991C0.300049 37.6991 12.2 10.0991 39.3 12.1991Z" fill="#E4DCD1"/>
<path d="M15.3999 64.8992H13.0999L11.5999 72.6992L11.2999 74.0992L10.9999 76.1992L10.5999 78.3992C10.5999 78.3992 10.5999 78.4992 10.5999 78.5992C10.5999 78.6992 10.5999 78.7992 10.5999 78.8992C10.4999 77.7992 10.2999 76.7992 10.0999 75.6992C9.89985 74.6992 9.69988 73.6992 9.49988 72.6992L7.79993 64.6992H5.49988L3.8999 84.2992H6.3999L7.19983 70.7992C7.29983 71.8992 7.49983 72.8992 7.69983 73.9992C7.89983 74.9992 8.09993 75.9992 8.29993 76.9992L9.79993 84.3992H11.5999L13.1998 75.8992L13.2999 75.1992L13.5999 73.3992C13.5999 73.1992 13.6998 72.8992 13.6998 72.4992C13.7998 72.1992 13.7999 71.6992 13.8999 71.2992L13.9999 70.8992C13.9999 70.9992 13.9999 71.0992 13.9999 71.0992C13.9999 71.1992 13.9999 71.1992 13.9999 71.1992L14.0999 73.5992L14.1998 76.1992C14.1998 76.3992 14.1998 76.5992 14.1998 76.7992C14.1998 76.9992 14.1998 77.2992 14.1998 77.6992L14.5999 84.2992H17.0999L15.3999 64.8992Z" fill="#E4DCD1"/>
<path d="M26.7998 84.4992V71.3992H24.3998V72.8992C23.7998 71.7992 22.9998 71.1992 21.9998 71.1992C20.8998 71.1992 20.0997 71.6992 19.5997 72.7992C19.0997 73.8992 18.7998 75.4992 18.7998 77.7992C18.7998 80.1992 19.0997 81.8992 19.5997 82.9992C20.0997 84.0992 20.8998 84.6992 21.9998 84.6992C22.5998 84.6992 22.9998 84.5992 23.3998 84.2992C23.6998 83.9992 24.0998 83.4992 24.3998 82.7992V84.4992H26.7998ZM23.9998 81.4992C23.7998 82.1992 23.3998 82.5992 22.7998 82.5992C22.1998 82.5992 21.7997 82.2992 21.5997 81.5992C21.3997 80.8992 21.2998 79.6992 21.2998 77.9992C21.2998 76.2992 21.3997 75.0992 21.6997 74.4992C21.8997 73.7992 22.3998 73.4992 22.8998 73.4992C23.3998 73.4992 23.7997 73.8992 24.0997 74.5992C24.2997 75.3992 24.4998 76.4992 24.4998 78.0992C24.3998 79.4992 24.2998 80.6992 23.9998 81.4992Z" fill="#E4DCD1"/>
<path d="M32.2 67.6992H29.8V71.3992H28.5V73.2992H29.8V84.4992H32.2V73.2992H33.5V71.3992H32.2V67.6992Z" fill="#E4DCD1"/>
<path d="M41.9998 72.7996C41.6998 72.1996 41.1997 71.7996 40.6997 71.4996C40.1997 71.1996 39.5998 71.0996 38.8998 71.0996C36.1998 71.0996 34.7998 73.3996 34.7998 77.8996C34.7998 82.3996 36.1998 84.6996 38.8998 84.6996C41.5998 84.6996 42.9998 82.4996 42.9998 77.9996C42.9998 76.7996 42.8998 75.7996 42.7998 74.8996C42.5998 74.0996 42.2998 73.3996 41.9998 72.7996ZM40.0997 81.3996C39.8997 82.0996 39.4998 82.3996 38.8998 82.3996C38.2998 82.3996 37.8997 82.0996 37.6997 81.3996C37.4997 80.6996 37.3998 79.5996 37.3998 77.8996C37.3998 76.1996 37.4997 74.9996 37.6997 74.3996C37.8997 73.6996 38.3998 73.3996 38.8998 73.3996C39.4998 73.3996 39.8997 73.6996 40.0997 74.3996C40.2997 75.0996 40.3998 76.2996 40.3998 77.9996C40.4998 79.6996 40.2997 80.7996 40.0997 81.3996Z" fill="#E4DCD1"/>
<path d="M60.1997 74.9996V74.1996H55.3998V76.3996H57.6997V76.7996V77.2996C57.6997 79.0996 57.4997 80.2996 57.1997 81.0996C56.8997 81.7996 56.2998 82.1996 55.3998 82.1996C54.4998 82.1996 53.8998 81.6996 53.4998 80.5996C53.1998 79.5996 52.9998 77.4996 52.9998 74.5996C52.9998 71.6996 53.1998 69.5996 53.4998 68.4996C53.7998 67.3996 54.3998 66.8996 55.2998 66.8996C55.8998 66.8996 56.3997 67.0996 56.6997 67.4996C56.8997 67.6996 56.9997 67.9996 57.0997 68.2996C57.1997 68.6996 57.3998 69.0996 57.4998 69.5996L59.9998 68.5996C59.5998 67.1996 58.9998 66.0996 58.2998 65.4996C57.5998 64.8996 56.5998 64.5996 55.2998 64.5996C53.5998 64.5996 52.3997 65.1996 51.5997 66.4996C50.6997 67.8996 50.2998 70.5996 50.2998 74.6996C50.2998 78.2996 50.6998 80.7996 51.4998 82.3996C52.2998 83.8996 53.5998 84.6996 55.4998 84.6996C57.2998 84.6996 58.4997 83.9996 59.1997 82.5996C59.8997 81.3996 60.1997 78.7996 60.1997 74.9996Z" fill="#E4DCD1"/>
<path d="M67.9998 73.5996V71.0996C67.2998 71.0996 66.7998 71.2996 66.3998 71.5996C65.9998 71.8996 65.5997 72.3996 65.1997 73.0996V71.4996H62.7998V84.5996H65.1997V76.6996C65.1997 75.5996 65.3997 74.7996 65.6997 74.3996C66.0997 73.9996 66.6997 73.6996 67.5997 73.6996C67.6997 73.5996 67.7998 73.5996 67.9998 73.5996Z" fill="#E4DCD1"/>
<path d="M76.4998 72.7996C76.1998 72.1996 75.6997 71.7996 75.1997 71.4996C74.6997 71.1996 74.0998 71.0996 73.3998 71.0996C70.6998 71.0996 69.2998 73.3996 69.2998 77.8996C69.2998 82.3996 70.6998 84.6996 73.3998 84.6996C76.0998 84.6996 77.4998 82.4996 77.4998 77.9996C77.4998 76.7996 77.3998 75.7996 77.2998 74.8996C77.0998 74.0996 76.7998 73.3996 76.4998 72.7996ZM74.5997 81.3996C74.3997 82.0996 73.9998 82.3996 73.3998 82.3996C72.7998 82.3996 72.3997 82.0996 72.1997 81.3996C71.9997 80.6996 71.8998 79.5996 71.8998 77.8996C71.8998 76.1996 71.9997 74.9996 72.1997 74.3996C72.3997 73.6996 72.8998 73.3996 73.3998 73.3996C73.9998 73.3996 74.3997 73.6996 74.5997 74.3996C74.7997 75.0996 74.8998 76.2996 74.8998 77.9996C74.9998 79.6996 74.7997 80.7996 74.5997 81.3996Z" fill="#E4DCD1"/>
<path d="M84.2 77.9C83.9 77.6 83.5 77.3 83.1 76.9C82 76 81.4 75.3 81.4 74.7C81.4 74.5 81.4 74.3 81.5 74.1C81.6 73.9 81.7 73.8 81.8 73.6C81.9 73.5 82.1 73.4 82.3 73.3C82.5 73.2 82.7 73.2 82.9 73.2C83.6 73.2 84.2 73.4 84.8 73.9V71.6C84.1 71.2 83.4 71 82.6 71C81.5 71 80.7 71.3 80 72C79.3 72.7 79 73.5 79 74.6C79 75.4 79.2 76.1 79.5 76.6C79.9 77.1 80.6 77.8 81.6 78.6C81.9 78.8 82.1 79.1 82.3 79.2C82.5 79.4 82.7 79.6 82.7 79.7C82.9 80 83 80.3 83 80.8C83 81.9 82.4 82.4 81.3 82.4C80.7 82.4 80 82.1 79.3 81.6V83.9C80 84.3 80.7 84.5 81.4 84.5C82.5 84.5 83.4 84.1 84.1 83.4C84.8 82.7 85.1 81.7 85.1 80.6C85.1 79.8 84.9 79.1 84.6 78.6C84.8 78.5 84.5 78.2 84.2 77.9Z" fill="#E4DCD1"/>
<path d="M92.6002 78.8C92.4002 78.5 92.2003 78.2 91.9003 77.9C91.6003 77.6 91.2003 77.3 90.8003 76.9C89.7003 76 89.1002 75.3 89.1002 74.7C89.1002 74.5 89.1002 74.3 89.2002 74.1C89.3002 73.9 89.4002 73.8 89.5002 73.6C89.6002 73.5 89.8002 73.4 90.0002 73.3C90.2002 73.2 90.4002 73.2 90.6002 73.2C91.3002 73.2 91.9002 73.4 92.5002 73.9V71.6C91.8002 71.2 91.1003 71 90.3003 71C89.2003 71 88.4002 71.3 87.7002 72C87.0002 72.7 86.7002 73.5 86.7002 74.6C86.7002 75.4 86.9002 76.1 87.2002 76.6C87.6002 77.1 88.3003 77.8 89.3003 78.6C89.6003 78.8 89.8002 79.1 90.0002 79.2C90.2002 79.4 90.4003 79.6 90.4003 79.7C90.6003 80 90.7002 80.3 90.7002 80.8C90.7002 81.9 90.1002 82.4 89.0002 82.4C88.4002 82.4 87.7002 82.1 87.0002 81.6V83.9C87.7002 84.3 88.4002 84.5 89.1002 84.5C90.2002 84.5 91.1003 84.1 91.8003 83.4C92.5003 82.7 92.8003 81.7 92.8003 80.6C93.0003 80 92.9002 79.3 92.6002 78.8Z" fill="#E4DCD1"/>
<path d="M102.7 77.9996C102.7 76.7996 102.6 75.7996 102.5 74.8996C102.3 73.9996 102.1 73.2996 101.7 72.7996C101.4 72.1996 100.9 71.7996 100.4 71.4996C99.9 71.1996 99.3 71.0996 98.6 71.0996C95.9 71.0996 94.5 73.3996 94.5 77.8996C94.5 82.3996 95.9 84.6996 98.6 84.6996C101.4 84.6996 102.7 82.4996 102.7 77.9996ZM99.9 81.3996C99.7 82.0996 99.3 82.3996 98.7 82.3996C98.1 82.3996 97.7 82.0996 97.5 81.3996C97.3 80.6996 97.2 79.5996 97.2 77.8996C97.2 76.1996 97.3 74.9996 97.5 74.3996C97.7 73.6996 98.2 73.3996 98.7 73.3996C99.3 73.3996 99.7 73.6996 99.9 74.3996C100.1 75.0996 100.2 76.2996 100.2 77.9996C100.2 79.6996 100.1 80.7996 99.9 81.3996Z" fill="#E4DCD1"/>
<path d="M115.4 72.9C115.2 72.6 115.1 72.3 114.9 72.1C114.7 71.9 114.5 71.7 114.4 71.6C114.1 71.3 113.6 71.2 113.1 71.2C112.5 71.2 112.1 71.3 111.7 71.6C111.3 71.9 111 72.3 110.7 72.8C110.4 73.3 110.2 74 110.1 74.9C110 75.7 109.9 76.7 109.9 77.9C109.9 80.3 110.2 82 110.7 83.1C111.2 84.2 112 84.8 113.1 84.8C113.7 84.8 114.1 84.7 114.5 84.4C114.8 84.1 115.2 83.6 115.5 82.9V84.6H117.9V63H115.5V72.9H115.4ZM115.1 81.5C114.9 82.2 114.5 82.6 113.9 82.6C113.3 82.6 112.9 82.3 112.7 81.6C112.5 80.9 112.4 79.7 112.4 78C112.4 76.3 112.5 75.1 112.8 74.5C113 73.8 113.5 73.5 114 73.5C114.5 73.5 114.9 73.9 115.2 74.6C115.4 75.4 115.6 76.5 115.6 78.1C115.5 79.5 115.4 80.7 115.1 81.5Z" fill="#E4DCD1"/>
<path d="M128.4 77.9996C128.4 76.7996 128.3 75.7996 128.2 74.8996C128 73.9996 127.8 73.2996 127.4 72.7996C127.1 72.1996 126.6 71.7996 126.1 71.4996C125.6 71.1996 125 71.0996 124.3 71.0996C121.6 71.0996 120.2 73.3996 120.2 77.8996C120.2 82.3996 121.6 84.6996 124.3 84.6996C127 84.6996 128.4 82.4996 128.4 77.9996ZM125.5 81.3996C125.3 82.0996 124.9 82.3996 124.3 82.3996C123.7 82.3996 123.3 82.0996 123.1 81.3996C122.9 80.6996 122.8 79.5996 122.8 77.8996C122.8 76.1996 122.9 74.9996 123.1 74.3996C123.3 73.6996 123.8 73.3996 124.3 73.3996C124.9 73.3996 125.3 73.6996 125.5 74.3996C125.7 75.0996 125.8 76.2996 125.8 77.9996C125.8 79.6996 125.7 80.7996 125.5 81.3996Z" fill="#E4DCD1"/>
<path d="M142.3 83.2992C143.2 82.2992 143.6 81.0992 143.6 79.5992C143.6 78.4992 143.4 77.4992 143 76.7992C142.6 75.9992 141.9 75.0992 140.8 73.9992C140.2 73.3992 139.7 72.8992 139.4 72.4992C139 72.0992 138.8 71.6992 138.6 71.4992C138.3 70.9992 138.1 70.3992 138.1 69.6992C138.1 68.8992 138.3 68.2992 138.8 67.7992C139.2 67.2992 139.8 67.0992 140.5 67.0992C141.1 67.0992 141.9 67.3992 142.7 67.9992V65.3992C141.8 64.9992 141 64.6992 140 64.6992C138.6 64.6992 137.6 65.1992 136.8 66.0992C136 66.9992 135.6 68.1992 135.6 69.6992C135.6 70.7992 135.8 71.7992 136.2 72.4992C136.4 72.8992 136.7 73.2992 137.2 73.7992C137.6 74.2992 138.2 74.8992 138.9 75.4992C139.3 75.8992 139.7 76.2992 140 76.6992C140.3 77.0992 140.5 77.3992 140.7 77.5992C141 78.1992 141.2 78.7992 141.2 79.4992C141.2 80.2992 141 80.9992 140.6 81.3992C140.2 81.8992 139.6 82.0992 138.9 82.0992C138.1 82.0992 137.3 81.7992 136.3 81.0992V83.6992C137.1 84.2992 138.1 84.5992 139.2 84.5992C140.4 84.6992 141.5 84.2992 142.3 83.2992Z" fill="#E4DCD1"/>
<path d="M151.1 79.2V80.3C151.1 81.1 151 81.7 150.8 82C150.6 82.3 150.2 82.5 149.6 82.5C149.1 82.5 148.7 82.3 148.5 82C148.3 81.7 148.2 81.1 148.1 80.3V71.5H145.7V80.2C145.7 81.9 146 83.1 146.6 83.8C147.2 84.5 148.2 84.9 149.6 84.9C151.4 84.9 152.6 84.3 153.1 83.1C153.4 82.5 153.5 81.3 153.5 79.4V71.6H151.1V79.2Z" fill="#E4DCD1"/>
<path d="M158.6 63H156.2V84.5H158.6V63Z" fill="#E4DCD1"/>
<path d="M112.3 55.3992C112.5 55.3992 112.7 55.4992 112.8 55.5992C112.9 55.6992 112.9 55.7992 112.9 55.8992C112.9 55.9992 113 56.1992 113 56.2992L113.8 55.9992C113.7 55.4992 113.5 55.1992 113.2 54.9992C113 54.7992 112.6 54.6992 112.2 54.6992C111.7 54.6992 111.3 54.8992 111 55.2992C110.7 55.6992 110.6 56.5992 110.6 57.9992C110.6 59.1992 110.7 59.9992 111 60.4992C111.3 60.9992 111.7 61.1992 112.3 61.1992C112.9 61.1992 113.3 60.9992 113.5 60.4992C113.7 60.0992 113.8 59.1992 113.8 57.9992V57.7992H112.2V58.4992H112.9V58.5992V58.7992C112.9 59.3992 112.8 59.7992 112.7 59.9992C112.6 60.1992 112.4 60.3992 112.1 60.3992C111.8 60.3992 111.6 60.1992 111.5 59.8992C111.4 59.5992 111.3 58.8992 111.3 57.8992C111.3 56.8992 111.4 56.2992 111.5 55.8992C111.8 55.5992 112 55.3992 112.3 55.3992Z" fill="#E4DCD1"/>
<path d="M119.1 55.1992C118.8 54.7992 118.4 54.6992 117.9 54.6992C117.3 54.6992 116.9 54.8992 116.6 55.3992C116.4 55.8992 116.2 56.6992 116.2 57.7992C116.2 59.0992 116.3 59.8992 116.6 60.3992C116.9 60.8992 117.3 61.1992 117.9 61.1992C118.5 61.1992 118.9 60.9992 119.2 60.4992C119.4 59.9992 119.6 59.1992 119.6 58.0992C119.6 57.2992 119.6 56.6992 119.5 56.2992C119.4 55.7992 119.3 55.3992 119.1 55.1992ZM118.6 59.8992C118.5 60.1992 118.3 60.3992 118 60.3992C117.7 60.3992 117.5 60.1992 117.4 59.8992C117.3 59.4992 117.2 58.8992 117.2 57.9992C117.2 56.9992 117.2 56.2992 117.3 55.9992C117.4 55.6992 117.6 55.4992 117.9 55.4992C118.2 55.4992 118.4 55.6992 118.5 55.9992C118.6 56.3992 118.6 57.0992 118.6 58.1992C118.7 58.9992 118.7 59.5992 118.6 59.8992Z" fill="#E4DCD1"/>
<path d="M123.5 57.2984C123.5 57.3984 123.5 57.4984 123.5 57.4984L123.4 58.4984L123.3 59.1984V59.2984C123.3 59.2984 123.3 59.3984 123.3 59.4984V59.1984C123.3 59.0984 123.3 58.9984 123.3 58.8984C123.3 58.7984 123.3 58.5984 123.2 58.4984L123.1 57.5984L123 57.1984L122.6 54.8984H121.8L123 61.1984H123.7L124.9 54.8984H124.1L123.7 57.1984C123.6 57.0984 123.6 57.1984 123.5 57.2984Z" fill="#E4DCD1"/>
<path d="M129.2 55.4992V54.6992H126.9V61.0992H129.2V60.3992H127.8V58.1992H129.1V57.4992H127.8V55.4992H129.2Z" fill="#E4DCD1"/>
<path d="M133.4 57.9988C133.7 57.8988 133.9 57.7988 134.1 57.4988C134.3 57.1988 134.3 56.8988 134.3 56.3988C134.3 55.7988 134.2 55.3988 133.9 55.0988C133.7 54.8988 133.3 54.7988 132.9 54.7988H131.8V61.0988H132.7V57.9988L133.9 61.0988H134.8L133.4 57.9988ZM132.5 57.4988V55.3988H132.6C132.7 55.3988 132.9 55.3988 132.9 55.4988C133 55.4988 133.1 55.5988 133.1 55.6988C133.2 55.7988 133.2 55.8988 133.2 55.9988C133.2 56.0988 133.2 56.2988 133.2 56.4988C133.2 56.8988 133.1 57.0988 133 57.2988C132.9 57.4988 132.9 57.4988 132.5 57.4988Z" fill="#E4DCD1"/>
<path d="M137.7 56.4988C137.8 56.7988 137.8 57.0988 137.9 57.3988C138 57.6988 138.1 57.9988 138.1 58.1988L139.1 61.0988H139.9V54.7988H139V57.1988C139 57.5988 139 57.8988 139 58.2988C139 58.6988 139.1 59.0988 139.2 59.5988C139 58.7988 138.8 57.9988 138.5 57.2988L137.6 54.7988H136.8V61.0988H137.6V58.2988C137.6 58.1988 137.6 58.0988 137.6 58.0988C137.6 58.0988 137.6 57.9988 137.6 57.8988V57.0988L137.7 56.4988C137.7 56.3988 137.7 56.3988 137.7 56.4988C137.6 56.4988 137.6 56.3988 137.7 56.4988Z" fill="#E4DCD1"/>
<path d="M145.6 56.1992C145.5 55.7992 145.4 55.3992 145.2 55.1992C144.9 54.7992 144.5 54.6992 144 54.6992C143.4 54.6992 143 54.8992 142.7 55.3992C142.5 55.8992 142.3 56.6992 142.3 57.7992C142.3 59.0992 142.4 59.8992 142.7 60.3992C143 60.8992 143.4 61.1992 144 61.1992C144.6 61.1992 145 60.9992 145.3 60.4992C145.5 59.9992 145.7 59.1992 145.7 58.0992C145.7 57.2992 145.7 56.6992 145.6 56.1992ZM144.7 59.8992C144.6 60.1992 144.4 60.3992 144.1 60.3992C143.8 60.3992 143.6 60.1992 143.5 59.8992C143.4 59.4992 143.3 58.8992 143.3 57.9992C143.3 56.9992 143.3 56.2992 143.4 55.9992C143.5 55.6992 143.7 55.4992 144 55.4992C144.3 55.4992 144.5 55.6992 144.6 55.9992C144.7 56.3992 144.7 57.0992 144.7 58.1992C144.8 58.9992 144.8 59.5992 144.7 59.8992Z" fill="#E4DCD1"/>
<path d="M154.6 56.1992C154.5 55.7992 154.3 55.3992 154.1 55.1992C153.9 54.9992 153.8 54.8992 153.6 54.7992C153.4 54.6992 153.1 54.6992 152.8 54.6992H151.7V60.9992H152.4C153.2 60.9992 153.8 60.8992 154.1 60.5992C154.4 60.3992 154.5 60.0992 154.6 59.5992C154.7 59.1992 154.8 58.5992 154.8 57.8992C154.8 57.1992 154.7 56.5992 154.6 56.1992ZM153.6 59.8992C153.4 60.1992 153.1 60.3992 152.6 60.3992V55.4992H152.7C153.2 55.4992 153.5 55.6992 153.6 56.0992C153.8 56.4992 153.9 57.0992 153.9 58.0992C153.9 58.8992 153.8 59.4992 153.6 59.8992Z" fill="#E4DCD1"/>
<path d="M157.3 61.0992H159.6V60.3992H158.1V58.1992H159.4V57.4992H158.1V55.4992H159.6V54.6992H157.3V61.0992Z" fill="#E4DCD1"/>
<path d="M5.90015 92.3C6.10015 91.9 6.20007 91.4 6.20007 90.8C6.20007 90 6.0001 89.4 5.6001 89C5.3001 88.7 4.80007 88.5 4.20007 88.5H2.6001V97.2H3.80017V93L5.40015 97.3H6.6001L5.00012 93C5.40012 92.9 5.70015 92.7 5.90015 92.3ZM3.80017 92.4V89.5H4.00012C4.20012 89.5 4.30012 89.5 4.50012 89.6C4.70012 89.7 4.70017 89.7 4.80017 89.9C4.90017 90 4.90012 90.2 5.00012 90.4C5.10012 90.6 5.1001 90.8 5.1001 91.1C5.1001 91.6 5.00017 92 4.80017 92.2C4.60017 92.3 4.30017 92.4 3.80017 92.4Z" fill="#E4DCD1"/>
<path d="M12.6001 94.9C12.6001 95.5 12.5001 95.8 12.4001 96C12.3001 96.2 12.1001 96.3 11.7001 96.3C11.4001 96.3 11.1001 96.2 11.0001 96C10.9001 95.8 10.8002 95.4 10.8002 94.7V88.5H9.6001V94.7C9.6001 95.7 9.70015 96.3 9.90015 96.6C10.2001 97.1 10.8001 97.3 11.6001 97.3C12.3001 97.3 12.8001 97.1 13.2001 96.7C13.5001 96.4 13.6001 95.7 13.6001 94.8V88.5H12.4001V94.9H12.6001Z" fill="#E4DCD1"/>
<path d="M21.2001 88.5L20.5001 92L20.4001 92.6L20.3002 93.6L20.1001 94.6C20.1001 94.6 20.1001 94.6 20.1001 94.7V94.8C20.0001 94.3 20.0001 93.8 19.9001 93.4C19.8001 93 19.7001 92.5 19.6001 92.1L18.8002 88.5H17.8002L17.1001 97.2H18.2001L18.5001 91.2C18.6001 91.7 18.6001 92.2 18.7001 92.6C18.8001 93 18.9001 93.5 19.0001 93.9L19.7001 97.2H20.5001L21.2001 93.4L21.3002 93.1L21.4001 92.3C21.4001 92.2 21.4001 92.1 21.5001 91.9C21.5001 91.7 21.6001 91.6 21.6001 91.4V91.2V91.3V92.4L21.7001 93.6C21.7001 93.7 21.7001 93.8 21.7001 93.9C21.7001 94 21.7001 94.1 21.7001 94.3L21.9001 97.3H23.0001L22.2001 88.6H21.2001V88.5Z" fill="#E4DCD1"/>
<path d="M30.0002 89.0988C29.6002 88.5988 29.1003 88.2988 28.4003 88.2988C27.6003 88.2988 27.0002 88.5988 26.7002 89.2988C26.4002 89.8988 26.2002 90.9988 26.2002 92.5988C26.2002 94.2988 26.4002 95.5988 26.7002 96.1988C27.0002 96.8988 27.6002 97.1988 28.5002 97.1988C29.3002 97.1988 29.9002 96.8988 30.2002 96.1988C30.5002 95.5988 30.7002 94.4988 30.7002 92.8988C30.7002 91.7988 30.6002 90.9988 30.5002 90.3988C30.4002 89.9988 30.2002 89.4988 30.0002 89.0988ZM29.2002 95.5988C29.1002 95.9988 28.8003 96.2988 28.4003 96.2988C28.0003 96.2988 27.7002 96.0988 27.6002 95.5988C27.5002 95.0988 27.4003 94.1988 27.4003 92.8988C27.4003 91.4988 27.5002 90.5988 27.6002 90.0988C27.7002 89.5988 28.0003 89.3988 28.4003 89.3988C28.8003 89.3988 29.1002 89.5988 29.2002 90.0988C29.3002 90.5988 29.4003 91.5988 29.4003 93.0988C29.5003 94.3988 29.4002 95.1988 29.2002 95.5988Z" fill="#E4DCD1"/>
<path d="M40.1002 88.5L38.2002 97.2H39.3003L39.6002 95.5H41.3003L41.6002 97.2H42.8003L40.9003 88.5H40.1002ZM39.9003 94.6L40.1002 93.5C40.2002 92.9 40.3003 92.3 40.4003 91.8C40.5003 91.3 40.6002 90.7 40.6002 90.2C40.7002 91.3 40.9002 92.3 41.0002 93.2L41.3003 94.6H39.9003Z" fill="#E4DCD1"/>
<path d="M49.5997 89.0988C49.1997 88.5988 48.6998 88.2988 47.9998 88.2988C47.1998 88.2988 46.5998 88.5988 46.2998 89.2988C45.9998 89.8988 45.7998 90.9988 45.7998 92.5988C45.7998 94.2988 45.9998 95.5988 46.2998 96.1988C46.5998 96.8988 47.1997 97.1988 48.0997 97.1988C48.8997 97.1988 49.4998 96.8988 49.7998 96.1988C50.0998 95.5988 50.2998 94.4988 50.2998 92.8988C50.2998 91.7988 50.1997 90.9988 50.0997 90.3988C49.9997 89.9988 49.7997 89.4988 49.5997 89.0988ZM48.7998 95.5988C48.6998 95.9988 48.3998 96.2988 47.9998 96.2988C47.5998 96.2988 47.2997 96.0988 47.1997 95.5988C47.0997 95.0988 46.9998 94.1988 46.9998 92.8988C46.9998 91.4988 47.0997 90.5988 47.1997 90.0988C47.2997 89.5988 47.5998 89.3988 47.9998 89.3988C48.3998 89.3988 48.6998 89.5988 48.7998 90.0988C48.8998 90.5988 48.9998 91.5988 48.9998 93.0988C48.9998 94.3988 48.9998 95.1988 48.7998 95.5988Z" fill="#E4DCD1"/>
<path d="M61.8002 89.1996C61.6002 88.9996 61.3001 88.7996 61.1001 88.6996C60.8001 88.5996 60.4001 88.5996 60.0001 88.5996H58.6001V97.2996H59.6001C60.7001 97.2996 61.5001 97.0996 61.9001 96.6996C62.2001 96.3996 62.5001 95.9996 62.6001 95.3996C62.8001 94.7996 62.8002 93.9996 62.8002 92.9996C62.8002 91.9996 62.7001 91.0996 62.6001 90.5996C62.3001 89.9996 62.1002 89.4996 61.8002 89.1996ZM61.1001 95.5996C60.9001 95.9996 60.4001 96.2996 59.7001 96.2996V89.5996H59.8002C60.4002 89.5996 60.9001 89.8996 61.1001 90.3996C61.3001 90.8996 61.5001 91.7996 61.5001 93.1996C61.5001 94.2996 61.3001 95.0996 61.1001 95.5996Z" fill="#E4DCD1"/>
<path d="M66.2002 97.2H69.3003V96.2H67.4003V93.3H69.1002V92.3H67.4003V89.5H69.3003V88.5H66.2002V97.2Z" fill="#E4DCD1"/>
<path d="M74.8002 92.4984C74.5002 92.1984 74.3001 91.9984 74.2001 91.7984C74.0001 91.5984 73.9002 91.4984 73.8002 91.2984C73.7002 91.0984 73.6001 90.7984 73.6001 90.4984C73.6001 90.1984 73.7001 89.8984 73.9001 89.6984C74.1001 89.4984 74.3001 89.3984 74.7001 89.3984C75.0001 89.3984 75.3001 89.4984 75.7001 89.7984V88.6984C75.3001 88.4984 74.9001 88.3984 74.5001 88.3984C73.9001 88.3984 73.4001 88.5984 73.1001 88.9984C72.7001 89.3984 72.6001 89.8984 72.6001 90.5984C72.6001 91.0984 72.7001 91.4984 72.9001 91.8984C73.0001 92.0984 73.1002 92.2984 73.3002 92.4984C73.5002 92.6984 73.7001 92.9984 74.0001 93.2984C74.2001 93.4984 74.4001 93.6984 74.5001 93.7984C74.6001 93.9984 74.7002 94.0984 74.8002 94.1984C74.9002 94.4984 75.0001 94.6984 75.0001 95.0984C75.0001 95.4984 74.9001 95.7984 74.7001 95.9984C74.5001 96.1984 74.3001 96.2984 73.9001 96.2984C73.6001 96.2984 73.2002 96.0984 72.8002 95.7984V96.9984C73.2002 97.2984 73.6001 97.3984 74.1001 97.3984C74.7001 97.3984 75.2001 97.1984 75.6001 96.7984C76.0001 96.3984 76.2001 95.7984 76.2001 95.0984C76.2001 94.5984 76.1001 94.1984 75.9001 93.7984C75.6001 93.3984 75.3002 92.9984 74.8002 92.4984Z" fill="#E4DCD1"/>
<path d="M79.3999 97.2H82.4999V96.2H80.4999V93.3H82.2999V92.3H80.4999V89.5H82.4999V88.5H79.3999V97.2Z" fill="#E4DCD1"/>
<path d="M88.7999 91.7988C88.7999 92.2988 88.7999 92.7988 88.8999 93.2988C88.8999 93.7988 88.9999 94.4988 89.0999 95.0988C88.7999 93.9988 88.4998 92.8988 88.1998 91.8988L86.9999 88.3988H85.8999V97.0988H87.0999L86.9999 93.2988C86.9999 93.1988 86.9999 93.0988 86.9999 92.9988C86.9999 92.8988 86.9999 92.7988 86.9999 92.7988L86.8999 91.6988L86.7999 90.7988C86.7999 90.7988 86.7999 90.6988 86.7999 90.5988C86.7999 90.4988 86.7999 90.3988 86.7999 90.2988C86.7999 90.3988 86.7999 90.4988 86.8999 90.5988C86.8999 90.6988 86.8999 90.6988 86.8999 90.7988C86.9999 91.1988 87.0998 91.5988 87.1998 91.9988C87.2998 92.3988 87.3999 92.7988 87.4999 93.0988L88.7999 96.9988H89.8999V88.2988H88.6998L88.7999 91.7988Z" fill="#E4DCD1"/>
<path d="M95.5997 91.6984C95.5997 91.7984 95.5997 91.8984 95.5997 91.9984C95.5997 92.0984 95.5998 92.1984 95.4998 92.2984L95.2998 93.5984L95.0997 94.5984C95.0997 94.5984 95.0997 94.6984 95.0997 94.7984C95.0997 94.8984 95.0997 94.8984 95.0997 94.9984L94.9998 94.5984C94.9998 94.4984 94.9998 94.2984 94.8998 94.0984C94.8998 93.8984 94.7998 93.6984 94.7998 93.4984L94.5997 92.1984L94.4998 91.5984L93.9998 88.3984H92.7998L94.4998 97.0984H95.3998L97.0997 88.3984H95.9998L95.5997 91.6984Z" fill="#E4DCD1"/>
<path d="M103.9 89.0988C103.5 88.5988 103 88.2988 102.3 88.2988C101.5 88.2988 100.9 88.5988 100.6 89.2988C100.3 89.8988 100.1 90.9988 100.1 92.5988C100.1 94.2988 100.3 95.5988 100.6 96.1988C100.9 96.8988 101.5 97.1988 102.4 97.1988C103.2 97.1988 103.8 96.8988 104.1 96.1988C104.4 95.5988 104.6 94.4988 104.6 92.8988C104.6 91.7988 104.5 90.9988 104.4 90.3988C104.3 89.9988 104.2 89.4988 103.9 89.0988ZM103.2 95.5988C103.1 95.9988 102.8 96.2988 102.4 96.2988C102 96.2988 101.7 96.0988 101.6 95.5988C101.5 95.0988 101.4 94.1988 101.4 92.8988C101.4 91.4988 101.5 90.5988 101.6 90.0988C101.7 89.5988 102 89.3988 102.4 89.3988C102.8 89.3988 103.1 89.5988 103.2 90.0988C103.3 90.5988 103.4 91.5988 103.4 93.0988C103.4 94.3988 103.3 95.1988 103.2 95.5988Z" fill="#E4DCD1"/>
<path d="M109.3 88.5H108.1V97.2H111.2V96.2H109.3V88.5Z" fill="#E4DCD1"/>
<path d="M116 91.6984C116 91.7984 116 91.8984 116 91.9984C116 92.0984 116 92.1984 115.9 92.2984L115.7 93.5984L115.5 94.5984C115.5 94.5984 115.5 94.6984 115.5 94.7984C115.5 94.8984 115.5 94.8984 115.5 94.9984L115.4 94.5984C115.4 94.4984 115.4 94.2984 115.3 94.0984C115.3 93.8984 115.2 93.6984 115.2 93.4984L115 92.1984L114.9 91.5984L114.4 88.3984H113.2L114.9 97.0984H115.8L117.5 88.3984H116.4L116 91.6984Z" fill="#E4DCD1"/>
<path d="M121.8 88.5H120.6V97.2H121.8V88.5Z" fill="#E4DCD1"/>
<path d="M129.2 88.5L128.5 92L128.4 92.6L128.3 93.6L128.1 94.6C128.1 94.6 128.1 94.6 128.1 94.7V94.8C128 94.3 128 93.8 127.9 93.4C127.8 93 127.7 92.5 127.6 92.1L126.8 88.5H125.8L125.1 97.2H126.2L126.5 91.2C126.6 91.7 126.6 92.2 126.7 92.6C126.8 93 126.9 93.5 127 93.9L127.7 97.2H128.5L129.2 93.4L129.3 93.1L129.4 92.3C129.4 92.2 129.4 92.1 129.5 91.9C129.5 91.7 129.6 91.6 129.6 91.4V91.2V91.3V92.4L129.7 93.6C129.7 93.7 129.7 93.8 129.7 93.9C129.7 94 129.7 94.1 129.7 94.3L129.9 97.3H131L130.2 88.6H129.2V88.5Z" fill="#E4DCD1"/>
<path d="M134.4 97.2H137.5V96.2H135.5V93.3H137.3V92.3H135.5V89.5H137.5V88.5H134.4V97.2Z" fill="#E4DCD1"/>
<path d="M143.8 91.7988C143.8 92.2988 143.8 92.7988 143.9 93.2988C143.9 93.7988 144 94.4988 144.1 95.0988C143.8 93.9988 143.5 92.8988 143.2 91.8988L142 88.3988H140.9V97.0988H142.1L142 93.2988C142 93.1988 142 93.0988 142 92.9988C142 92.8988 142 92.7988 142 92.7988L141.9 91.6988L141.8 90.7988C141.8 90.7988 141.8 90.6988 141.8 90.5988C141.8 90.4988 141.8 90.3988 141.8 90.2988C141.8 90.3988 141.8 90.4988 141.9 90.5988C141.9 90.6988 141.9 90.6988 141.9 90.7988C142 91.1988 142.1 91.5988 142.2 91.9988C142.3 92.3988 142.4 92.7988 142.5 93.0988L143.8 96.9988H144.9V88.2988H143.7L143.8 91.7988Z" fill="#E4DCD1"/>
<path d="M147.9 89.5H149.3V97.2H150.4V89.5H151.8V88.5H147.9V89.5Z" fill="#E4DCD1"/>
<path d="M158.5 89.0988C158.1 88.5988 157.6 88.2988 156.9 88.2988C156.1 88.2988 155.5 88.5988 155.2 89.2988C154.9 89.8988 154.7 90.9988 154.7 92.5988C154.7 94.2988 154.9 95.5988 155.2 96.1988C155.5 96.8988 156.1 97.1988 157 97.1988C157.8 97.1988 158.4 96.8988 158.7 96.1988C159 95.4988 159.2 94.4988 159.2 92.8988C159.2 91.7988 159.1 90.9988 159 90.3988C158.9 89.9988 158.7 89.4988 158.5 89.0988ZM157.7 95.5988C157.6 95.9988 157.3 96.2988 156.9 96.2988C156.5 96.2988 156.2 96.0988 156.1 95.5988C156 95.0988 155.9 94.1988 155.9 92.8988C155.9 91.4988 156 90.5988 156.1 90.0988C156.2 89.5988 156.5 89.3988 156.9 89.3988C157.3 89.3988 157.6 89.5988 157.7 90.0988C157.8 90.5988 157.9 91.5988 157.9 93.0988C157.9 94.3988 157.9 95.1988 157.7 95.5988Z" fill="#E4DCD1"/>
<path d="M37.1002 39.0992C126.9 55.8992 162.3 40.7992 162.3 40.7992C162.3 40.7992 159.9 30.5992 159.8 20.2992C118.4 32.4992 79.6002 20.9992 42.5002 15.4992C9.00023 12.7992 0.100209 41.8992 0.100209 41.8992V59.8992C0.000209386 59.8992 12.4002 36.2992 37.1002 39.0992ZM147.1 33.0992L148.3 29.7992L150.2 32.7992L153.7 32.8992L151.5 35.5992L152.5 38.9992L149.2 37.6992L146.3 39.6992L146.5 36.1992L143.7 34.0992L147.1 33.0992Z" fill="#E4DCD1"/>
</svg>
