<svg width="176" height="63" viewBox="0 0 176 63" fill="none" xmlns="http://www.w3.org/2000/svg">
<path d="M7.60004 6.5H15.1L10.1 23.8H20.8L19.1 29.9H0.800049L7.60004 6.5Z" fill="#E4DCD1"/>
<path d="M28.9001 6.5H36.5001L29.7001 29.8H22.1001L28.9001 6.5Z" fill="#E4DCD1"/>
<path d="M48 24.5004C47.8 24.5004 47 24.7004 46.6 24.7004C44 24.7004 42.8 23.2004 43.3 19.9004C43.9 14.9004 46.6 11.5004 50 11.5004C52.7 11.5004 54 13.2004 53.6 16.4004C53.3 18.5004 53.2 19.8004 52.2 21.2004L50.3 18.6004L46.1 21.5004L48 24.5004ZM53.4001 32.0004L57.6 29.0004L55.9001 25.9004C58.9001 23.3004 60.2 21.0004 60.8 16.9004C61.8 10.2004 58.0001 5.90039 50.9001 5.90039C47.0001 5.90039 43.4 7.30039 40.6 9.90039C38 12.3004 36.4001 15.7004 35.9001 19.2004C34.9001 26.4004 38.6 30.5004 46 30.5004C47.4 30.5004 49.5 29.9004 51.3 29.3004L53.4001 32.0004Z" fill="#E4DCD1"/>
<path d="M75.1001 6.5004L71.1001 20.3004C71.0001 20.6004 70.9002 21.0004 70.9002 21.3004C70.6002 23.4004 71.5001 24.5004 73.6001 24.5004C76.3001 24.5004 77.4001 23.3004 78.2001 20.3004L82.3001 6.40039H89.8001L85.7001 20.6004C83.8001 27.4004 80.1002 30.4004 72.9002 30.4004C65.9002 30.4004 62.6002 27.3004 63.4002 21.4004C63.5002 20.6004 63.7001 19.7004 64.0001 18.8004L67.7002 6.40039H75.2001L75.1001 6.5004Z" fill="#E4DCD1"/>
<path d="M94.4001 6.5H102L95.2001 29.8H87.6001L94.4001 6.5Z" fill="#E4DCD1"/>
<path d="M117.8 28C115.9 29.6 113.6 30.4 111 30.4C104.8 30.4 101.1 26.4 102.3 19.6C102.9 15.8 104.5 12.4 106.9 10.1C109.8 7.30001 113.1 6 117.1 6C123.6 6 127 9.00001 126.9 14.7H119.9C119.8 12.9 118.5 11.8 116.5 11.8C113.2 11.8 110.5 15 109.8 20C109.4 23.2 110.6 24.9 113.3 24.9C115.1 24.9 116.7 24 117.9 22.3H114.6L116.2 17H126.5L122.7 30H117.9L117.8 28Z" fill="#E4DCD1"/>
<path d="M137.2 21.9L142.4 13.7L142.1 21.9H137.2ZM141.7 4.70001H146.2L152.6 0H146L141.7 4.70001ZM125.2 29.8H132.9L134.5 26.4H142L142.2 29.8H149.7L148.2 6.5H140.7L125.2 29.8Z" fill="#E4DCD1"/>
<path d="M160.2 22.4008C160 24.2008 160.8 24.9008 163 24.9008C164.7 24.9008 166 24.4008 166.1 23.2008C166.3 21.8008 164.4 21.1008 161.9 20.6008C156.9 19.6008 154.6 17.6008 155.1 13.9008C155.7 9.50079 160.8 5.80078 166.8 5.80078C172.8 5.80078 176.5 7.30078 175.8 13.3008H168.7C168.7 11.8008 167.8 11.0008 166 11.0008C164.7 11.0008 163.8 11.7008 163.7 12.6008C163.5 14.0008 164.8 14.1008 168.4 15.1008C172.2 16.1008 175 17.7008 173.8 22.4008C171.9 27.0008 168.4 30.1008 161.9 30.1008C155.1 30.1008 151.7 27.3008 152.4 22.3008H160.2V22.4008Z" fill="#E4DCD1"/>
<path d="M31.0001 48.8984H33.1001C33.5001 48.8984 33.9001 49.1984 33.9001 49.5984C33.9001 50.1984 33.4001 50.5984 32.8001 50.5984H30.6001L31.0001 48.8984Z" fill="#E4DCD1"/>
<path d="M41.3001 48.8984H43.3001C44.3001 48.8984 44.3001 49.4985 44.3001 49.6985C44.3001 50.0985 44.0001 50.8984 42.8001 50.8984H40.8001C40.7001 50.9984 41.3001 48.8984 41.3001 48.8984Z" fill="#E4DCD1"/>
<path d="M30.1 52.3984H31.9C32.8 52.3984 32.9 52.5984 32.9 52.7984C33 52.9984 33 53.3984 32.9 53.5984C32.8 53.7984 32.6 54.3984 31.5 54.3984H29.5L30.1 52.3984Z" fill="#E4DCD1"/>
<path d="M49.1001 47.0996V62.9996H24.1001V47.0996H28.9001L26.2001 56.2996H31.6001C33.9001 56.2996 34.3001 55.7996 34.8001 55.2996C35.4001 54.7996 35.8001 53.4996 35.5001 52.5996C35.3001 51.9996 34.7001 51.5996 34.6001 51.5996C35.4001 51.2996 35.8001 50.4996 35.8001 50.3996C36.1001 49.8996 36.3001 48.7996 35.6001 47.9996C35.1001 47.2996 34.0001 47.0996 33.1001 47.0996H38.9001L36.2001 56.3996H38.9001L39.9001 52.8996H41.5001C42.6001 52.8996 42.5001 53.5996 42.5001 53.8996L42.6001 56.4996H45.1001C45.1001 56.4996 45.0001 53.5996 45.0001 53.3996C45.0001 52.5996 44.5001 52.2996 44.0001 52.2996C44.8001 52.0996 45.5001 51.2996 45.8001 50.8996C46.1001 50.3996 46.3001 49.4996 46.1001 48.5996C45.6001 47.3996 44.5001 47.1996 43.6001 47.1996L49.1001 47.0996Z" fill="#E4DCD1"/>
<path d="M24.1001 44.7992H49.1001V38.6992H24.1001V44.7992Z" fill="#E4DCD1"/>
<path d="M88.3001 48.3992L88.7001 47.1992H88.3001H80.2001L79.6001 49.5992H82.2001L80.3001 56.3992H83.3001L85.3001 49.5992H88.0001L88.3001 48.3992Z" fill="#E4DCD1"/>
<path d="M94.9001 47.1992H93.9001H90.5001L88.2001 55.1992L87.9001 56.3992H88.2001H90.9001L91.8001 53.1992H92.7001C93.2001 53.1992 93.6001 53.2992 93.8001 53.3992C94.1001 53.5992 94.1001 54.0992 93.9001 54.7992C93.9001 54.8992 93.9001 54.8992 93.8001 54.8992C93.6001 55.6992 93.5001 56.0992 93.5001 56.2992H93.8001H96.6001L96.7001 55.9992C96.4001 55.9992 96.5001 55.5992 96.8001 54.3992C97.3001 52.4992 96.8001 52.2992 95.9001 51.8992C97.1001 51.5992 97.8001 50.6992 98.1001 49.5992C98.8001 48.0992 98.0001 47.1992 94.9001 47.1992ZM95.3001 50.2992C95.2001 50.7992 94.7001 51.0992 93.9001 51.1992C93.8001 51.1992 93.8001 51.1992 93.6001 51.1992H92.4001L92.9001 49.2992H93.9001H94.4001C95.1001 49.3992 95.6001 49.5992 95.3001 50.2992Z" fill="#E4DCD1"/>
<path d="M68.2002 56.3992H75.9002L76.5002 54.1992H71.8002L72.2002 52.7992H76.1002L76.6002 50.6992H72.8002L73.2002 49.3992H77.7002L78.3002 47.1992H70.8002L68.2002 56.3992Z" fill="#E4DCD1"/>
<path d="M65 47.1992H63.8H60.6L58 56.3992H61L61.8 53.4992H63.3C63.4 53.4992 63.6 53.4992 63.8 53.4992C66.1 53.3992 67.5 52.0992 68.1 50.2992C68.6 48.3992 67.6 47.1992 65 47.1992ZM65.2 50.2992C65 51.0992 64.4 51.2992 63.8 51.3992C63.7 51.3992 63.7 51.3992 63.7 51.3992H62.5L63 49.2992H63.8C64.5 49.3992 65.4 49.3992 65.2 50.2992Z" fill="#E4DCD1"/>
<path d="M136.9 47.1992L136.7 47.4992L131.1 56.0992L130.9 56.3992H131.1H133.9L134.6 55.1992H136.7H137.7V56.3992H140.7L140 47.1992H136.9ZM136.7 53.2992H135.7L136.7 51.5992L137.7 49.9992V53.2992H136.7Z" fill="#E4DCD1"/>
<path d="M152 49.7988C152.2 48.1988 151.5 46.7988 148.9 46.7988C146.6 46.7988 144.6 47.7988 144 49.7988C143 53.2988 148.6 52.2988 148.2 53.7988C148.1 54.1988 147.5 54.4988 146.8 54.4988C146.5 54.4988 146.2 54.3988 146 54.2988C145.8 54.1988 145.7 53.8988 145.7 53.4988H142.8C142.4 55.0988 143.6 56.5988 146 56.5988C148.5 56.5988 150.6 55.5988 151.2 53.3988C152.2 49.9988 146.6 50.8988 147 49.4988C147.1 49.1988 147.4 48.9988 148.1 48.9988C148.4 48.9988 148.6 49.0988 148.9 49.0988C149.1 49.1988 149.2 49.3989 149.2 49.6989L152 49.7988Z" fill="#E4DCD1"/>
<path d="M117.3 47.1992H115.4H112.9L110.3 56.3992H114.8C115 56.3992 115.2 56.3992 115.4 56.3992C117.5 56.2992 119 55.4992 119.6 53.6992C119.9 52.6992 119.6 51.7992 118.6 51.5992C119.3 51.2992 120.1 50.5992 120.4 49.5992C120.9 47.6992 119.4 47.1992 117.3 47.1992ZM116.8 53.3992C116.6 54.0992 116 54.1992 115.4 54.1992C115.3 54.1992 115.3 54.1992 115.3 54.1992H114L114.5 52.4992H115.5C116.3 52.5992 117 52.5992 116.8 53.3992ZM117.4 50.0992C117.3 50.5992 116.7 50.8992 116.1 50.8992H115.3H114.8L115.2 49.3992H115.3H116.3C117 49.3992 117.6 49.3992 117.4 50.0992Z" fill="#E4DCD1"/>
<path d="M106 47C105.5 47 105 47.1 104.6 47.1C102.3 47.6 100.5 49.3 99.8002 51.7C98.9002 54.9 100.3 56.6 103.2 56.6C103.7 56.6 104.2 56.5 104.6 56.5C106.8 56 108.7 54.4 109.5 51.8C110.1 49.3 109.3 47 106 47ZM106.4 51.8C106.1 53 105.4 54 104.5 54.3C104.3 54.4 104 54.4 103.7 54.4C102.3 54.4 102.3 53 102.7 51.7C103 50.7 103.5 49.6 104.5 49.3C104.7 49.2 105 49.2 105.2 49.2C106.6 49.1 106.7 50.5 106.4 51.8Z" fill="#E4DCD1"/>
<path d="M131.1 49.9992C131.1 49.8992 131.2 49.8992 131.2 49.7992C131.4 49.0992 131.4 48.5992 131.1 48.1992C130.7 47.5992 129.7 47.1992 127.8 47.1992H126.8H123.4L120.8 56.3992H123.8L124.8 53.1992H125.7C126.2 53.1992 126.6 53.2992 126.8 53.3992C127.1 53.5992 127.1 54.0992 126.9 54.7992C126.9 54.8992 126.9 54.8992 126.8 54.8992C126.6 55.6992 126.5 56.0992 126.5 56.2992H126.8H129.6L129.7 55.9992C129.4 55.9992 129.5 55.5992 129.8 54.3992C130.3 52.4992 129.8 52.2992 128.9 51.8992C130.1 51.7992 130.8 50.9992 131.1 49.9992ZM128.3 50.2992C128.2 50.7992 127.7 51.0992 126.9 51.1992C126.8 51.1992 126.8 51.1992 126.6 51.1992H125.4L125.9 49.2992H126.9H127.4C128 49.3992 128.4 49.5992 128.3 50.2992Z" fill="#E4DCD1"/>
</svg>
