<svg width="137" height="76" viewBox="0 0 137 76" fill="none" xmlns="http://www.w3.org/2000/svg">
<path d="M38.1001 54.4996C37.8001 51.6996 39.0002 48.8996 39.4002 45.9996C39.8002 43.1996 41.1001 40.7996 42.2001 38.1996C43.8001 34.1996 45.7001 30.2996 47.5001 26.3996C47.8001 25.7996 48.1001 25.1996 48.2001 24.4996C48.7001 22.7996 49.9002 21.5996 51.4002 20.6996C52.8002 19.8996 54.2001 18.8996 55.6001 18.1996C57.5001 17.2996 59.1001 17.9996 59.6001 19.8996C60.4001 23.0996 60.8001 26.4996 61.8001 29.6996C62.5001 31.7996 62.7001 34.0996 63.0001 36.2996C63.4001 39.9996 64.2001 43.5996 65.7001 47.0996C66.7001 49.5996 67.3001 52.0996 68.3001 54.5996C68.6001 55.4996 67.9001 56.5996 66.8001 56.7996C64.8001 57.1996 62.7001 57.4996 60.7001 57.8996C58.6001 58.3996 56.5002 58.5996 54.4002 58.4996C52.8002 58.3996 51.3001 58.6996 49.7001 58.5996C48.0001 58.4996 46.3001 58.5996 44.6001 59.1996C43.5001 59.5996 42.2001 59.6996 41.1001 59.9996C40.0001 60.2996 38.2001 58.7996 38.2001 57.4996C38.1001 56.6996 38.1001 55.7996 38.1001 54.4996Z" fill="#E4DCD1"/>
<path d="M110.6 44.4996C110.2 46.4996 111.2 48.5996 112.8 50.3996C113.7 51.3996 113.5 52.0996 112 52.4996C110.6 52.8996 109.2 52.9996 107.7 53.2996C104.9 53.8996 101.9 54.1996 99 54.5996C94.9 55.1996 90.8 54.9996 86.8 55.3996C85.2 55.5996 83.7 55.9996 82.1 55.8996C81.6 55.8996 81.1 56.0996 80.9 55.5996C80.7 55.0996 81.1 54.6996 81.4 54.2996C82.6 52.4996 83.9 50.7996 85 49.0996C86.6 46.6996 88.3 44.3996 89.8 41.9996C90.7 40.6996 92 39.6996 93 38.4996C95.5 35.5996 98.1 32.6996 100.8 29.8996C101.8 28.6996 103.3 27.7996 104.4 26.7996C105 26.1996 105.5 26.2996 106 26.8996C107.7 28.9996 109.1 31.1996 109.2 33.9996C109.2 35.3996 109.9 36.7996 110.1 38.0996C110.4 39.6996 110.7 41.7996 110.6 44.4996Z" fill="#E4DCD1"/>
<path d="M131.9 39.8002C132.3 36.8002 131 34.0002 130.6 31.1002C130.4 29.5002 129.8 28.0002 129.6 26.4002C129.3 25.0002 128.6 23.6002 127.8 22.2002C126.9 20.6002 126.1 18.8002 125 17.3002C124.7 16.9002 124.9 16.5002 125.5 16.6002C126.9 16.7002 127.3 15.9002 127.2 14.5002C127.1 13.2002 127.1 11.8002 127.2 10.6002C127.3 9.40018 126.6 8.90016 125.6 8.80016C124.9 8.80016 124.2 8.50017 123.5 8.90017C123 9.10017 122.5 8.70018 122.5 8.20018C122.5 6.50018 121.6 5.00018 121.6 3.30018C121.6 2.20018 122.1 1.80018 123.1 1.80018C124.4 1.80018 125.8 1.90018 127 1.80018C129.5 1.60018 132 1.40017 134.5 1.00017C136.5 0.700172 137.1 1.20017 136.9 3.20017C136.8 4.60017 136.5 6.00017 136.6 7.50017C136.6 8.40017 136.3 9.00017 135.2 8.90017C134.3 8.80017 133.5 8.90017 132.6 8.90017C131.7 8.90017 131.5 9.40017 131.6 10.0002C131.8 11.7002 131.7 13.4002 131.7 15.0002C131.7 15.9002 132 16.3002 132.9 16.2002C133.5 16.1002 134 16.2002 134.7 16.2002C135.7 16.1002 135.8 16.7002 135.7 17.4002C135.1 20.9002 135.4 24.5002 135.6 28.0002C135.7 30.3002 136.1 32.5002 136.2 34.6002C136.6 39.5002 135.4 44.4002 135.6 49.3002C135.6 50.1002 135.3 50.8002 134.5 50.8002C133.6 50.9002 133.6 50.1002 133.4 49.5002C132.6 46.5002 131.7 43.2002 131.9 39.8002Z" fill="#E4DCD1"/>
<path d="M13.5002 69.5002C13.5002 71.0002 13.5002 72.5002 13.5002 74.1002C13.5002 75.2002 12.9002 75.8001 11.8002 75.8001C10.7002 75.8001 10.3002 75.3002 10.5002 74.0002V73.9002C10.4002 73.3002 10.9002 72.3002 10.2002 72.1002C9.4002 71.9002 9.20017 73.0002 8.80017 73.6002C8.60017 73.9002 8.60017 74.3002 8.30017 74.6002C7.70017 75.3002 7.10017 75.4002 6.80017 74.5002C6.50017 73.8002 5.90021 73.5002 5.90021 72.6002C5.90021 72.3002 5.60016 72.0002 5.10016 72.0002C4.70016 72.1002 4.60016 72.4001 4.60016 72.8001C4.60016 73.4001 4.60016 73.9002 4.60016 74.6002C4.60016 75.6002 3.90016 75.8001 3.10016 75.8001C2.30016 75.8001 1.80017 75.5002 1.80017 74.6002C1.80017 71.8002 1.80017 68.9002 1.80017 66.1002C1.80017 65.5002 1.7002 64.9001 1.7002 64.3001C1.7002 64.0001 1.8002 63.6002 2.2002 63.5002C2.6002 63.4002 2.80021 63.8002 2.90021 64.0002C4.00021 65.6002 5.20017 67.1002 6.30017 68.7002C6.60017 69.2002 6.80018 69.8001 7.50018 69.8001C8.20018 69.8001 8.30018 69.1002 8.50018 68.7002C9.50018 67.2002 10.6002 65.7002 11.7002 64.2002C11.9002 63.9002 12.1002 63.3002 12.7002 63.6002C13.3002 63.9002 13.3002 64.4001 13.3002 64.8001C13.5002 66.3001 13.5002 67.9002 13.5002 69.5002Z" fill="#E4DCD1"/>
<path d="M118.9 69.4005C118.9 70.9005 118.9 72.4005 118.9 74.0005C118.9 74.7005 118.8 75.0005 118 75.0005C117.2 75.0005 116.9 74.6005 116.9 74.0005C116.9 72.4005 116.9 70.8005 116.9 69.2005C116.9 68.9005 117.4 68.4005 116.8 68.3005C116.2 68.2005 115.9 68.7005 115.7 69.1005C115.3 70.0005 115.1 70.8005 114.9 71.8005C114.6 72.7005 114.3 73.4005 114 74.3005C113.7 75.0005 113.5 75.2005 112.8 75.2005C112 75.2005 111.6 74.9005 111.4 74.3005C111 73.2005 110.5 72.1005 110.4 71.0005C110.2 69.9005 109.6 69.0005 109.3 68.0005C109.2 67.7005 108.9 67.5005 108.5 67.6005C108 67.7005 108.2 68.1005 108.2 68.4005C108.5 70.2005 108.4 71.9005 108.5 73.7005C108.5 74.5005 108.5 75.1005 107.6 75.3005C106.5 75.4005 106.4 74.5005 106.4 73.8005C106.3 71.0005 106.4 68.0005 106.4 65.2005C106.4 64.3005 106.9 63.9005 107.7 64.1005C108.2 64.2005 108.6 63.9005 108.9 64.0005C109.9 64.0005 110.4 64.7005 110.6 65.7005C110.9 67.6005 111.7 69.4005 112.2 71.3005C112.3 71.6005 112.4 71.9005 112.8 71.9005C113.2 71.8005 113.3 71.6005 113.4 71.3005C113.9 69.5005 114.4 67.7005 114.9 65.9005C115.3 64.5005 116.9 63.6005 118.2 64.1005C118.8 64.3005 119 64.7005 119 65.2005C118.9 66.3005 118.9 67.8005 118.9 69.4005Z" fill="#E4DCD1"/>
<path d="M64.6 68.4002C67.5 68.4002 67.4 68.2002 67.4 71.2002C67.4 72.4002 67.6 73.9002 66.3 74.6002C64.9 75.5002 63.3 76.0002 61.5 75.7002C58.7 75.2002 56.8 73.3002 56.2 70.6002C55.7 68.4002 57.1 65.5002 59 64.3002C61.5 62.8002 63.8 63.1002 66.3 64.5002C67 64.9002 67.1 65.3002 66.7 65.8002C66.4 66.3002 66.2 67.2002 65.2 66.7002C64.4 66.3002 63.6 66.1002 62.6 66.0002C60.1 65.7002 59.1 68.2002 59.3 69.9002C59.5 72.4002 61.5 73.2002 62.9 73.1002C63.7 73.0002 64.1 72.7002 64.1 71.9002C64.1 71.1002 63.7 70.8002 62.9 70.9002C62 71.0002 61.7 70.4002 61.7 69.7002C61.7 68.8002 62 68.4002 62.8 68.4002C63.5 68.4002 64 68.4002 64.6 68.4002Z" fill="#E4DCD1"/>
<path d="M51.9 66.1994C51.9 65.8994 51.9 65.5994 51.9 65.2994C51.9 64.3994 51.5999 63.3994 53.1999 63.4994C54.6999 63.5994 55 63.7994 54.9 65.3994C54.8 67.1994 54.4999 68.9994 54.5999 70.7994C54.6999 71.8994 54.8 73.1994 54.9 74.2994C54.9 74.7994 54.9 75.2994 54.4 75.5994C53.8 75.8994 53.4999 75.3994 53.0999 74.9994C51.8999 73.6994 50.6 72.1994 49.4 70.8994C49.1 70.5994 48.8999 70.3994 48.4999 70.4994C48.0999 70.5994 48.1999 70.9994 48.1999 71.2994C48.1999 72.1994 48.1999 73.1994 48.1999 74.0994C48.1999 75.1994 47.3999 75.7994 46.2999 75.6994C45.2999 75.5994 45.1999 74.8994 45.0999 73.9994C44.7999 70.9994 45 67.9994 44.9 65.0994C44.9 64.3994 44.7999 63.7994 45.4999 63.4994C46.1999 63.1994 46.5 63.9994 46.9 64.3994C48.1 65.6994 49.3 67.0994 50.4 68.2994C50.7 68.5994 51 68.9994 51.4 68.7994C51.9 68.5994 51.5999 68.0994 51.6999 67.7994C51.8999 67.1994 51.9 66.6994 51.9 66.1994Z" fill="#E4DCD1"/>
<path d="M124 75.0001C120.8 75.0001 120.8 75.0001 120.8 71.8001C120.8 69.5001 120.8 67.2001 120.8 65.0001C120.8 64.1001 120.9 63.9001 121.9 63.9001C123.3 63.9001 124.8 64.2001 126.3 63.8001C126.9 63.7001 127.2 64.3002 127.3 64.7002C127.5 65.3002 127 65.6001 126.5 65.6001C125.8 65.7001 125.2 65.6001 124.5 65.5001C123 65.3001 122.1 66.4001 122.8 67.9001C123 68.3001 123.3 68.4001 123.7 68.4001C124.5 68.4001 125.1 68.4001 125.9 68.4001C126.7 68.3001 126.9 68.7001 126.9 69.4001C126.8 70.2001 126.4 70.4001 125.8 70.3001C125.5 70.3001 125.3 70.1001 125 70.1001C123.1 69.8001 122.2 71.1001 122.8 72.9001C123 73.4001 123.4 73.4001 123.7 73.4001C124.6 73.4001 125.6 73.4001 126.5 73.4001C127.1 73.4001 127.4 73.6001 127.4 74.3001C127.4 74.9001 127.2 75.2002 126.5 75.2002C125.7 75.0002 124.8 75.0001 124 75.0001Z" fill="#E4DCD1"/>
<path d="M132.9 63.6C133.7 63.7 134.5 63.4 135.2 64.2C135.5 64.5 135.7 64.8 135.4 65.1C135.2 65.4 134.9 65.8 134.5 65.5C133.8 65.2 133.2 65.4 132.5 65.3C131.8 65.2 131.6 65.8 131.4 66.2C131.2 66.7 131.3 67.1 131.8 67.5C132.4 68.1 133.2 68.3 133.9 68.6C135.9 69.7 136.5 70.5 136.2 72.4C136 73.6 134.7 74.8 133 75.1C132.1 75.3 131 75.2 130 74.9C129.3 74.7 129.1 74.2 129.1 73.6C129.3 72.8 129.8 72.7 130.4 73.1C131.2 73.5 132 73.5 132.9 73.1C133.9 72.6 134.1 71.8 133.3 70.9C132.6 70.2 131.9 70.1 131.1 69.8C129.3 68.9 128.6 68.1 129 66C129.3 64.6 130.9 63.5 132.6 63.5C132.7 63.6 132.8 63.6 132.9 63.6Z" fill="#E4DCD1"/>
<path d="M29.5002 63.6C30.4002 63.7 31.5002 63.1 31.8002 64.6C31.8002 64.8 32.0002 65.1 31.8002 65.2C30.4002 66.7 31.2002 68.6 31.0002 70.3C30.8002 71.6 31.0002 73 31.3002 74.3C31.5002 75.2 30.9002 75.7 30.0002 75.7C29.8002 75.7 29.6002 75.7 29.3002 75.7C27.1002 75.7 26.7001 75.1 27.6001 73.1C27.9001 72.3 27.7002 71.5 27.7002 70.7C27.7002 69.6 27.7002 68.3 27.7002 67.2C27.7002 66.7 27.6002 66.3 27.3002 65.9C26.4002 64.4 26.8001 63.5 28.6001 63.5C28.9001 63.6 29.2002 63.6 29.5002 63.6Z" fill="#E4DCD1"/>
<path d="M85.4001 69.4003C85.4001 68.0003 85.4001 66.6003 85.4001 65.1003C85.4001 64.2003 85.8001 63.8003 86.6001 63.8003C87.9001 63.8003 89.3001 64.0003 90.6001 63.8003C91.4001 63.7003 92.0001 64.1003 91.9001 64.9003C91.8001 65.8003 91.0001 65.8003 90.3001 65.7003C89.9001 65.6003 89.5001 65.6003 89.2001 65.5003C88.4001 65.4003 87.7001 65.6003 87.7001 66.5003C87.6001 68.0003 88.0001 68.5003 89.2001 68.5003C89.7001 68.5003 90.2001 68.5003 90.7001 68.5003C91.3001 68.4003 91.6001 68.8003 91.6001 69.2003C91.7001 69.6003 91.4001 70.0003 91.0001 70.1003C90.4001 70.4003 90.0001 70.3003 89.4001 70.2003C88.1001 69.9003 87.3001 70.6003 87.7001 71.8003C87.9001 72.5003 87.9001 73.1003 87.9001 73.8003C87.9001 74.7003 87.8001 75.1003 86.8001 75.1003C85.9001 75.1003 85.5001 74.6003 85.5001 73.8003C85.4001 72.2003 85.4001 70.8003 85.4001 69.4003Z" fill="#E4DCD1"/>
<path d="M98.1001 69.2993C98.1001 67.7993 98.1001 66.2993 98.1001 64.6993C98.1001 63.7993 98.5001 63.6993 99.2001 63.5993C100 63.4993 100.4 63.8993 100.3 64.4993C100.2 66.9993 100.6 69.2993 100.1 71.7993C99.9001 72.6993 100.2 73.1993 101.2 73.0993C102.1 72.9993 102.9 73.0993 103.8 73.0993C104.5 73.0993 104.7 73.3993 104.7 73.9993C104.7 74.6993 104.4 74.8993 103.8 74.8993C102.3 74.8993 100.7 74.8993 99.1001 74.8993C98.3001 74.8993 98.1001 74.5993 98.1001 73.8993C98.1001 72.3993 98.1001 70.8993 98.1001 69.2993Z" fill="#E4DCD1"/>
<path d="M95.0002 75.1008C94.1002 75.2008 93.8002 74.4008 93.9002 73.7008C94.2002 70.8008 94.2002 67.7008 93.9002 64.8008C93.8002 64.0008 94.5002 63.8008 95.2002 63.8008C96.1002 63.8008 96.4002 64.5008 96.3002 65.1008C96.0002 67.7008 96.2002 70.1008 96.1002 72.7008C96.1002 73.1008 96.2002 73.4008 96.3002 73.6008C96.4002 74.4008 96.1002 75.1008 95.0002 75.1008Z" fill="#E4DCD1"/>
<path d="M25.9001 15.2999C25.9001 13.2999 26.1001 11.5999 26.0001 9.79991C25.9001 9.09991 25.7001 8.89991 25.0001 8.89991C23.8001 8.89991 22.4001 8.89991 21.2001 8.89991C20.3001 8.89991 19.9001 9.29993 19.9001 10.0999C19.9001 11.5999 19.9001 13.1999 19.9001 14.7999C19.9001 15.7999 20.6001 16.1999 21.4001 16.1999C22.4001 16.1999 23.5 16.1999 24.6 16.1999C24.8 16.5999 24.4 16.6999 24.1 16.8999C21.4 18.9999 19.7001 21.7999 17.5001 24.1999C14.8001 26.9999 12.8 30.1999 10.1 32.8999C9.10003 33.8999 8.60008 35.3999 7.90008 36.6999C6.00008 40.5999 4.20008 44.4999 2.40008 48.3999C2.20008 48.8999 1.80004 49.2999 1.30004 49.1999C0.700044 48.9999 0.300081 48.3999 0.400081 47.6999C0.500081 47.2999 0.600069 46.7999 0.700069 46.4999C1.10007 44.2999 1.10007 41.9999 1.20007 39.7999C1.30007 34.9999 2.10006 30.0999 2.00006 25.2999C1.90006 22.6999 1.80004 20.1999 1.30004 17.5999C1.10004 16.6999 1.60006 16.2999 2.50006 16.2999C4.50006 16.1999 4.60003 16.0999 4.60003 13.9999C4.60003 12.7999 4.60003 11.4999 4.60003 10.2999C4.60003 9.29991 4.20007 8.79991 3.20007 8.89991C2.80007 8.89991 2.30006 8.89991 2.00006 8.89991C1.60006 8.89991 1.10003 8.79991 1.10003 8.29991C1.10003 7.19991 0.600044 6.09993 0.800044 5.09993C1.00004 3.89993 1.50004 3.39991 2.80004 3.39991C5.40004 3.39991 7.90008 3.29991 10.4001 3.39991C14.9001 3.59991 19.3 3.79992 23.8 3.99992C27.3 4.19992 30.8001 4.49991 34.2001 4.39991C35.1001 4.39991 35.5001 4.79991 35.9001 5.39991C36.3001 6.09991 35.6 6.29992 35.3 6.79992C33.8 8.69992 31.7001 10.0999 29.9001 11.8999C28.5001 12.9999 27.3001 14.0999 25.9001 15.2999ZM9.00006 12.5999C9.00006 13.4999 9.00006 14.3999 9.00006 15.2999C9.00006 16.0999 9.50004 16.5999 10.3 16.4999C11.4 16.3999 12.5001 16.3999 13.5001 16.4999C14.4001 16.5999 15.1 16.0999 15.1 15.0999C15.1 13.4999 15.1001 11.7999 14.9001 10.1999C14.8001 9.29993 14.5001 8.99993 13.7001 9.09993C12.5001 9.09993 11.2001 9.09993 10.0001 9.09993C9.10006 9.09993 8.80004 9.59991 8.80004 10.2999C8.90004 10.8999 9.00006 11.6999 9.00006 12.5999Z" fill="#E4DCD1"/>
<path d="M112.3 3C112 2.2 111.3 2.6 110.7 2.6C107.4 2.8 104.1 3.29999 100.6 3.39999C98.3001 3.49999 96.0001 3.7 93.9001 4C89.9001 4.5 86.0001 4.7 82.0001 4.5C77.4001 4.4 72.9001 3.79999 68.2001 3.89999C67.7001 3.89999 67.3001 3.9 66.8001 3.8C65.9001 3.5 65.2001 3.99999 64.8001 4.69999C64.4001 5.39999 64.7001 6 65.2001 6.6C67.2001 9 69.2001 11.4 71.2001 13.9C71.4001 14.2 71.5001 14.8 72.0001 14.5C72.4001 14.3 72.3001 13.8 72.3001 13.5C72.0001 12.5 72.3001 11.4 72.2001 10.4C72.1001 9.49999 72.5001 9.20001 73.3001 9.20001C74.4001 9.20001 75.7001 9.2 76.8001 9C77.7001 8.8 78.6001 9.3 78.4001 10.1C78.1001 11.8 78.5001 13.4 78.5001 15.1C78.5001 16.4 78.1001 16.8 76.8001 16.7C76.1001 16.7 75.5001 16.6 74.8001 16.6C73.7001 16.6 73.6001 16.9 74.0001 17.9C75.0001 20.1 76.0001 22.4 77.0001 24.5C77.8001 26.1 78.3001 27.8 79.4001 29.3C80.1001 30.3 80.6001 30.4 81.6001 29.7C82.6001 28.9 83.5001 28 84.4001 27.1C88.1001 24.1 91.8001 21 95.5001 18C96.1001 17.5 96.9001 17.3 97.0001 16.5C96.5001 16.1 96.1001 16.4 95.6001 16.4C94.5001 16.5 93.9001 16 93.9001 14.9C93.9001 13.4 93.9001 12 93.9001 10.4C93.9001 9.49999 94.3001 9 95.2001 9.1C96.4001 9.2 97.7001 9.1 98.9001 9.1C99.8001 9.1 100 9.40001 100 10.2C100 11.4 100 12.7 100 13.9C100.3 13.9 100.6 14 100.8 13.7C104.1 10.5 107.7 7.69999 111.3 4.89999C112.1 4.19999 112.7 3.7 112.3 3ZM87.7001 16.4C86.8001 16.2 85.9001 16.3 84.9001 16.4C83.5001 16.5 83.0001 15.9 83.1001 14.5C83.1001 13.8 83.1001 13.3 83.1001 12.6C83.1001 11.8 83.1001 11.1 83.1001 10.3C83.1001 9.39998 83.4001 8.99999 84.3001 8.89999C85.5001 8.89999 86.9001 8.79998 88.1001 8.79998C88.9001 8.79998 89.2001 9.09999 89.2001 9.89999C89.2001 11.5 89.3001 13.2 89.2001 14.8C89.3001 16 88.8001 16.6 87.7001 16.4Z" fill="#E4DCD1"/>
<path d="M79.8 74.3994C79.7 74.4994 79.7 74.4994 79.7 74.5994C79.2 75.4994 78.1 75.4994 77.3 75.7994C76.7 75.9994 76.4 75.0994 76.4 74.6994C76.1 73.3994 75.5 73.5994 74.4 73.4994C72.4 73.1994 71.6 73.9994 71.2 75.5994C71.1 75.8994 70.7 76.0994 70.4 75.8994C69.9 75.4994 69.4 75.4994 68.9 75.2994C68.3 74.9994 68 74.6994 68.5 73.8994C69.5 71.9994 70.4 69.9994 71.3 68.0994C71.9 66.8994 72.4 65.4994 73 64.1994C73.4 63.3994 73.9 63.2994 74.6 63.8994C75.2 64.4994 75.4 65.2994 75.6 65.9994C76.6 68.1994 77.6 70.4994 78.7 72.5994C79.1 73.0994 79.1 73.8994 79.8 74.3994ZM73.2 70.1994C73.2 70.6994 73.4 70.9994 74 70.9994C74.5 70.9994 74.7 70.5994 74.6 70.1994C74.5 69.7994 74.6 69.2994 73.9 69.1994C73.3 69.2994 73.2 69.6994 73.2 70.1994Z" fill="#E4DCD1"/>
<path d="M44.4001 74.3997C44.2001 74.5997 44.0001 74.7997 43.8001 74.8997C43.6001 74.9997 43.4001 75.0998 43.2001 75.1998C41.5001 75.8998 41.5001 75.8997 40.7001 74.2997C40.3001 73.4997 39.9001 73.1997 39.1001 73.3997C38.6001 73.4997 38.2001 73.4997 37.7001 73.3997C36.7001 73.2997 36.1001 73.5998 36.0001 74.6998C35.9001 75.3998 35.5001 75.9997 34.9001 75.7997C33.0001 75.2997 32.6001 74.8997 33.1001 73.7997C34.3001 71.0997 35.5001 68.4997 36.8001 65.8997C37.1001 65.1997 37.2001 64.4997 37.7001 63.8997C38.4001 63.1997 38.8001 63.2998 39.2001 64.0998C40.3001 66.4998 41.5001 68.8997 42.6001 71.2997C43.1001 72.1997 43.2001 73.3998 44.0001 74.0998C44.3001 74.0998 44.3001 74.1997 44.4001 74.3997ZM37.7001 70.1998C37.6001 70.6998 37.9001 70.9998 38.5001 70.9998C39.2001 70.9998 39.3001 70.4998 39.2001 70.0998C39.2001 69.5998 39.0001 69.2998 38.4001 69.1998C37.8001 69.2998 37.7001 69.6998 37.7001 70.1998Z" fill="#E4DCD1"/>
<path d="M14.7001 74.0008C14.6001 73.1008 15.2001 72.3008 15.6001 71.6008C16.8001 69.6008 17.6001 67.4008 18.5001 65.3008C18.6001 65.0008 18.7002 64.7008 18.9002 64.5008C19.3002 64.1008 19.4001 63.3008 20.0001 63.3008C20.6001 63.3008 20.9001 64.2008 21.1001 64.6008C22.5001 67.5008 23.9001 70.5008 25.3001 73.5008C25.6001 74.1008 25.8001 74.7008 25.0001 75.1008C23.4001 75.9008 22.8001 75.8008 22.5001 74.6008C22.1001 73.5008 21.6001 73.1008 20.1001 73.1008C18.4001 73.0008 17.5001 73.4008 17.2001 75.0008C17.1001 75.5008 16.7001 75.8008 16.3001 75.5008C15.8001 75.2008 14.4001 75.3008 14.7001 74.0008ZM19.9002 71.0008C20.4002 71.0008 20.8001 70.8008 20.8001 70.3008C20.8001 69.8008 20.6001 69.4008 20.0001 69.4008C19.5001 69.4008 19.3001 69.6008 19.3001 70.1008C19.3001 70.6008 19.2002 70.9008 19.9002 71.0008Z" fill="#E4DCD1"/>
</svg>
