<svg width="153" height="42" viewBox="0 0 153 42" fill="none" xmlns="http://www.w3.org/2000/svg">
<path d="M7.09998 15.9012L1.59998 8.00116V19.9012H0V5.20117H1.69995L7.09998 13.2012L12.5 5.20117H14.2V19.9012H12.5V8.00116L7.09998 15.9012Z" fill="#E4DCD1"/>
<path d="M19.2 5.20117V19.9012H17.5V5.20117H19.2Z" fill="#E4DCD1"/>
<path d="M33.5002 5.20117H35.1002V19.9012H33.8003L24.3003 7.80115V19.9012H22.7002V5.20117H24.3003L33.6002 17.0012L33.5002 5.20117Z" fill="#E4DCD1"/>
<path d="M40.3002 5.20117V19.9012H38.6001V5.20117H40.3002Z" fill="#E4DCD1"/>
<path d="M48.9998 11.7C52.2998 12.4 53.7998 13.6 53.7998 15.9C53.7998 18.4 51.6998 20.1 48.7998 20.1C46.4998 20.1 44.4998 19.3 42.7998 17.7L43.7998 16.5C45.2998 17.9 46.7998 18.6 48.8998 18.6C50.8998 18.6 52.1997 17.6 52.1997 16.1C52.1997 14.7 51.4998 13.9 48.3998 13.3C44.9998 12.6 43.4998 11.5 43.4998 9C43.4998 6.6 45.4998 5 48.2998 5C50.3998 5 51.9998 5.59999 53.4998 6.79999L52.4998 8.10001C51.0998 7.00001 49.7997 6.5 48.1997 6.5C46.2997 6.5 45.0997 7.59999 45.0997 8.89999C45.0997 10.3 45.7998 11 48.9998 11.7Z" fill="#E4DCD1"/>
<path d="M61.7001 19.9012H60.0001V6.70117H55.1001V5.20117H66.7001V6.70117H61.8002L61.7001 19.9012Z" fill="#E4DCD1"/>
<path d="M79.4998 6.70081H70.4998V11.7008H78.4998V13.2008H70.4998V18.4008H79.5997V19.9008H68.7998V5.20081H79.3998V6.70081H79.4998ZM72.9998 3.90079L74.9998 0.800781L76.6997 1.6008L74.2998 3.90079H72.9998Z" fill="#E4DCD1"/>
<path d="M92.3002 19.9012L88.0001 14.2012H83.8002V19.9012H82.1001V5.20117H88.4001C91.6001 5.20117 93.7001 6.90117 93.7001 9.60117C93.7001 12.1012 92.0001 13.5012 89.7001 13.9012L94.2001 19.9012H92.3002ZM88.3002 6.70117H83.8002V12.7012H88.3002C90.5002 12.7012 92.1001 11.6012 92.1001 9.60117C92.1001 7.80117 90.7002 6.70117 88.3002 6.70117Z" fill="#E4DCD1"/>
<path d="M98.3002 5.20117V19.9012H96.6001V5.20117H98.3002Z" fill="#E4DCD1"/>
<path d="M108.6 20.2C104.1 20.2 101.1 16.7 101.1 12.6C101.1 8.50001 104.2 5 108.6 5C113.1 5 116.1 8.50001 116.1 12.6C116.1 16.7 113.1 20.2 108.6 20.2ZM108.6 6.5C105.2 6.5 102.8 9.20001 102.8 12.6C102.8 16 105.2 18.7 108.6 18.7C112 18.7 114.4 16 114.4 12.6C114.4 9.20001 112 6.5 108.6 6.5Z" fill="#E4DCD1"/>
<path d="M129.4 19.9012H124.3V5.20117H129.4C134 5.20117 137.2 8.40116 137.2 12.5012C137.2 16.7012 134 19.9012 129.4 19.9012ZM129.4 6.70117H125.9V18.4012H129.4C133.1 18.4012 135.5 15.9012 135.5 12.6012C135.5 9.30117 133.1 6.70117 129.4 6.70117Z" fill="#E4DCD1"/>
<path d="M152.7 19.9016H150.9L149.2 16.0016H141.2L139.5 19.9016H137.8L144.5 5.10156H146.1L152.7 19.9016ZM145.1 7.00156L141.7 14.5016H148.4L145.1 7.00156Z" fill="#E4DCD1"/>
<path d="M80.7998 39.1L83.0997 36.4C84.5997 37.6 86.1998 38.2 87.8998 38.2C88.9998 38.2 89.5997 37.8 89.5997 37.2C89.5997 36.6 89.0997 36.3 87.0997 35.8C83.9997 35.1 81.4998 34.2 81.4998 31.2C81.4998 28.5 83.6997 26.5 87.1997 26.5C89.6997 26.5 91.6998 27.2 93.2998 28.5L91.2998 31.4C89.9998 30.5 88.4997 29.9 87.1997 29.9C86.1997 29.9 85.6997 30.3 85.6997 30.8C85.6997 31.5 86.1997 31.8 88.1997 32.2C91.5997 32.9 93.6997 34 93.6997 36.8C93.6997 39.8 91.2997 41.6 87.6997 41.6C85.0997 41.6 82.5998 40.7 80.7998 39.1Z" fill="#E4DCD1"/>
<path d="M99.6002 26.5H103.5L109.8 41.3H105.4L104.3 38.7H98.6002L97.5002 41.3H93.2002L99.6002 26.5ZM103.2 35.5L101.6 31.3L99.9003 35.5H103.2Z" fill="#E4DCD1"/>
<path d="M110.2 34.8008V26.5008H114.3V34.7008C114.3 36.8008 115.4 37.8008 117 37.8008C118.6 37.8008 119.7 36.8008 119.7 34.8008V26.5008H123.8V34.7008C123.8 39.5008 121.1 41.5008 116.9 41.5008C112.8 41.6008 110.2 39.4008 110.2 34.8008ZM117.6 21.8008L121.3 23.0008L118.2 25.7008H115.4L117.6 21.8008Z" fill="#E4DCD1"/>
<path d="M125.5 26.6016H131.2C136.5 26.6016 139.5 29.6016 139.5 33.9016C139.5 38.2016 136.4 41.3015 131.1 41.3015H125.5V26.6016ZM131.2 37.7016C133.6 37.7016 135.3 36.4016 135.3 34.0016C135.3 31.6016 133.7 30.3015 131.2 30.3015H129.5V37.8015L131.2 37.7016Z" fill="#E4DCD1"/>
<path d="M140.7 26.6016H152.5V30.1016H144.7V32.3015H151.8V35.5016H144.7V37.8015H152.6V41.3015H140.6L140.7 26.6016Z" fill="#E4DCD1"/>
</svg>
