<svg width="201" height="47" viewBox="0 0 201 47" fill="none" xmlns="http://www.w3.org/2000/svg">
<path d="M91.3 11.4004L87.2 5.5004V14.4004H86V3.40039H87.3L91.3 9.40039L95.3 3.40039H96.6V14.4004H95.4V5.5004L91.3 11.4004Z" fill="#E4DCD1"/>
<path d="M100.5 3.40039V14.4004H99.3003V3.40039H100.5Z" fill="#E4DCD1"/>
<path d="M111.2 3.40039H112.4V14.4004H111.4L104.3 5.30038V14.4004H103.1V3.40039H104.3L111.3 12.2004L111.2 3.40039Z" fill="#E4DCD1"/>
<path d="M116.3 3.40039V14.4004H115.1V3.40039H116.3Z" fill="#E4DCD1"/>
<path d="M122.8 8.29919C125.3 8.79919 126.4 9.6992 126.4 11.3992C126.4 13.2992 124.8 14.4992 122.6 14.4992C120.8 14.4992 119.4 13.8992 118.1 12.6992L118.9 11.7992C120.1 12.7992 121.2 13.3992 122.7 13.3992C124.2 13.3992 125.2 12.5992 125.2 11.4992C125.2 10.4992 124.6 9.8992 122.3 9.3992C119.8 8.7992 118.6 7.99922 118.6 6.19922C118.6 4.39922 120.1 3.19922 122.2 3.19922C123.8 3.19922 125 3.69921 126.1 4.59921L125.4 5.59921C124.4 4.79921 123.3 4.3992 122.2 4.3992C120.8 4.3992 119.9 5.19922 119.9 6.19922C119.8 7.19922 120.4 7.79919 122.8 8.29919Z" fill="#E4DCD1"/>
<path d="M132.3 14.5004H131V4.6004H127.3V3.40039H136V4.6004H132.3V14.5004Z" fill="#E4DCD1"/>
<path d="M145.7 4.4996H139V8.29959H145V9.3996H139V13.2996H145.8V14.3996H137.7V3.3996H145.7V4.4996ZM140.8 2.3996L142.3 0.0996094L143.6 0.699615L141.8 2.3996H140.8Z" fill="#E4DCD1"/>
<path d="M155.2 14.5L152 10.2H148.8V14.5H147.6V3.5H152.3C154.7 3.5 156.3 4.79999 156.3 6.79999C156.3 8.59999 155 9.7 153.3 10L156.7 14.5H155.2ZM152.3 4.60001H148.9V9.10001H152.3C154 9.10001 155.1 8.19999 155.1 6.79999C155.1 5.39999 154 4.60001 152.3 4.60001Z" fill="#E4DCD1"/>
<path d="M159.7 3.40039V14.4004H158.5V3.40039H159.7Z" fill="#E4DCD1"/>
<path d="M167.5 14.5992C164.1 14.5992 161.9 11.9992 161.9 8.8992C161.9 5.7992 164.2 3.19922 167.5 3.19922C170.9 3.19922 173.1 5.7992 173.1 8.8992C173.1 11.9992 170.8 14.5992 167.5 14.5992ZM167.5 4.3992C165 4.3992 163.2 6.3992 163.2 8.8992C163.2 11.3992 165 13.4992 167.6 13.4992C170.1 13.4992 171.9 11.4992 171.9 8.99921C171.9 6.49921 170 4.3992 167.5 4.3992Z" fill="#E4DCD1"/>
<path d="M183 14.5H179.2V3.5H183C186.5 3.5 188.9 5.9 188.9 9C188.9 12 186.5 14.5 183 14.5ZM183 4.60001H180.4V13.3H183C185.8 13.3 187.6 11.4 187.6 8.89999C187.6 6.49999 185.8 4.60001 183 4.60001Z" fill="#E4DCD1"/>
<path d="M200.5 14.5004H199.2L197.9 11.6004H191.9L190.6 14.5004H189.3L194.3 3.40039H195.5L200.5 14.5004ZM194.8 4.80038L192.3 10.4004H197.3L194.8 4.80038Z" fill="#E4DCD1"/>
<path d="M5.40015 19.4004H8.30017L13.0001 30.5004H9.70007L8.90015 28.5004H4.6001L3.80017 30.5004H0.600098L5.40015 19.4004ZM8.1001 26.1004L6.90015 23.0004L5.70007 26.1004H8.1001Z" fill="#E4DCD1"/>
<path d="M12.4004 24.9992C12.4004 21.7992 14.9004 19.1992 18.3004 19.1992C20.2004 19.1992 21.6004 19.7992 22.8004 20.7992L21.0004 22.9992C20.2004 22.2992 19.4004 21.9992 18.3004 21.9992C16.7004 21.9992 15.5004 23.2992 15.5004 24.9992C15.5004 26.7992 16.7004 28.0992 18.5004 28.0992C19.2004 28.0992 19.8004 27.8992 20.3004 27.5992V26.2992H18.1003V23.9992H23.2003V28.9992C22.0003 29.9992 20.4004 30.6992 18.4004 30.6992C15.0004 30.6992 12.4004 28.2992 12.4004 24.9992Z" fill="#E4DCD1"/>
<path d="M24.3003 19.5H29.5002C31.2002 19.5 32.4002 19.9 33.1002 20.7C33.7002 21.3 34.1002 22.2 34.1002 23.3C34.1002 25 33.2003 26.1 31.8003 26.7L34.4003 30.5H30.9003L28.7002 27.2H27.4003V30.5H24.3003V19.5ZM29.4003 24.8C30.4003 24.8 31.0002 24.3 31.0002 23.5C31.0002 22.6 30.4003 22.2 29.3003 22.2H27.3003V24.8H29.4003Z" fill="#E4DCD1"/>
<path d="M35.1001 19.5H38.2001V30.5H35.1001V19.5Z" fill="#E4DCD1"/>
<path d="M39.2002 24.9992C39.2002 21.7992 41.7002 19.1992 45.0002 19.1992C47.3002 19.1992 48.7002 20.0992 49.7002 21.4992L47.4003 23.2992C46.8003 22.4992 46.0002 21.9992 45.0002 21.9992C43.5002 21.9992 42.4003 23.2992 42.4003 24.8992C42.4003 26.5992 43.5002 27.7992 45.0002 27.7992C46.2002 27.7992 46.8002 27.2992 47.5002 26.4992L49.8003 28.0992C48.8003 29.4992 47.4003 30.5992 44.9003 30.5992C41.7003 30.6992 39.2002 28.2992 39.2002 24.9992Z" fill="#E4DCD1"/>
<path d="M50.3003 25.7V19.5H53.4003V25.6C53.4003 27.2 54.2003 28 55.4003 28C56.6003 28 57.4003 27.3 57.4003 25.7V19.5H60.5002V25.6C60.5002 29.2 58.5003 30.7 55.3003 30.7C52.3003 30.7 50.3003 29.1 50.3003 25.7Z" fill="#E4DCD1"/>
<path d="M61.8003 19.5H64.9003V27.9H70.2002V30.6H61.8003V19.5Z" fill="#E4DCD1"/>
<path d="M72.0002 22.1004H68.7002V19.4004H78.4003V22.1004H75.1002V30.5004H72.0002V22.1004Z" fill="#E4DCD1"/>
<path d="M78.9004 25.7V19.5H82.0004V25.6C82.0004 27.2 82.8004 28 84.0004 28C85.2004 28 86.0004 27.3 86.0004 25.7V19.5H89.1003V25.6C89.1003 29.2 87.1004 30.7 83.9004 30.7C80.9004 30.7 78.9004 29.1 78.9004 25.7Z" fill="#E4DCD1"/>
<path d="M90.4004 19.5H95.6003C97.3003 19.5 98.5003 19.9 99.2003 20.7C99.8003 21.3 100.2 22.2 100.2 23.3C100.2 25 99.3004 26.1 97.9004 26.7L100.5 30.5H97.0004L94.8004 27.2H93.5004V30.5H90.4004V19.5ZM95.4004 24.8C96.4004 24.8 97.0004 24.3 97.0004 23.5C97.0004 22.6 96.4004 22.2 95.3004 22.2H93.3004V24.8H95.4004Z" fill="#E4DCD1"/>
<path d="M104.7 19.4004H107.7L112.4 30.5004H109.1L108.3 28.5004H104L103.2 30.5004H100L104.7 19.4004ZM107.4 26.1004L106.2 23.0004L105 26.1004H107.4Z" fill="#E4DCD1"/>
<path d="M112.1 31.8988C113.2 31.7988 113.7 31.2988 113.7 30.3988H112.5V27.2988H115.6V29.7988C115.6 32.0988 114.3 32.8988 112.4 32.9988L112.1 31.8988Z" fill="#E4DCD1"/>
<path d="M120.4 19.5H125.1C127.9 19.5 129.7 20.9 129.7 23.4C129.7 26 127.7 27.4 125 27.4H123.5V30.6H120.4V19.5ZM124.9 24.9C126 24.9 126.7 24.3 126.7 23.5C126.7 22.6 126 22 124.9 22H123.5V24.9H124.9Z" fill="#E4DCD1"/>
<path d="M130.4 19.5H139.3V22.1H133.4V23.8H138.7V26.2H133.4V28H139.3V30.6H130.3L130.4 19.5Z" fill="#E4DCD1"/>
<path d="M139.8 24.9992C139.8 21.7992 142.3 19.1992 145.6 19.1992C147.9 19.1992 149.3 20.0992 150.3 21.4992L148 23.2992C147.4 22.4992 146.6 21.9992 145.6 21.9992C144.1 21.9992 143 23.2992 143 24.8992C143 26.5992 144.1 27.7992 145.6 27.7992C146.8 27.7992 147.4 27.2992 148.1 26.4992L150.4 28.0992C149.4 29.4992 148 30.5992 145.5 30.5992C142.3 30.6992 139.8 28.2992 139.8 24.9992Z" fill="#E4DCD1"/>
<path d="M150.9 25.7V19.5H154V25.6C154 27.2 154.8 28 156 28C157.2 28 158 27.3 158 25.7V19.5H161.1V25.6C161.1 29.2 159.1 30.7 155.9 30.7C152.7 30.7 150.9 29.1 150.9 25.7Z" fill="#E4DCD1"/>
<path d="M166.2 19.3988H169.2L173.9 30.4988H170.6L169.8 28.4988H165.5L164.7 30.4988H161.5L166.2 19.3988ZM168.9 26.0988L167.7 22.9988L166.5 26.0988H168.9ZM168.1 15.7988L170.9 16.6989L168.6 18.6989H166.5L168.1 15.7988Z" fill="#E4DCD1"/>
<path d="M174.3 19.5H179.5C181.2 19.5 182.4 19.9 183.1 20.7C183.7 21.3 184.1 22.2 184.1 23.3C184.1 25 183.2 26.1 181.8 26.7L184.4 30.5H180.9L178.7 27.2H177.4V30.5H174.3V19.5ZM179.4 24.8C180.4 24.8 181 24.3 181 23.5C181 22.6 180.4 22.2 179.3 22.2H177.3V24.8H179.4Z" fill="#E4DCD1"/>
<path d="M185.1 19.5H188.2V30.5H185.1V19.5Z" fill="#E4DCD1"/>
<path d="M193.4 19.4004H196.3L201 30.5004H197.7L196.9 28.5004H192.6L191.8 30.5004H188.6L193.4 19.4004ZM196 26.1004L194.8 23.0004L193.6 26.1004H196Z" fill="#E4DCD1"/>
<path d="M52.7001 35.5H61.6001V38.1H55.7001V39.8H61.0001V42.2H55.7001V44H61.6001V46.6H52.6001L52.7001 35.5Z" fill="#E4DCD1"/>
<path d="M70.1002 35.4004H73.0002L77.7002 46.5004H74.4003L73.6002 44.5004H69.3003L68.5002 46.5004H65.3003L70.1002 35.4004ZM72.8003 42.2004L71.6002 39.1004L70.4003 42.2004H72.8003Z" fill="#E4DCD1"/>
<path d="M78.2002 35.5H83.9003C85.3003 35.5 86.3003 35.8 86.9003 36.5C87.3003 36.9 87.6002 37.5 87.6002 38.3C87.6002 39.6 86.9003 40.3 85.9003 40.8C87.2003 41.2 88.1002 42 88.1002 43.5C88.1002 45.4 86.6003 46.5 83.9003 46.5H78.2002V35.5ZM83.1002 39.9C84.0002 39.9 84.6002 39.6 84.6002 38.9C84.6002 38.3 84.1002 38 83.2002 38H81.2002V39.9H83.1002ZM83.6002 44.1C84.5002 44.1 85.1002 43.7 85.1002 43.1C85.1002 42.5 84.6002 42.1 83.6002 42.1H81.3003V44.1H83.6002Z" fill="#E4DCD1"/>
<path d="M92.7003 35.4004H95.6003L100.3 46.5004H97.0004L96.2003 44.5004H91.9004L91.1003 46.5004H87.9004L92.7003 35.4004ZM95.4004 42.2004L94.2003 39.1004L93.0004 42.2004H95.4004Z" fill="#E4DCD1"/>
<path d="M99.8003 44.8988L101.5 42.8988C102.6 43.7988 103.8 44.1989 105.1 44.1989C105.9 44.1989 106.4 43.8988 106.4 43.3988C106.4 42.8988 106 42.6988 104.5 42.2988C102.2 41.7988 100.3 41.0988 100.3 38.7988C100.3 36.6988 101.9 35.2988 104.6 35.2988C106.5 35.2988 107.9 35.7988 109.1 36.7988L107.6 38.9988C106.6 38.2988 105.5 37.8988 104.5 37.8988C103.8 37.8988 103.4 38.1988 103.4 38.5988C103.4 39.0988 103.8 39.2989 105.3 39.6989C107.8 40.2989 109.4 41.0988 109.4 43.0988C109.4 45.3988 107.6 46.6989 104.9 46.6989C103 46.6989 101.1 46.0988 99.8003 44.8988Z" fill="#E4DCD1"/>
<path d="M112.7 38.2H109.4V35.5H119.1V38.2H115.8V46.6H112.7V38.2Z" fill="#E4DCD1"/>
<path d="M119.7 35.5H128.6V38.1H122.7V39.8H128V42.2H122.7V44H128.6V46.6H119.6L119.7 35.5Z" fill="#E4DCD1"/>
<path d="M129.2 40.9992C129.2 37.7992 131.7 35.1992 135 35.1992C137.3 35.1992 138.7 36.0992 139.7 37.4992L137.4 39.2992C136.8 38.4992 136 37.9992 135 37.9992C133.5 37.9992 132.4 39.2992 132.4 40.8992C132.4 42.5992 133.5 43.7992 135 43.7992C136.2 43.7992 136.8 43.2992 137.5 42.4992L139.8 44.0992C138.8 45.4992 137.4 46.5992 134.9 46.5992C131.7 46.7992 129.2 44.2992 129.2 40.9992Z" fill="#E4DCD1"/>
<path d="M140.5 35.5H143.6V46.5H140.5V35.5Z" fill="#E4DCD1"/>
<path d="M145 35.5H148.2L150.8 39.8L153.4 35.5H156.6V46.5H153.6V40.2L150.8 44.5H150.7L147.9 40.2V46.5H144.9V35.5H145Z" fill="#E4DCD1"/>
<path d="M158 35.5H166.9V38.1H161V39.8H166.3V42.2H161V44H166.9V46.6H157.9L158 35.5Z" fill="#E4DCD1"/>
<path d="M167.9 35.5H170.8L175.3 41.3V35.5H178.3V46.5H175.6L170.9 40.4V46.5H167.9V35.5Z" fill="#E4DCD1"/>
<path d="M182.4 38.2H179.1V35.5H188.8V38.2H185.5V46.6H182.4V38.2Z" fill="#E4DCD1"/>
<path d="M188.6 40.9992C188.6 37.7992 191.2 35.1992 194.6 35.1992C198 35.1992 200.5 37.6992 200.5 40.8992C200.5 44.0992 197.9 46.5992 194.5 46.5992C191.1 46.7992 188.6 44.1992 188.6 40.9992ZM197.4 40.9992C197.4 39.3992 196.2 37.9992 194.6 37.9992C192.9 37.9992 191.8 39.3992 191.8 40.8992C191.8 42.4992 193 43.8992 194.6 43.8992C196.2 43.9992 197.4 42.5992 197.4 40.9992Z" fill="#E4DCD1"/>
</svg>
