<svg width="149" height="42" viewBox="0 0 149 42" fill="none" xmlns="http://www.w3.org/2000/svg">
<path d="M148.1 12.9996H140.3L134 23.9996H131.3V0.599609L124.3 1.59961V40.8996H131.3V29.5996H134L140.8 40.8996H148.4L139.8 26.8996L148.1 12.9996Z" fill="#E4DCD1"/>
<path d="M24.9001 31.6989L10.4001 2.79883H0.800049V40.8988H7.80005V11.9988L22.4001 40.8988H32V2.79883H24.9001V31.6989Z" fill="#E4DCD1"/>
<path d="M95.8999 18.5996L96.6 12.9996H89.2V5.09961L82.2 5.9996V33.9996C82.2 38.9996 84.7999 41.3996 89.8999 41.3996C91.6999 41.3996 94.5 40.9996 96.5 40.0996L95.8 34.7996C94.1 35.2996 92.8 35.4996 91.7 35.4996C89.9 35.4996 89.2 34.5996 89.2 32.9996V18.2996L95.8999 18.5996Z" fill="#E4DCD1"/>
<path d="M109.9 12.4004C101 12.4004 98.3 17.4004 98.3 23.3004V30.7004C98.3 37.4004 101.3 41.5004 110.1 41.5004C113.5 41.5004 117.6 40.8004 120.1 39.8004V34.1004C118.5 34.7004 114.8 35.7004 110.8 35.7004C106.6 35.7004 105.3 34.3004 105.3 31.0004V29.5004H120.8V23.5004C120.8 17.6004 118.8 12.4004 109.9 12.4004ZM114.2 24.0004H105.3V22.6004C105.3 20.0004 106.6 18.1004 109.9 18.1004C113.4 18.1004 114.1 20.0004 114.1 22.6004V24.0004H114.2Z" fill="#E4DCD1"/>
<path d="M45.8 12.4004C42.7 12.4004 38.9 12.9004 36.5 13.7004V19.4004C38.7 19.0004 42.3 18.6004 44.9 18.6004C49.4 18.6004 50.2 19.5004 50.2 22.6004V24.8004H43.5C37.8 24.8004 35.3 27.7004 35.3 33.4004C35.3 38.2004 37.5 41.7004 42.6 41.7004C45.4 41.7004 48.4 40.9004 50.9 39.2004L51.4 41.1004H57.2V22.6004C57.2 15.4004 54.6 12.4004 45.8 12.4004ZM50.2 34.5004C48.8 35.2004 46.9 36.0004 45 36.0004C42.8 36.0004 42.2 35.2004 42.2 33.2004C42.2 31.1004 42.8 29.7004 45.1 29.7004H50.2V34.5004Z" fill="#E4DCD1"/>
<path d="M71.1 24.1989C67.3 23.2989 67.1 23.1988 67.1 20.8988C67.1 19.1988 67.6 18.3988 70.7 18.3988C71.9 18.3988 75.4 18.3988 78.5 18.3988L79.3 12.7988C77.6 12.7988 72.8 12.7988 70.7 12.7988C62.7 12.7988 60.2 15.1988 60.2 20.7988C60.2 26.0988 61 27.6988 67.9 29.3988C72.4 30.3988 72.7 31.3988 72.7 33.0988C72.7 35.1988 72.3 35.5988 69.1 35.5988C66.3 35.5988 62.3 34.8989 60.4 34.1989V39.4988C62.4 40.4988 66.5 41.1989 69.4 41.1989C77.8 41.1989 79.5 38.1988 79.5 32.7988C79.7 27.3988 78.9 26.2989 71.1 24.1989Z" fill="#E4DCD1"/>
</svg>
