<svg width="148" height="109" viewBox="0 0 148 109" fill="none" xmlns="http://www.w3.org/2000/svg">
<path d="M58.5 0.699617C61.9 1.49962 58.3999 5.19961 58.1999 5.59961C57.4999 7.09961 54.2 8.99961 52.9 5.59961C52.4 4.29961 52.6999 2.6996 53.6999 1.8996C54.2999 1.3996 57.1 0.399617 58.5 0.699617ZM84 4.79959C81.8 4.49959 80.7 5.59961 79.3 5.59961C76.9 5.59961 77.1999 10.0996 77.1999 11.6996C78.0999 11.6996 79.1999 22.9996 77.1999 22.9996C77.1999 25.8996 69.8999 35.0996 68.6999 37.5996C67.8999 39.2996 61.9999 43.5996 61.6999 39.2996C61.6999 38.8996 59.1 34.4996 58.5 33.5996C57.7 33.4996 50.8 34.5996 50.8 35.9996C49.3 35.9996 49.1999 37.6996 49.1999 34.3996C47.9999 31.3996 45.7 33.2996 45.1 31.5996C44.9 30.9996 44.2 31.3996 43.5 30.2996C42.4 28.3996 36.3999 32.5996 36.6999 33.9996C33.6999 34.6996 32.1 31.2996 30.1 30.2996C30.1 28.8996 29.7 21.8996 29 20.0996C28.5 18.6996 25.1 11.7996 24.1 10.6996C22.9 9.49962 17.8 6.49962 16.9 7.19962C11.8 7.19962 14.9999 14.8996 13.1999 14.8996C5.49994 18.2996 -1.79997 28.9996 1.80003 38.5996C3.40003 42.8996 5.80003 46.3996 10.8 46.6996C10.8 47.7996 21.6 45.7996 21.3 44.1996C23.1 44.1996 28.6 37.9996 28.6 36.4996C29.4 36.4996 31.3999 37.6996 32.6999 38.6996C34.7999 40.3996 31.5 42.9996 32.3 44.9996C33.1 46.9996 41.6 42.4996 41.6 43.3996C43 43.3996 38.5 56.0996 37.5 56.7996C36 57.7996 35.2 75.7996 37.5 75.7996C37.5 79.6996 43.6 77.2996 44.9 74.1996C45.5 72.7996 48.8 63.9996 48.9 63.6996C49.2 62.5996 49.6999 57.1996 49.6999 56.7996C50.1999 51.4996 49.3 47.2996 49.3 42.1996C48.9 39.8996 50.4 39.0996 52.1 38.9996C53.7 38.8996 54.3 40.6996 55 41.7996C55.8 43.0996 56.8 43.9996 57.4 44.9996C57.7 45.5996 63.2999 45.9996 64.6999 44.9996C66.5999 43.5996 73.2 39.2996 74.1 37.2996C74.5 36.3996 79.3 28.3996 80.1 28.3996C79.4 26.9996 82.1 28.1996 82.1 30.3996C82.7 30.3996 86.8 36.2996 87 37.2996C87.3 38.6996 93 42.1996 93.1 42.1996H97.1C97.1 42.1996 101.8 38.9996 101.6 38.1996C103.1 37.5996 106 43.3996 106.9 42.9996C106.1 44.3996 113 44.6996 113.4 43.3996C116 44.6996 118.4 32.8996 118.6 32.8996C118.6 28.5996 122.7 29.9996 122.7 26.3996C121.8 26.3996 113.8 26.0996 113.8 27.5996C111.9 27.5996 111.3 35.7996 111.3 37.3996C109.1 37.3996 106.4 30.8996 104.9 30.8996C104.9 28.6996 99.6 29.1996 99.6 29.9996C97.7 29.9996 96.8 32.8996 98 32.8996C98 41.7996 91.8 33.9996 90.3 30.8996C89.5 29.3996 85.8 19.1996 85.8 17.0996C84.6 17.0996 85.7 5.29959 84.1 5.29959L84 4.79959ZM15.4 18.5996C16.3 18.5996 18.9 25.0996 19.1 25.8996C19.3 26.6996 24.4 33.1996 24.4 33.1996C24.1 35.1996 20.7999 41.6996 18.6999 41.6996C18.6999 42.7996 12.6 42.7996 12.6 41.6996C10.5 41.6996 6.49999 33.8996 6.99999 31.0996C7.69999 26.8996 10.5999 20.2996 14.1999 18.1996C14.1999 17.5996 15.4 17.3996 15.4 18.5996ZM132 29.2996C131.3 28.7996 128.4 30.4996 127.2 30.8996C125 31.5996 125.8 33.7996 126.4 34.0996C127.7 34.6996 133.7 41.0996 133.7 41.7996H137.3C137.3 40.4996 139.1 43.0996 137.7 43.4996C137.7 45.2996 137.3 45.6996 137.3 47.4996C136.7 47.4996 134.9 64.1996 134.1 65.2996C133.6 66.0996 131.8 76.2996 131.6 77.0996C130.8 79.9996 126.8 100.2 124.7 100.2C124.7 101.7 121.8 98.9996 122.3 97.3996C121.7 97.3996 119 87.9996 120.2 87.9996C120.8 85.1996 114.2 86.9996 114.2 90.0996C114.7 90.0996 115.2 100.2 116.2 100.2C116.2 101.6 118.7 107.5 120.2 107.5C121 110 128.8 107.5 128.8 105C130.7 106.1 136.6 82.2996 137.3 78.6996C137.4 77.9996 140.3 65.4996 140.5 64.8996C141.1 62.9996 145 42.5996 145.4 42.5996C145.4 40.2996 148.2 33.1996 147 31.9996C147 29.4996 139.3 31.1996 139.3 34.8996C139.2 34.8996 137.7 37.2996 137.7 35.6996C137.1 35.7996 133.4 29.9996 132.8 29.5996C132.5 29.2996 132.5 29.5996 132 29.2996ZM42.3 36.8996C43.2 37.7996 42.9 38.5996 42 39.0996C40.8 39.8996 38.4999 40.1996 37.6999 40.1996C37.6999 38.5996 38.9 38.1996 39.9 37.8996C40.2 37.6996 42.3 35.9996 42.3 36.8996ZM43.9 56.3996C43.8 56.7996 43 68.1996 41.5 68.1996V68.8996C37.8 68.8996 43.1 54.0996 43.1 52.2996C44.6 52.2996 44.2 55.0996 43.9 56.3996Z" fill="#E4DCD1"/>
</svg>
