<svg width="135" height="65" viewBox="0 0 135 65" fill="none" xmlns="http://www.w3.org/2000/svg">
<path d="M47.5 33.4992C47.5 38.8992 47.5 44.2992 47.5 49.6992C47.5 51.5992 47.3 51.7992 45.4 51.7992C43.6 51.7992 41.8 51.7992 40.1 51.7992C39.2 51.7992 39 51.5992 39 50.6992C39 42.5992 39 34.5992 39 26.4992C39 25.2992 39 24.0992 39 22.8992C39 22.2992 38.8 21.9992 38.2 21.9992C37.4 21.9992 36.6 21.7992 35.8 21.7992C35.2 21.7992 35 21.5992 35 20.9992C35 19.4992 35 17.8992 35 16.3992C35 15.7992 35.2 15.6992 35.7 15.6992C39.4 15.6992 43 15.6992 46.7 15.6992C47.5 15.6992 47.5 16.1992 47.5 16.6992C47.5 22.2992 47.5 27.8992 47.5 33.4992Z" fill="#E4DCD1"/>
<path d="M124 46.6996C124 43.5996 126.4 41.0996 129.4 41.0996C132.4 41.0996 134.9 43.6996 134.9 46.6996C134.9 49.6996 132.5 52.0996 129.5 52.1996C126.3 52.1996 124 49.8996 124 46.6996Z" fill="#E4DCD1"/>
<path d="M48.6 5.89999C48.6 8.99999 46.2001 11.3 43.2001 11.3C40.2001 11.3 37.9 8.89999 37.8 5.89999C37.8 2.99999 40.3001 0.5 43.2001 0.5C46.2001 0.5 48.6 2.89999 48.6 5.89999Z" fill="#E4DCD1"/>
<path d="M83.2001 34.4C83.2001 40 83.2001 45.6 83.2001 51.3C83.2001 55.1 82 58.5 79.1 61.1C77.1 62.8 74.8001 63.9 72.2001 64C68.8001 64.1 65.4001 64 61.9001 64.1C61.3001 64.1 61 63.9 61 63.3C60.8 61.7 60.6001 60.1 60.4001 58.4C60.3001 57.6 60.4 57.3 61.3 57.3C63.9 57.4 66.5001 57.2 69.2001 57.4C73.0001 57.6 74.6 55.3 74.8 52C74.9 50.1 74.9 50.1 73.1 50.8C68.3 52.6 63.7 52.5 59.5 49.2C56.3 46.7 54.6 43.3 54.5 39.3C54.4 35.5 54.4 31.8 54.5 28C54.6 22.1 59 16.8 64.8 15.6C68.3 14.9 71.6001 15.7 74.7001 17.2C75.5001 17.6 75.9 17.6 75.8 16.6C75.8 16.1 76 15.9 76.5 15.9C78.5 15.9 80.5 15.9 82.5 15.9C83.3 15.9 83.2001 16.4 83.2001 16.9C83.2001 21.5 83.2001 26.1 83.2001 30.7C83.2001 31.8 83.2001 33.1 83.2001 34.4ZM74.8 25.3C74.8 24.6 74.6001 24.3 73.9001 24.1C72.8001 23.8 71.6 23.4 70.5 23.2C66.2 22.3 63.6 24 63.1 28.3C62.7 31.4 63 34.4 63 37.5C63 38.4 63.2001 39.4 63.4001 40.3C63.9001 42.3 65.2 43.6 67.3 43.9C69.6 44.2 71.8 43.7 74 43.1C74.7 42.9 74.9001 42.6 74.9001 41.9C74.9001 39.1 74.9001 36.4 74.9001 33.6C74.8001 30.8 74.7 28.1 74.8 25.3Z" fill="#E4DCD1"/>
<path d="M119.6 33.5009C119.6 36.2009 119.7 38.6009 119.2 41.1009C118 47.3009 112.5 51.901 106.2 52.201C102.2 52.401 98.4001 51.7009 95.2001 49.0009C92.2001 46.5009 90.5001 43.2009 90.2001 39.3009C89.9001 35.5009 90.0001 31.6009 90.2001 27.8009C90.6001 21.3009 96.2001 15.701 102.7 15.201C106.5 14.901 110.1 15.3009 113.3 17.5009C116.9 19.9009 118.8 23.3009 119.4 27.5009C119.7 29.6009 119.6 31.7009 119.6 33.5009ZM110.7 27.201C109.9 24.301 107.9 22.9009 104.8 22.9009C101.7 22.9009 99.8001 24.4009 99.0001 27.3009C98.8001 28.0009 98.7001 28.7009 98.7001 29.5009C98.7001 32.3009 98.7001 35.1009 98.7001 37.9009C98.7001 38.7009 98.9 39.6009 99.1 40.4009C100 43.5009 102.1 44.8009 105.8 44.5009C108.4 44.4009 110.3 42.6009 110.9 39.8009C111.3 37.8009 111 35.801 111.1 33.701C110.9 31.501 111.3 29.301 110.7 27.201Z" fill="#E4DCD1"/>
<path d="M1.00001 33.6998C1.10001 30.9998 0.700035 28.2998 1.40004 25.5998C2.90004 19.8998 7.80002 15.7998 13.7 15.2998C17.7 14.9998 21.5 15.5998 24.8 17.9998C28.5 20.6998 30.2 24.4998 30.3 28.9998C30.4 32.0998 30.4 35.2998 30.3 38.3998C30.2 46.0998 24 52.0998 16.4 52.1998C12.5 52.2998 8.8 51.4998 5.8 48.7998C2.9 46.1998 1.30001 42.9998 1.00001 39.0998C0.900011 37.3998 1.00001 35.5998 1.00001 33.6998ZM9.70002 39.4998C10.3 42.6998 12.3 44.3998 15.5 44.4998C19 44.5998 21.1 43.1998 21.7 39.7998C22.4 35.8998 22.4 31.8998 21.8 27.8998C21.3 24.3998 19 22.7998 15.7 22.7998C12.3 22.8998 10.4 24.5998 9.8 28.0998C9.5 29.8998 9.69999 31.6998 9.59999 33.4998C9.49999 35.5998 9.30002 37.5998 9.70002 39.4998Z" fill="#E4DCD1"/>
</svg>
