<svg width="137" height="118" viewBox="0 0 137 118" fill="none" xmlns="http://www.w3.org/2000/svg">
<path d="M2.39995 65.4008C14 60.5008 26.1999 59.1008 38.5999 60.9008C45.5999 61.9008 52.3999 63.8008 59.0999 65.7008C68.2999 68.4008 77.3999 71.0008 86.8999 71.8008C89.6999 72.0008 92.3999 72.2008 95.3999 72.1008C95.0999 71.7008 94.8 71.6008 94.5 71.5008C89.7 69.5008 85 67.0008 80.7 64.1008C73.6 59.5008 67.1 53.9008 60.5 48.7008C54 43.6008 47.4 38.4008 40 34.6008C31.3 30.1008 22.2 28.0008 12.5 29.0008C11.5 29.1008 11.2999 29.5008 11.0999 30.3008C7.89995 41.7008 4.79995 53.2008 1.59995 64.7008C1.49995 65.0008 1.49995 65.5008 1.19995 65.7008C1.19995 65.8008 1.19995 65.9008 1.19995 65.9008C1.49995 65.8008 1.99995 65.6008 2.39995 65.4008Z" fill="#E4DCD1"/>
<path d="M5.7999 112.899C5.3999 112.899 4.7999 112.499 4.7999 113.399C4.7999 114.299 5.3999 113.999 5.7999 114.099C6.0999 114.199 6.6999 113.799 6.6999 114.499C6.6999 115.099 6.7999 115.699 5.9999 115.899C4.8999 116.199 3.8999 116.199 3.0999 115.399C2.2999 114.599 2.0999 113.599 2.3999 112.499C2.8999 110.799 4.5999 110.199 6.1999 111.099C6.8999 111.499 7.0999 111.099 7.3999 110.699C7.7999 110.099 7.0999 110.099 6.8999 109.899C4.4999 108.499 1.7999 109.699 0.999901 112.399C0.799901 112.999 0.999902 113.599 0.899902 114.099V114.199C0.899902 114.199 0.999901 114.199 0.999901 114.299C1.2999 115.899 2.4999 116.599 3.7999 117.299C4.3999 117.299 4.9999 117.299 5.6999 117.299C6.0999 117.099 6.5999 116.899 6.9999 116.699C7.6999 116.399 7.9999 115.999 7.9999 115.099C7.9999 112.899 8.0999 112.899 5.7999 112.899Z" fill="#E4DCD1"/>
<path d="M42 1.20039C48.2 3.80039 54 7.1004 59.6 11.0004C65.3 14.9004 70.6 19.5004 76 23.7004C82.5 28.8004 88.9 34.0004 96.2 37.9004C105.2 42.7004 114.7 45.1004 124.8 44.1004C125.7 44.0004 125.9 43.7004 126.1 42.9004C129.3 31.3004 132.5 19.6004 135.7 8.0004C135.8 7.7004 135.9 7.3004 135.8 7.0004C135 6.8004 134.3 7.3004 133.6 7.6004C123.9 11.5004 113.8 13.1004 103.4 12.3004C96.5 11.8004 89.8 10.3004 83.1 8.5004C76.6 6.6004 70.2 4.70039 63.6 3.20039C59.8 2.30039 56.2 1.50039 52.4 1.20039C50.8 1.10039 49.3 1.10039 47.8 0.900391C47.6 0.900391 47.5 0.900391 47.3 0.900391C47.1 0.900391 47 0.900391 46.8 0.900391C46.6 0.900391 46.5 0.900391 46.3 0.900391C46.1 0.900391 45.8 0.900391 45.6 0.900391C45.3 0.900391 45 0.900391 44.7 0.900391C43.5 0.900391 42.2 0.900391 41 0.900391C41.5 1.00039 41.7 1.20039 42 1.20039Z" fill="#E4DCD1"/>
<path d="M60.2 27.1005C54.9 30.2005 53.4 36.2005 57 41.1005C60.1 45.3005 64.4 47.3005 69.1 47.6005C72.4 47.6005 74.9 46.9005 77.3 45.4005C82 42.4005 83.3 37.0005 80.5 32.3005C76.6 25.8005 66.9 23.3005 60.2 27.1005Z" fill="#E4DCD1"/>
<path d="M110.5 101.001C110.5 94.2011 110.5 87.3011 110.5 80.5011C110.5 79.9011 110.3 79.7011 109.7 79.7011C108.2 79.7011 106.7 79.8011 105.3 79.7011C104.5 79.7011 104.4 80.0011 104.4 80.6011C104.4 83.8011 104.4 86.8011 104.4 90.0011C104.4 90.4011 104.4 90.7011 104.4 91.4011C104.1 91.0011 103.9 90.8011 103.8 90.6011C101.1 87.2011 98.4998 83.8011 95.8998 80.4011C95.5998 80.0011 95.2998 79.6011 94.6998 79.7011C93.1998 79.8011 91.6999 79.7011 90.2999 79.7011C89.6999 79.7011 89.5999 79.9011 89.5999 80.4011C89.5999 87.2011 89.5999 94.1011 89.5999 100.901C89.5999 101.601 89.8998 101.701 90.4998 101.701C91.8998 101.701 93.3998 101.601 94.6998 101.701C95.4998 101.701 95.6998 101.501 95.6998 100.701C95.6998 97.1011 95.6998 93.5011 95.6998 89.6011C96.1998 90.2011 96.4998 90.6011 96.6998 90.9011C99.3998 94.3011 101.9 97.6011 104.6 101.001C104.9 101.401 105.2 101.801 105.8 101.701C107.1 101.601 108.5 101.701 109.8 101.701C110.3 101.701 110.5 101.601 110.5 101.001Z" fill="#E4DCD1"/>
<path d="M49.9998 109.5C49.0998 109.5 49.3998 110.1 49.3998 110.6C49.3998 111.9 49.3998 113.2 49.3998 114.7C48.9998 114.2 48.8998 114.1 48.6998 113.9C47.6998 112.6 46.6998 111.4 45.6998 110.1C45.2998 109.6 44.8998 109.4 44.2998 109.5C43.6998 109.7 43.9998 110.2 43.9998 110.6C43.9998 112.8 43.9998 114.8 43.9998 117C44.3998 117 44.7998 117 45.1998 117C45.1998 115.3 45.1998 113.7 45.1998 112.1C45.2998 112.1 45.3998 112 45.4998 112C46.7998 113.7 48.0998 115.4 49.2998 117C49.6998 117 50.0998 117 50.3998 117C50.3998 114.8 50.4998 112.7 50.4998 110.5C50.6998 110 50.8998 109.5 49.9998 109.5Z" fill="#E4DCD1"/>
<path d="M93 115.8C92.3 115.9 91.6 115.8 90.9 115.8C90.2 115.8 89.6 115.9 89.6 114.8C89.6 113.8 90 113.7 90.8 113.7C91.5 113.8 92.2 113.7 92.9 113.7C93.4 113.7 93.5 113.5 93.5 113.1C93.5 112.7 93.3 112.5 92.9 112.5C92.2 112.5 91.4 112.5 90.7 112.5C90 112.6 89.6 112.4 89.6 111.6C89.6 110.7 89.9 110.5 90.7 110.6C91.5 110.7 92.4 110.6 93.2 110.6C93.6 110.6 93.9 110.6 93.9 110C93.9 109.5 93.6 109.4 93.2 109.4C91.8 109.4 90.4 109.4 89.1 109.4C88.4 109.4 88.2 109.6 88.3 110.2C88.3 112.4 88.3 114.6 88.3 116.8C90.2 116.8 92.1 116.8 93.9 116.8C94.3 116 93.9 115.7 93 115.8Z" fill="#E4DCD1"/>
<path d="M32.9 115.801C32.1 115.901 31.3 115.801 30.5 115.801C29.8 115.901 29.6 115.601 29.6 114.901C29.6 113.901 29.9 113.601 30.8 113.701C31.4 113.801 32.1 113.701 32.8 113.701C33.2 113.701 33.5 113.701 33.5 113.101C33.5 112.501 33.2 112.501 32.8 112.501C32 112.501 31.1 112.501 30.3 112.501C30.1 112.501 29.8 112.601 29.7 112.201C29.4 111.101 29.8 110.601 30.9 110.601C31.6 110.601 32.4 110.501 33.1 110.601C34 110.701 34.2 110.301 34.1 109.601C32.4 109.301 30.7 109.501 29.1 109.501C28.5 109.501 28.5 109.901 28.5 110.301C28.5 112.301 28.5 114.201 28.5 116.201C28.5 116.801 28.7 117.001 29.3 117.001C30.9 117.001 32.5 117.001 34 117.001C34.2 116.101 33.9 115.701 32.9 115.801Z" fill="#E4DCD1"/>
<path d="M99.6998 112.9C99.0998 112.7 98.4998 112.6 97.8998 112.4C97.4998 112.3 97.1998 112 97.1998 111.5C97.2998 110.9 97.6998 110.7 98.1998 110.7C98.7998 110.6 99.4998 110.8 99.9998 111.1C100.6 111.5 100.8 111.1 101.1 110.7C101.5 110.1 100.9 110.1 100.6 109.9C99.7998 109.4 98.8998 109.3 97.9998 109.4C96.8998 109.5 96.0998 110.3 95.9998 111.3C95.8998 112.5 96.2998 113.2 97.5998 113.6C98.2998 113.8 98.8998 114 99.5998 114.2C99.9998 114.3 100.3 114.6 100.2 115.1C100.2 115.6 99.8998 115.8 99.3998 116C98.4998 116.2 97.5998 116 96.8998 115.4C96.2998 115 96.1998 115.4 95.8998 115.7C95.4998 116.2 95.9998 116.3 96.1998 116.5C96.6998 116.8 97.1998 117.1 97.7998 117.1C97.7998 117.2 97.7998 117.2 97.7998 117.3C98.3998 117.3 98.9998 117.3 99.6998 117.3C99.6998 117.2 99.6998 117.2 99.6998 117.1C100.8 116.9 101.4 116.1 101.5 115C101.5 113.8 100.7 113.2 99.6998 112.9Z" fill="#E4DCD1"/>
<path d="M123.8 74.1012C123.5 74.1012 123.2 74.1012 123 74.5012C122.6 75.5012 122.2 76.4012 121.7 77.5012C122.9 77.5012 123.9 77.5012 124.9 77.5012C127.7 77.5012 127.7 77.5012 128.7 74.8012V74.7012C129 74.2012 128.8 74.0012 128.3 74.1012C126.8 74.1012 125.2 74.1012 123.8 74.1012Z" fill="#E4DCD1"/>
<path d="M26.2998 109.501C25.8998 109.401 25.3998 109.201 25.0998 109.801C24.9998 110.001 24.8998 110.201 24.7998 110.401C24.1998 112.001 23.5998 113.501 22.8998 115.101C22.7998 114.801 22.6998 114.601 22.5998 114.401C21.9998 112.901 21.3998 111.301 20.7998 109.901C20.4998 109.201 19.8998 109.301 19.4998 109.401C18.8998 109.601 19.3998 110.101 19.4998 110.301C20.3998 112.501 21.2998 114.601 22.1998 116.801C22.5998 116.801 22.9998 116.801 23.3998 116.801C24.3998 114.501 25.2998 112.401 26.2998 110.101C26.3998 110.101 26.7998 109.701 26.2998 109.501Z" fill="#E4DCD1"/>
<path d="M108.4 109.5C106.7 109.5 105.1 109.5 103.5 109.5C103 109.5 102.9 109.8 102.9 110.2C102.9 110.9 103.4 110.8 103.8 110.8C105.4 110.9 105.4 110.9 105.4 112.5C105.4 114 105.4 115.6 105.5 117C106.5 117.2 106.8 116.8 106.8 115.8C106.8 114.1 106.5 112.5 107 110.9C107.5 110.9 108.1 110.8 108.6 110.8C109.1 110.8 109.3 110.7 109.3 110.2C109 109.7 108.9 109.5 108.4 109.5Z" fill="#E4DCD1"/>
<path d="M55.5 109.601C53.4 110.301 52.3 112.401 52.9 114.501C53.3 115.901 54.5 116.601 55.7 117.201C56.3 117.201 56.9 117.201 57.6 117.201C57.7 117.001 57.8 117.001 58 117.001C60.2 116.301 61.3 114.201 60.6 112.101C59.8 110.001 57.5 108.901 55.5 109.601ZM56.7 115.901C55.3 115.801 54.2 114.601 54.2 113.101C54.2 111.601 55.4 110.401 56.8 110.401C58.2 110.401 59.4 111.601 59.4 113.101C59.3 114.901 58.1 116.001 56.7 115.901Z" fill="#E4DCD1"/>
<path d="M131 109.601C128.8 110.301 127.7 112.501 128.4 114.501C128.8 115.901 130 116.601 131.2 117.201C131.8 117.201 132.4 117.201 133.1 117.201C134.5 116.601 135.8 115.901 136.1 114.201C136.1 113.601 136.1 112.901 136.1 112.301C135.3 110.001 133.2 108.801 131 109.601ZM132.2 115.901C130.8 115.801 129.6 114.601 129.7 113.101C129.7 111.601 130.9 110.401 132.3 110.401C133.7 110.401 134.9 111.601 134.9 113.101C134.8 114.901 133.6 116.001 132.2 115.901Z" fill="#E4DCD1"/>
<path d="M58.6 93.6012C61.7 91.9012 62.6 89.3012 62.3 86.0012C61.9 82.9012 60 81.1012 57.3 80.2012C56.3 79.9012 55.4 79.7012 54.3 79.7012C50.7 79.7012 47.1 79.7012 43.5 79.7012C43 79.7012 42.7 79.8012 42.7 80.4012C42.7 87.3012 42.7 94.1012 42.7 101.001C42.7 101.701 43 101.801 43.6 101.801C45.1 101.801 46.6 101.801 48 101.801C48.7 101.801 48.8 101.601 48.8 100.901C48.8 99.2012 48.8 97.5012 48.8 95.9012C48.8 95.6012 48.7 95.3012 48.9 95.1012C49.3 94.7012 51.6 95.1012 51.9 95.7012C53.1 97.5012 54.3 99.4012 55.5 101.101C55.8 101.501 56.1 101.801 56.6 101.701C58.7 101.701 60.7 101.701 63 101.701C61.3 99.3012 59.8 97.1012 58.3 94.9012C57.9 94.3012 57.9 94.0012 58.6 93.6012ZM54.6 90.0012C53.6 90.4012 52.5 90.2012 51.6 90.2012C48.8 90.2012 48.8 90.2012 48.8 87.5012C48.8 84.8012 48.8 84.8011 51.5 84.8011C52.5 84.8011 53.5 84.7012 54.5 85.0012C55.7 85.4012 56.2 86.2012 56.3 87.4012C56.2 88.8012 55.7 89.6012 54.6 90.0012Z" fill="#E4DCD1"/>
<path d="M38.2999 101.7C39.2999 101.7 40.0999 101.7 40.8999 101.7C41.6999 101.8 41.8999 101.6 41.5999 100.8C38.5999 94 35.7999 87.1 32.8999 80.3C32.5999 79.7 32.2999 79.5 31.5999 79.5C30.1999 79.5 28.7999 79.6 27.4999 79.5C26.7999 79.5 26.4999 79.7 26.1999 80.3C23.2999 87.1 20.4999 93.9 17.4999 100.7C17.1999 101.4 17.0999 101.8 18.0999 101.7C18.6999 101.6 19.3999 101.7 20.0999 101.7C21.2999 101.7 22.5999 102 23.4999 101.5C24.3999 101 24.4999 99.5 24.8999 98.4C25.0999 97.8 25.3999 97.6 26.0999 97.6C28.2999 97.6 30.4999 97.7 32.6999 97.6C33.4999 97.6 33.8999 97.9 34.1999 98.6C34.4999 99.6 34.7999 100.8 35.4999 101.4C36.0999 102.2 37.3999 101.6 38.2999 101.7ZM27.5999 93C27.0999 93 26.9999 92.9 27.1999 92.4C27.8999 90.7 28.4999 89 29.1999 87.5C29.2999 87.3 29.3999 87.2 29.4999 86.9C30.2999 89 31.0999 90.9 31.8999 93C30.2999 93 28.9999 93 27.5999 93Z" fill="#E4DCD1"/>
<path d="M88.5999 101.4C85.4999 94.3004 82.5999 87.1004 79.4999 80.0004C79.2999 79.5004 78.9999 79.4004 78.4999 79.4004C77.0999 79.4004 75.5999 79.4004 74.2999 79.4004C73.5999 79.4004 73.1999 79.6004 72.9999 80.3004C70.1999 87.0004 67.3999 93.7004 64.4999 100.3C64.2999 100.7 63.9999 101.1 64.0999 101.7C65.0999 101.7 65.9999 101.7 66.9999 101.7C68.1999 101.7 69.5999 102.2 70.3999 101.5C71.1999 100.9 71.3999 99.6004 71.6999 98.5004C71.8999 97.8004 72.2999 97.7004 72.9999 97.7004C74.4999 97.7004 75.8999 97.7004 77.2999 97.7004C78.3999 97.7004 79.6999 97.3004 80.4999 97.9004C81.2999 98.4004 81.4999 99.8004 81.8999 100.8C81.9999 100.9 82.0999 101.1 82.0999 101.2C82.1999 101.6 82.3999 101.7 82.7999 101.7C84.7999 101.7 86.6999 101.7 88.6999 101.7C88.4999 101.6 88.5999 101.5 88.5999 101.4ZM74.4999 93.0004C73.9999 93.0004 73.7999 92.9004 73.9999 92.3004C74.6999 90.5004 75.4999 88.7004 76.2999 86.7004C77.1999 88.9004 77.8999 90.8004 78.7999 93.0004C77.2999 93.0004 75.8999 93.0004 74.4999 93.0004Z" fill="#E4DCD1"/>
<path d="M129.6 101.7C131.5 101.7 133.4 101.7 135.1 101.7C135.4 101.7 135.8 101.9 136 101.4C133 94.4004 130.1 87.4004 127.1 80.4004C126.8 79.6004 126.4 79.4004 125.6 79.4004C124.3 79.5004 123 79.5004 121.8 79.4004C121.1 79.4004 120.7 79.6004 120.4 80.3004C118.3 85.2004 116.3 90.2004 114.2 95.1004C113.3 97.3004 112.3 99.4004 111.4 101.7C113.5 101.7 115.3 101.7 117.2 101.7C117.7 101.7 117.9 101.5 118 101.1C118.5 100 118.5 98.3004 119.6 97.8004C120.7 97.3004 122.1 97.7004 123.4 97.7004C123.6 97.7004 123.8 97.7004 124 97.7004C125.3 97.7004 126.9 97.3004 127.8 97.9004C128.7 98.5004 128.9 100.2 129.4 101.4C129.5 101.5 129.5 101.6 129.6 101.7ZM121.3 92.9004C122.1 90.8004 122.9 88.9004 123.8 86.7004C124.7 88.9004 125.4 90.8004 126.3 92.9004C124.5 92.9004 123 92.9004 121.3 92.9004Z" fill="#E4DCD1"/>
<path d="M19.8 87.7009C19.9 83.6009 17.4999 80.6009 13.0999 79.9009C9.29995 79.3009 5.29995 79.7009 1.39995 79.7009C1.29995 79.7009 1.19995 79.7009 1.19995 79.7009C1.19995 87.0009 1.19995 94.3009 1.19995 101.701C1.29995 101.701 1.39995 101.701 1.39995 101.701C3.09995 101.701 4.89995 101.701 6.49995 101.801C7.19995 101.801 7.39995 101.601 7.29995 101.001C7.29995 99.5009 7.29995 97.9009 7.29995 96.5009C7.29995 95.7009 7.49995 95.5009 8.29995 95.6009C9.79995 95.6009 11.1999 95.6009 12.5999 95.4009C16.7999 94.7009 19.7 91.8009 19.8 87.7009ZM7.59995 90.7009C7.09995 90.7009 7.19995 90.4009 7.19995 90.1009C7.19995 89.3009 7.19995 88.6009 7.19995 87.8009C7.19995 87.6009 7.19995 87.4009 7.19995 87.2009C7.19995 84.7009 7.19995 84.7009 9.59995 84.8009C12.3999 84.8009 13.5999 85.8009 13.5999 87.8009C13.5999 89.1009 12.9 90.1009 11.7 90.5009C10.4 90.9009 8.99995 90.6009 7.59995 90.7009Z" fill="#E4DCD1"/>
<path d="M122.6 109.501C121.9 109.501 121.2 109.501 120.5 109.501C119.8 109.401 119.7 109.701 119.7 110.401C119.7 112.601 119.7 114.801 119.7 117.001C120.9 117.001 122 117.001 123.2 117.101C125.5 116.601 126.8 115.101 126.6 113.101C126.4 111.001 124.8 109.601 122.6 109.501ZM125.1 113.901C124.9 115.001 124.2 115.601 123.1 115.901H123C121.1 116.201 121 116.101 121 114.201C121 113.901 121 113.601 121 113.301C121 113.101 121 112.801 121 112.601C121.1 112.001 120.7 111.001 121.2 110.801C122.1 110.501 123.2 110.501 124.1 111.201C125 111.901 125.3 112.801 125.1 113.901Z" fill="#E4DCD1"/>
<path d="M41 114C42 113.5 42.4 112.6 42.2 111.5C42 110.4 41.2 109.8 40.1 109.6C38.9 109.4 37.7 109.6 36.5 109.5C35.9 109.5 35.9 109.9 36 110.3C36 112.6 36 114.7 36 117C37 117.2 37.4 116.9 37.3 115.8C37.2 115.4 37.1 114.9 37.4 114.5C38.5 114.2 39.3 114.5 39.8 115.6C40.1 116.1 40.5 116.6 40.9 117.1C41.4 117 41.9 117.3 42.3 116.9C41.8 116.2 41.4 115.6 40.9 114.9C40.5 114.5 40.3 114.3 41 114ZM39.5 113.3C39.3 113.3 39.1 113.3 38.9 113.3C37.3 113.3 36.8 112.6 37.3 111.1C37.6 110.4 38.3 111 38.6 110.8C38.9 110.8 39.2 110.8 39.4 110.8C40.2 110.8 40.8 111.1 40.8 112C40.8 112.8 40.2 113.2 39.5 113.3Z" fill="#E4DCD1"/>
<path d="M78.7998 109.4C76.7998 109.4 75.0998 110.9 74.9998 112.8C74.7998 114.9 75.8998 116.6 77.9998 117C78.6998 117 79.2998 117 79.9998 117C82.0998 116.4 83.1998 114.8 82.9998 112.7C82.3998 110.8 80.7998 109.4 78.7998 109.4ZM78.8998 115.9C77.3998 115.9 76.2998 114.7 76.2998 113.2C76.2998 111.6 77.3998 110.4 78.8998 110.4C80.3998 110.4 81.3998 111.6 81.3998 113.1C81.2998 114.9 80.1998 115.9 78.8998 115.9Z" fill="#E4DCD1"/>
<path d="M13.8 109.4C11.8 109.4 10.1 110.8 9.99996 112.8C9.69996 114.9 10.9 116.6 13 117C13.7 117 14.3 117 15 117C17.1 116.4 18.2 114.8 18 112.7C17.5 110.8 15.8 109.4 13.8 109.4ZM13.8 115.9C12.4 115.9 11.2 114.7 11.2 113.2C11.2 111.7 12.3 110.5 13.7 110.5C15.2 110.5 16.3 111.6 16.3 113.1C16.4 114.8 15.3 115.9 13.8 115.9Z" fill="#E4DCD1"/>
<path d="M69.1998 109.5C68.4998 109.5 67.6998 109.5 66.9998 109.5C66.4998 109.5 66.2998 109.6 66.2998 110.2C66.2998 112.5 66.2998 114.7 66.3998 117C67.4998 117 68.5998 117 69.6998 117C72.0998 116.6 73.3998 115.1 73.1998 113C72.9998 111 71.5998 109.6 69.1998 109.5ZM71.5998 114.3C71.2998 115.3 70.4998 115.8 69.4998 115.9C67.5998 116.1 67.5998 116.1 67.5998 114.2C67.5998 113.9 67.5998 113.6 67.5998 113.3C67.5998 113.1 67.5998 112.9 67.5998 112.7C67.6998 112.1 67.1998 111.3 67.8998 110.8C68.4998 110.4 70.4998 110.9 70.9998 111.5C71.8998 112.3 71.9998 113.3 71.5998 114.3Z" fill="#E4DCD1"/>
<path d="M114.1 109.4C113.5 109.4 113.3 109.7 113.1 110.2C112.1 112.4 111.2 114.5 110.2 116.7C110.5 117.2 111 116.9 111.4 117C111.8 116.5 111.7 115.4 112.4 115.3C113.4 115.1 114.6 115.1 115.6 115.3C116.3 115.4 116.2 116.4 116.6 117C117.1 117 117.5 117 118 117C117 114.7 116.1 112.5 115.1 110.2C114.9 109.8 114.7 109.4 114.1 109.4ZM115.3 114C114.5 114 113.7 114 112.8 114C113.2 113 113.6 112.1 114.1 111C114.5 112 114.9 112.8 115.2 113.6C115.2 113.7 115.2 113.8 115.3 114Z" fill="#E4DCD1"/>
</svg>
