<svg width="160" height="98" viewBox="0 0 160 98" fill="none" xmlns="http://www.w3.org/2000/svg">
<path d="M80 49.1995C78.6 49.1995 77.2 49.1995 75.7 49.1995C75 49.1995 74.6 48.9995 74.4 48.2995C71.9 38.9995 69.4 29.6995 66.9 20.3995C66.7 19.4995 66.8999 19.2995 67.7999 19.2995C68.9999 19.2995 70.2 19.3995 71.4 19.2995C72.4 19.1995 72.7 19.6995 73 20.5995C74.9 28.1995 76.8999 35.6995 78.7999 43.2995C78.9999 43.9995 79.1 44.4995 80 44.4995C80.9 44.4995 81.0999 43.9995 81.2999 43.2995C83.1999 35.6995 85.1999 28.1995 87.0999 20.5995C87.3999 19.5995 87.6999 19.1995 88.7999 19.2995C89.8999 19.3995 90.9999 19.3995 92.0999 19.2995C93.0999 19.1995 93.3 19.4995 93 20.4995C91.4 26.2995 89.8999 32.0995 88.2999 37.7995C87.3999 41.1995 86.3999 44.4995 85.5999 47.9995C85.3999 48.9995 84.9 49.2995 84 49.1995C82.6 49.1995 81.3 49.1995 80 49.1995Z" fill="#E4DCD1"/>
<path d="M38.8001 22.7992C41.6001 20.9992 44.4001 19.6992 47.3001 18.8992C48.3001 18.5992 48.6001 18.7992 48.6001 19.8992C48.5001 21.3992 49.0001 23.1992 48.4001 24.3992C47.8001 25.5992 45.8001 25.2992 44.5001 25.7992C42.9001 26.3992 41.4001 27.0992 39.8001 27.7992C39.0001 28.1992 38.7001 28.6992 38.8001 29.4992C38.8001 35.5992 38.8001 41.7992 38.8001 47.8992C38.8001 48.8992 38.6001 49.2992 37.5001 49.1992C36.4001 49.0992 35.2001 49.0992 34.0001 49.1992C33.3001 49.1992 33.1001 48.9992 33.1001 48.2992C33.1001 38.9992 33.1001 29.5992 33.1001 20.2992C33.1001 19.4992 33.4001 19.2992 34.1001 19.3992C35.3001 19.3992 36.5001 19.4992 37.7001 19.3992C38.5001 19.3992 38.8001 19.5992 38.8001 20.4992C38.8001 21.0992 38.8001 21.7992 38.8001 22.7992Z" fill="#E4DCD1"/>
<path d="M54.8 34.2992C54.8 29.6992 54.8 25.0992 54.8 20.3992C54.8 19.4992 55.1001 19.1992 56.0001 19.1992C57.2001 19.2992 58.3001 19.2992 59.5001 19.1992C60.4001 19.1992 60.7 19.3992 60.6 20.2992C60.6 23.8992 60.6 27.5992 60.6 31.1992C60.6 36.6992 60.6 42.0992 60.6 47.5992C60.6 48.8992 60.2001 49.1992 59.0001 49.0992C57.9001 48.9992 56.9 48.9992 55.8 49.0992C55 49.1992 54.8 48.7992 54.8 47.9992C54.8 43.5992 54.8 38.9992 54.8 34.2992Z" fill="#E4DCD1"/>
<path d="M105.3 34.3998C105.3 38.9998 105.3 43.5998 105.3 48.0998C105.3 48.9998 105 49.2998 104.2 49.1998C103.1 49.0998 102 49.0998 100.9 49.1998C99.9 49.2998 99.5 48.9998 99.5 47.8998C99.5 40.0998 99.5 32.2998 99.5 24.3998C99.5 22.9998 99.5 21.5998 99.5 20.2998C99.5 19.4998 99.8 19.1998 100.6 19.2998C101.8 19.3998 103 19.3998 104.2 19.2998C105.1 19.2998 105.3 19.4998 105.3 20.3998C105.2 25.0998 105.3 29.7998 105.3 34.3998Z" fill="#E4DCD1"/>
<path d="M106.4 4.5C106.4 6.7 104.6 8.39999 102.4 8.39999C100.2 8.39999 98.3999 6.59999 98.3999 4.39999C98.3999 2.19999 100.2 0.5 102.5 0.5C104.7 0.5 106.4 2.2 106.4 4.5Z" fill="#E4DCD1"/>
<path d="M4.70004 97.9997C4.20004 97.9997 3.80001 97.9997 3.30001 97.9997C1.20001 97.3997 0.100023 96.1997 2.3155e-05 94.3997C-0.0999768 92.2997 1.2 90.5997 3.1 90.1997C5.3 89.7997 7.20001 90.9997 7.80001 92.9997C8.40001 94.9997 7.40005 96.9997 5.40005 97.7997C5.20005 97.7997 5.00004 97.8997 4.70004 97.9997Z" fill="#E4DCD1"/>
<path d="M141.6 66.7004C141.6 65.3004 141.6 63.9004 141.6 62.4004C141.6 61.6004 142.2 61.4004 142.5 61.7004C143.2 62.3004 143.7 61.9004 144.4 61.7004C145 61.5004 145.7 61.4004 146.4 61.4004C148.3 61.4004 149.2 62.3004 149.4 64.1004C149.6 66.3004 149.5 68.5004 149.6 70.8004C149.6 71.2004 149.6 71.6004 149 71.6004C148.3 71.6004 148.3 71.2004 148.3 70.7004C148.3 68.8004 148.3 66.9004 148.2 65.0004C148 62.8004 147.2 62.3004 145 62.7004C143.1 63.0004 143 63.2004 143 65.1004C143 67.0004 143 68.8004 143 70.7004C143 71.2004 143 71.7004 142.2 71.6004C141.5 71.6004 141.7 71.0004 141.7 70.6004C141.6 69.4004 141.6 68.0004 141.6 66.7004Z" fill="#E4DCD1"/>
<path d="M114 66.7C114 68.1 114 69.5 114 70.8C114 71.7 113.4 72 113 71.5C112.5 70.9 112.2 71.3 111.8 71.4C111.5 71.5 111.3 71.6 111 71.6C108 72.3 106.4 71.2 106.4 68.1C106.4 66.2 106.4 64.4 106.4 62.5C106.4 62.1 106.2 61.5 107 61.5C107.7 61.5 107.6 62 107.6 62.5C107.6 64.4 107.6 66.3 107.7 68.2C107.7 69.2 107.8 70.1 108.9 70.5C109.7 70.8 112.1 70.4 112.6 69.8C112.9 69.5 112.8 69.1 112.8 68.8C112.8 66.7 112.8 64.5 112.8 62.4C112.8 62 112.7 61.5 113.4 61.5C114.1 61.5 114 62 114 62.4C114 63.9 114 65.3 114 66.7Z" fill="#E4DCD1"/>
<path d="M82.7 71.8993C82.2 71.7993 81.5 71.7993 80.7 71.6993C80.3 71.5993 79.9 71.6992 79.9 71.0992C80 70.2992 80.5 70.5992 80.9 70.5992C82 70.7992 82.9999 70.8992 84.0999 70.7992C84.9999 70.6992 85.7 70.2993 85.9 69.3993C86.1 68.3993 85.7 67.7992 84.7 67.4992C83.7 67.2992 82.5999 67.0992 81.5999 66.7992C80.5999 66.4992 79.8999 65.8992 79.7999 64.7992C79.6999 63.4992 79.9999 62.4992 81.2999 61.9992C82.9999 61.1992 84.7 61.6992 86.4 61.8992C86.9 61.8992 86.7999 62.3993 86.7999 62.6993C86.6999 63.1993 86.2999 62.9992 86.0999 62.9992C84.9999 62.8992 83.7999 62.6992 82.5999 62.8992C81.6999 62.9992 81.0999 63.3992 81.0999 64.3992C81.0999 65.3992 81.7 65.6992 82.5 65.8992C83.4 66.0992 84.3 66.1992 85.2 66.4992C86.7 66.8992 87.2 67.5992 87.2 69.0992C87.2 70.6992 86.5 71.5992 85.2 71.9992C84.5 71.8992 83.7 71.7993 82.7 71.8993Z" fill="#E4DCD1"/>
<path d="M159.7 67.8004C159.7 68.4004 159.7 69.1005 159.7 69.7005C159.5 70.8005 158.8 71.4005 157.8 71.7005C156.2 72.0005 154.6 71.9004 153 71.6004C152.5 71.5004 152.4 71.3005 152.5 70.9005C152.6 70.4005 152.9 70.5005 153.2 70.5005C154.2 70.6005 155.2 70.7005 156.3 70.7005C157.7 70.7005 158.5 70.1005 158.6 69.0005C158.7 67.6005 157.7 67.4005 156.7 67.2005C156 67.1005 155.2 66.9005 154.5 66.7005C152.9 66.3005 152.5 65.7005 152.5 64.2005C152.5 62.7005 153.2 62.0005 154.6 61.5005C156.1 61.1005 157.5 61.5005 159 61.6005C159.5 61.6005 159.5 62.0004 159.5 62.4004C159.5 63.0004 159.1 62.8004 158.7 62.8004C157.6 62.7004 156.5 62.5005 155.4 62.6005C154.5 62.7005 153.9 63.0005 153.8 64.0005C153.7 65.0005 154.3 65.4005 155.2 65.6005C156.1 65.8005 157 65.9005 157.9 66.2005C158.7 66.5005 159.5 66.8004 159.7 67.8004Z" fill="#E4DCD1"/>
<path d="M118.2 66.1004C118.2 65.4004 118.2 64.8004 118.2 64.1004C118.2 63.4004 118.4 62.6004 117.2 62.7004C116.9 62.7004 116.7 62.5004 116.8 62.2004C116.8 61.9004 116.8 61.6004 117.2 61.6004C118.5 61.8004 118.3 60.8004 118.3 60.1004C118.3 59.8004 118.3 59.6004 118.3 59.3004C118.3 58.8004 118.3 58.4004 119 58.4004C119.6 58.4004 119.5 58.8004 119.6 59.2004C119.8 61.4004 119.8 61.4004 122.1 61.5004C122.5 61.5004 122.9 61.3004 123 62.0004C123 62.7004 122.5 62.6004 122.1 62.6004C119.6 62.7004 119.6 62.7004 119.6 65.3004C119.6 66.4004 119.6 67.5004 119.7 68.6004C119.9 70.4004 120.2 70.6004 122 70.6004C122.4 70.6004 123 70.1004 123.1 71.0004C123.2 71.9004 122.5 71.7004 122 71.7004C119.3 72.0004 118.7 71.4004 118.4 68.8004C118.2 68.0004 118.2 67.1004 118.2 66.1004Z" fill="#E4DCD1"/>
<path d="M101.5 64.4992C101.5 62.3992 101.5 60.1992 101.5 58.0992C101.5 57.6992 101.4 57.1992 102.1 57.1992C102.8 57.1992 102.8 57.5992 102.8 58.0992C102.8 62.3992 102.8 66.5992 102.8 70.8992C102.8 71.3992 102.7 71.7992 102.1 71.7992C101.5 71.7992 101.5 71.3992 101.5 70.9992C101.5 68.6992 101.5 66.5992 101.5 64.4992Z" fill="#E4DCD1"/>
<path d="M126.9 66.5992C126.9 67.9992 126.9 69.2992 126.9 70.6992C126.9 71.1992 127 71.6992 126.2 71.6992C125.5 71.6992 125.6 71.1992 125.6 70.7992C125.6 68.0992 125.6 65.2992 125.6 62.5992C125.6 62.1992 125.5 61.6992 126.2 61.6992C127 61.6992 126.9 62.1992 126.9 62.6992C126.9 63.8992 126.9 65.2992 126.9 66.5992Z" fill="#E4DCD1"/>
<path d="M126.9 58.501C126.9 59.001 126.8 59.3009 126.3 59.3009C125.6 59.3009 125.6 58.901 125.6 58.401C125.6 57.901 125.7 57.701 126.3 57.701C126.9 57.601 126.9 58.001 126.9 58.501Z" fill="#E4DCD1"/>
<path d="M6.30006 21.0008C8.10005 20.2008 9.80004 19.4008 11.6 19.0008C18.5 17.8008 23.8001 20.1008 25.0001 27.8008C25.7001 32.3008 25.8001 36.8008 24.8001 41.2008C23.6001 46.8008 20.3001 49.5008 14.2001 49.9008C12.0001 50.0008 9.70004 50.0008 7.60004 49.5008C6.30004 49.2008 6.10008 49.6008 6.20008 50.8008C6.30008 54.2008 6.20008 57.7008 6.20008 61.1008C6.20008 62.1008 5.90009 62.4008 4.90009 62.4008C3.80009 62.3008 2.70004 62.3008 1.60004 62.4008C0.700043 62.5008 0.400067 62.1008 0.500067 61.2008C0.500067 60.9008 0.500067 60.6008 0.500067 60.3008C0.500067 47.2008 0.500067 34.1008 0.500067 21.1008C0.500067 19.7008 0.900079 19.3008 2.20008 19.5008C3.00008 19.6008 3.90008 19.5008 4.70008 19.5008C6.10008 19.4008 6.10006 19.4008 6.30006 21.0008ZM6.20008 43.2008C6.20008 43.7008 6.20007 44.2008 7.00007 44.3008C9.10007 44.5008 11.2001 44.8008 13.4001 44.6008C16.6001 44.3008 18.3 42.8008 19.1 39.8008C19.8 37.2008 19.7 34.5008 19.6 31.8008C19.5 30.2008 19.3001 28.5008 18.5001 27.0008C17.6001 25.2008 16.2001 24.1008 14.2001 23.9008C11.7001 23.7008 9.50008 24.5008 7.20008 25.3008C6.40008 25.6008 6.20008 26.1008 6.20008 26.9008C6.30008 29.6008 6.20008 32.2008 6.20008 34.9008C6.20008 37.7008 6.20008 40.5008 6.20008 43.2008Z" fill="#E4DCD1"/>
<path d="M135.7 34.4997C135.7 36.8997 135.7 39.3997 135.7 41.7997C135.7 43.5997 136.2 44.2997 137.9 44.7997C138.3 44.8997 138.6 44.9997 138.6 45.5997C138.5 46.6997 138.5 47.7997 138.5 48.8997C138.5 49.5997 138.2 49.8997 137.5 49.8997C135.3 49.6997 133.1 49.5997 131.3 48.0997C130.8 47.5997 130.3 47.8997 129.8 48.0997C126.7 49.1997 123.6 49.8997 120.3 49.8997C115.7 49.8997 112.8 47.2997 112.1 42.7997C112.1 42.6997 112.1 42.5997 112.1 42.4997C111.3 35.2997 114.2 31.8997 121.5 31.4997C123.9 31.2997 126.4 31.0997 128.8 30.8997C129.7 30.7997 130.1 30.4997 130 29.5997C129.9 28.9997 130 28.3997 129.9 27.8997C129.5 25.3997 128.2 24.1997 125.7 24.1997C123.4 24.1997 121.2 24.3997 118.9 24.4997C117.6 24.5997 116.2 24.6997 114.9 24.8997C114.2 24.9997 113.9 24.7997 114 24.0997C114 23.4997 114 22.8997 114 22.3997C113.9 19.8997 113.9 19.8997 116.3 19.6997C119.7 19.2997 123 18.7997 126.4 18.8997C127.4 18.8997 128.4 18.9997 129.4 19.2997C133.3 20.1997 135.5 22.8997 135.7 27.2997C135.8 29.4997 135.7 31.9997 135.7 34.4997ZM130 36.0997C130 35.4997 129.9 35.1997 129.2 35.2997C126.9 35.4997 124.6 35.5997 122.3 35.8997C118.7 36.2997 117.3 38.2997 118 41.8997C118.5 44.1997 119.7 45.0997 122.1 44.9997C124.2 44.8997 126.2 44.4997 128.1 44.0997C130 43.6997 130 43.5997 130 41.6997C130 40.9997 130 40.2997 130 39.5997C130 38.2997 130 37.1997 130 36.0997Z" fill="#E4DCD1"/>
<path d="M98.3001 66.7994C98.3001 67.0994 98.3001 67.2994 98.3001 67.5994C98.1001 71.3994 96.2001 72.5994 92.0001 71.5994C90.7001 71.2994 90.2001 70.0994 90.0001 68.7994C89.8001 67.4994 89.8001 66.1994 90.0001 64.7994C90.3001 62.5994 91.5001 61.4994 93.9001 61.3994C96.3001 61.2994 97.6001 62.2994 98.1001 64.3994C98.3001 65.1994 98.3001 65.9994 98.3001 66.7994ZM97.0001 66.7994C97.0001 66.1994 97.0001 65.5994 96.9001 65.0994C96.6001 63.3994 95.7001 62.5994 94.0001 62.6994C92.3001 62.7994 91.6001 63.3994 91.3001 65.1994C91.1001 66.1994 91.2001 67.1994 91.3001 68.2994C91.6001 70.2994 92.3001 70.8994 94.3001 70.8994C96.1001 70.8994 96.9001 70.0994 97.0001 68.0994C97.0001 67.5994 97.0001 67.1994 97.0001 66.7994Z" fill="#E4DCD1"/>
<path d="M130 66.5994C130 66.2994 130 66.0994 130 65.7994C130.1 62.1994 132.7 60.3994 136.1 61.7994C137.1 62.1994 137.8 62.9994 138 63.9994C138.5 65.8994 138.5 67.7994 138 69.5994C137.6 70.8994 136.6 71.5994 135.3 71.7994C131.4 72.2994 130 70.8994 130 66.5994ZM137.1 66.8995C137 66.1995 137 65.3994 136.9 64.6994C136.5 63.1994 135.6 62.5994 133.9 62.6994C132.3 62.7994 131.6 63.3994 131.4 64.9994C131.3 66.0994 131.3 67.0994 131.4 68.1994C131.6 70.0994 132.4 70.7994 134.4 70.7994C136.1 70.7994 136.9 69.9994 137.1 68.1994C137.1 67.6994 137 67.2995 137.1 66.8995Z" fill="#E4DCD1"/>
</svg>
