<svg width="116" height="59" viewBox="0 0 116 59" fill="none" xmlns="http://www.w3.org/2000/svg">
<path d="M14 12.6996V26.3996H26.2C28.9 26.3996 30.9 25.7996 32.2 24.4996C33.4 23.2996 34 21.5996 34 19.3996C34 17.2996 33.4 15.6996 32.3 14.4996C31 13.1996 29 12.5996 26.4 12.5996L14 12.6996ZM32.9 58.1996L23.1 38.0996H14.1V58.1996H0.5V0.599609H26.8C39.2 0.599609 48 6.29961 48 19.0996C48 27.3996 44.5 32.9996 37.3 35.9996L48.6 58.1996H32.9Z" fill="#E4DCD1"/>
<path d="M98.1001 45.8996H68.8002V33.9996H85.6001V21.7996H68.8002V12.3996H97.2001V1.59961H55.1001V58.1996H98.1001V45.8996Z" fill="#E4DCD1"/>
<path d="M107 55.7H109.5V53.5C109.5 53 109.4 52.6 109.2 52.4C109 52.2 108.7 52.1 108.3 52.1C107.9 52.1 107.6 52.2 107.4 52.4C107.2 52.6 107.1 53 107.1 53.5L107 55.7ZM115.3 52.3L111.6 54.1V55.8H115.3V58.3H104.8V53.5C104.8 51.2 105.8 49.6 108.2 49.6C109.7 49.6 110.7 50.2 111.3 51.6L115.4 49.5L115.3 52.3Z" fill="#E4DCD1"/>
<path d="M115 40.4004H113.1V45.7004H110.9V42.7004H108.7V45.7004H107V40.5004H104.8V48.2004H115V40.4004Z" fill="#E4DCD1"/>
<path d="M115 35.1996H105.9V32.0996H104.8V39.4996H105.9V36.3996H115V35.1996Z" fill="#E4DCD1"/>
<path d="M115 29.4H110.4V24.2H115V23H104.8V24.2H109.3V29.4H104.8V30.6H115V29.4Z" fill="#E4DCD1"/>
<path d="M115 19.5996H104.8V20.7996H115V19.5996Z" fill="#E4DCD1"/>
<path d="M115.3 9.80078V10.9008L108.1 15.5008C107.7 15.8008 107.2 16.0008 106.8 16.3008H115.3V17.4008H104.8V16.3008L112.1 11.7008C112.6 11.4008 113 11.1008 113.4 10.9008H104.7V9.80078H115.3Z" fill="#E4DCD1"/>
<path d="M115.3 0V1.29999L109.7 4.39999L112.3 6.39999H115.3V7.60001H104.8V6.39999H110.8C110.3 6.09999 109.6 5.49999 108.7 4.89999L104.8 1.89999V0.600006L108.8 3.70001L115.3 0Z" fill="#E4DCD1"/>
</svg>
