<svg width="207" height="55" viewBox="0 0 207 55" fill="none" xmlns="http://www.w3.org/2000/svg">
<path d="M37.8999 42.5004V6.90039H44.0999V42.5004H37.8999Z" fill="#E4DCD1"/>
<path d="M59.8999 43.1008C56.7999 43.1008 54.6999 42.0008 54.4999 41.8008V54.0008H48.5999V16.5008H53.7999V18.3008C54.0999 18.0008 56.5999 15.8008 60.8999 15.8008C67.8999 15.8008 72.4999 21.3008 72.4999 29.1008C72.4999 37.5008 66.7999 43.1008 59.8999 43.1008ZM59.6998 20.6008C56.7998 20.6008 54.5999 22.3008 54.4999 22.4008V36.9008C54.7999 37.1008 56.4999 38.3008 59.0999 38.3008C63.4999 38.3008 66.6998 35.0008 66.6998 29.2008C66.5998 23.8008 63.4998 20.6008 59.6998 20.6008Z" fill="#E4DCD1"/>
<path d="M79.5 12.1012C77.6 12.1012 76 10.6012 76 8.70117C76 6.80117 77.5 5.20117 79.5 5.20117C81.4 5.20117 82.9 6.70117 82.9 8.70117C82.9 10.6012 81.4 12.1012 79.5 12.1012ZM76.6 42.5012V16.5012H82.5V42.5012H76.6Z" fill="#E4DCD1"/>
<path d="M102.4 20.7996C102.1 20.6996 101.2 20.5996 100.6 20.5996C95.8997 20.5996 93.6997 23.6996 93.0997 24.5996V42.3996H87.1997V16.3996H92.2998V19.6996C92.4998 19.2996 95.5998 15.5996 100.8 15.5996C102.7 15.5996 103.5 16.0996 103.7 16.1996L102.4 20.7996Z" fill="#E4DCD1"/>
<path d="M121 42.5012V40.6012C120.6 40.9012 117.6 43.1012 113.3 43.1012C108.2 43.1012 104.9 39.7012 104.9 34.9012C104.9 26.0012 115.9 25.8011 119.6 25.8011H120.6V24.8011C120.6 23.1011 120.4 22.2012 119.7 21.5012C119 20.8012 117.9 20.3011 115.5 20.3011C112 20.3011 108.8 22.1011 108.5 22.3011L106.5 18.5012C106.9 18.1012 110.3 15.7012 116 15.7012C119.9 15.7012 122.2 16.6012 124.1 18.5012C126.1 20.5012 126.1 23.1012 126.1 26.6012V42.6012H121V42.5012ZM120.6 29.8011C120 29.8011 119.4 29.8011 119.4 29.8011C115.7 29.8011 112.8 30.3011 111.3 31.8011C110.6 32.5011 110.3 33.3012 110.3 34.5012C110.3 37.2012 112.4 38.4012 114.9 38.4012C117.9 38.4012 120.2 36.9012 120.7 36.6012V29.8011H120.6Z" fill="#E4DCD1"/>
<path d="M146.9 42.5012V28.3011C146.9 24.9011 146.8 23.1012 145.7 21.9012C145.2 21.4012 144.1 20.8011 142.4 20.8011C139.5 20.8011 137 22.5012 136.6 22.7012V42.5012H130.7V16.5012H135.8V18.4012C136.2 18.1012 139.5 15.7012 143.5 15.7012C146.7 15.7012 148.8 16.9012 150 18.1012C152.7 20.8012 152.7 24.1012 152.7 27.9012V42.5012H146.9Z" fill="#E4DCD1"/>
<path d="M177.8 51.6012C176 53.4012 173.2 54.9012 168.6 54.9012C161.8 54.9012 157.9 51.6012 157.5 51.2012L160 47.4012C160.4 47.6012 163.7 50.0012 168 50.0012C170.4 50.0012 171.9 49.4012 173 48.5012C174.6 47.1012 174.8 45.1012 174.8 42.5012V40.7012C174.4 40.9012 172.1 42.5012 168.2 42.5012C160.7 42.5012 156.7 36.5012 156.7 29.7012C156.7 21.9012 162.2 15.7012 170.3 15.7012C175.5 15.7012 179.8 18.0011 180.5 18.3011V42.3011C180.5 46.3011 180.3 49.0012 177.8 51.6012ZM174.7 21.5012C174.3 21.3012 172.6 20.5012 170.2 20.5012C165.8 20.5012 162.6 23.9012 162.6 29.4012C162.6 34.6012 165.6 37.7012 169.4 37.7012C172.2 37.7012 174.5 36.1012 174.7 35.9012V21.5012Z" fill="#E4DCD1"/>
<path d="M200.2 42.5012V40.6012C199.8 40.9012 196.8 43.1012 192.5 43.1012C187.4 43.1012 184.1 39.7012 184.1 34.9012C184.1 26.0012 195.1 25.8011 198.8 25.8011H199.8V24.8011C199.8 23.1011 199.6 22.2012 198.9 21.5012C198.2 20.8012 197.1 20.3011 194.7 20.3011C191.2 20.3011 188 22.1011 187.7 22.3011L185.7 18.5012C186.1 18.1012 189.5 15.7012 195.2 15.7012C199.1 15.7012 201.4 16.6012 203.3 18.5012C205.3 20.5012 205.3 23.1012 205.3 26.6012V42.6012H200.2V42.5012ZM199.8 29.8011C199.2 29.8011 198.6 29.8011 198.6 29.8011C194.9 29.8011 192 30.3011 190.5 31.8011C189.8 32.5011 189.5 33.3012 189.5 34.5012C189.5 37.2012 191.6 38.4012 194.1 38.4012C197.1 38.4012 199.4 36.9012 199.9 36.6012V29.8011H199.8Z" fill="#E4DCD1"/>
<path d="M145.2 10.2C143.7 10.2 142.7 9.49999 142.6 9.39999L143.2 8.29999C143.3 8.39999 144.1 8.89999 145.1 8.89999C145.9 8.89999 146.4 8.5 146.4 8C146.4 7.4 145.8 7.19999 144.9 6.79999C144.1 6.49999 143 6.00001 143 4.70001C143 3.40001 144.1 2.5 145.7 2.5C147.2 2.5 148 3.10001 148 3.10001L147.4 4.10001C147.3 4.10001 146.5 3.60001 145.7 3.60001C144.9 3.60001 144.6 3.99999 144.6 4.39999C144.6 4.89999 145.1 5.09999 145.9 5.39999C146.9 5.79999 148.1 6.30001 148.1 7.70001C148 9.40001 146.8 10.2 145.2 10.2Z" fill="#E4DCD1"/>
<path d="M156.1 6.90079H151.2C151.2 7.80079 151.7 8.90079 153.3 8.90079C154.3 8.90079 155.1 8.50079 155.3 8.40079L155.9 9.50079C155.8 9.50079 154.8 10.3008 153.2 10.3008C150.9 10.3008 149.7 8.7008 149.7 6.6008C149.7 4.3008 151.1 2.80078 153.1 2.80078C155.1 2.80078 156.2 4.20079 156.2 6.50079C156.1 6.60079 156.1 6.80079 156.1 6.90079ZM153 3.80078C152 3.80078 151.3 4.6008 151.2 5.6008H154.6C154.6 5.1008 154.3 3.80078 153 3.80078Z" fill="#E4DCD1"/>
<path d="M166.7 10.0004V5.90039C166.7 5.40039 166.7 4.70038 166.4 4.30038C166.2 4.10038 165.9 3.90039 165.5 3.90039C164.7 3.90039 164 4.4004 163.9 4.5004C164 4.8004 164 5.2004 164 6.1004V9.90039H162.4V5.90039C162.4 5.10039 162.4 4.5004 162.1 4.1004C161.9 3.9004 161.7 3.80038 161.3 3.80038C160.6 3.80038 159.9 4.20038 159.7 4.30038V9.80038H158.1V2.6004H159.5V3.1004C159.6 3.0004 160.5 2.40039 161.6 2.40039C162.6 2.40039 163.1 2.90041 163.4 3.20041C163.8 3.00041 164.6 2.40039 165.8 2.40039C166.6 2.40039 167.2 2.7004 167.6 3.0004C168.4 3.8004 168.4 4.70041 168.4 6.20041V9.80038H166.7V10.0004Z" fill="#E4DCD1"/>
<path d="M176.6 6.90079H171.7C171.7 7.80079 172.2 8.90079 173.8 8.90079C174.8 8.90079 175.6 8.50079 175.8 8.40079L176.4 9.50079C176.3 9.50079 175.3 10.3008 173.7 10.3008C171.4 10.3008 170.2 8.7008 170.2 6.6008C170.2 4.3008 171.6 2.80078 173.6 2.80078C175.6 2.80078 176.7 4.20079 176.7 6.50079C176.7 6.60079 176.6 6.80079 176.6 6.90079ZM173.6 3.80078C172.6 3.80078 171.9 4.6008 171.8 5.6008H175.2C175.1 5.1008 174.9 3.80078 173.6 3.80078Z" fill="#E4DCD1"/>
<path d="M183.1 9.9996V6.09961C183.1 5.19961 183.1 4.69959 182.8 4.29959C182.7 4.19959 182.4 3.9996 181.9 3.9996C181.1 3.9996 180.4 4.4996 180.3 4.4996V9.9996H178.7V2.79959H180.1V3.29959C180.2 3.19959 181.1 2.59961 182.2 2.59961C183.1 2.59961 183.7 2.89959 184 3.29959C184.8 4.09959 184.7 4.9996 184.7 5.9996V9.9996H183.1Z" fill="#E4DCD1"/>
<path d="M189.7 10.2004C189.1 10.2004 188.4 10.0004 188 9.6004C187.4 9.0004 187.5 8.30039 187.5 7.40039V4.20041H186.2V2.90039H187.5V0.900391H189.1V2.90039H191.2V4.20041H189.1V7.6004C189.1 8.2004 189.1 8.90039 190.1 8.90039C190.6 8.90039 191 8.70041 191.1 8.70041L191.5 9.80038C191.3 9.80038 190.7 10.2004 189.7 10.2004Z" fill="#E4DCD1"/>
<path d="M199.1 6.90079H194.2C194.2 7.80079 194.7 8.90079 196.3 8.90079C197.3 8.90079 198.1 8.50079 198.3 8.40079L198.9 9.50079C198.8 9.50079 197.8 10.3008 196.2 10.3008C193.9 10.3008 192.7 8.7008 192.7 6.6008C192.7 4.3008 194.1 2.80078 196.1 2.80078C198.1 2.80078 199.2 4.20079 199.2 6.50079C199.2 6.60079 199.1 6.80079 199.1 6.90079ZM196.1 3.80078C195.1 3.80078 194.4 4.6008 194.3 5.6008H197.7C197.6 5.1008 197.4 3.80078 196.1 3.80078Z" fill="#E4DCD1"/>
<path d="M203.2 10.2C201.7 10.2 200.7 9.49999 200.6 9.39999L201.2 8.29999C201.3 8.39999 202.1 8.89999 203.1 8.89999C203.9 8.89999 204.4 8.5 204.4 8C204.4 7.4 203.8 7.19999 202.9 6.79999C202.1 6.49999 201 6.00001 201 4.70001C201 3.40001 202.1 2.5 203.7 2.5C205.2 2.5 206 3.10001 206 3.10001L205.4 4.10001C205.3 4.10001 204.5 3.60001 203.7 3.60001C202.9 3.60001 202.6 3.99999 202.6 4.39999C202.6 4.89999 203.1 5.09999 203.9 5.39999C204.9 5.79999 206.1 6.30001 206.1 7.70001C205.9 9.40001 204.7 10.2 203.2 10.2Z" fill="#E4DCD1"/>
<path fill-rule="evenodd" clip-rule="evenodd" d="M27.9999 29.1006C27.3999 27.5006 19.9999 25.9006 12.9999 26.2006C6.4999 26.5006 0.4999 28.5006 0.9999 31.5006C2.9999 37.5006 29.4999 33.6006 27.9999 29.1006Z" fill="#E4DCD1"/>
<path fill-rule="evenodd" clip-rule="evenodd" d="M30.1997 33.2995C27.9997 31.2995 8.5998 48.4995 11.9998 54.2995C15.7998 59.1995 33.2997 36.4995 30.1997 33.2995Z" fill="#E4DCD1"/>
<path fill-rule="evenodd" clip-rule="evenodd" d="M13.9 2.00079C7.60003 6.00079 30.0001 30.7008 32.3001 27.7008C35.5001 23.8008 21.5 -0.799214 13.9 2.00079Z" fill="#E4DCD1"/>
</svg>
