<svg width="129" height="88" viewBox="0 0 129 88" fill="none" xmlns="http://www.w3.org/2000/svg">
<path d="M122.8 46.0992V47.6992H125.2V46.0992C125.2 45.2992 124.8 44.7992 124 44.7992C123.2 44.7992 122.8 45.2992 122.8 46.0992ZM126.2 45.9992V47.5992H129V48.6992H121.8V45.9992C121.8 44.5992 122.7 43.6992 124 43.6992C125.2 43.6992 126.2 44.5992 126.2 45.9992Z" fill="#E4DCD1"/>
<path d="M129 37.4008H125.9V40.3008H129V41.4008H121.8V40.3008H124.9V37.4008H121.8V36.3008H129V37.4008Z" fill="#E4DCD1"/>
<path d="M123.4 31.1992L126.6 32.2992V30.0992L123.4 31.1992ZM129 29.2992L127.6 29.7992V32.5992L129 33.0992V34.2992L121.8 31.6992V30.7992L129 28.1992V29.2992Z" fill="#E4DCD1"/>
<path d="M122.8 23.4004V25.0004H125V23.4004C125 22.7004 124.6 22.2004 123.9 22.2004C123.2 22.2004 122.8 22.7004 122.8 23.4004ZM129 22.2004L126 23.7004V25.1004H129V26.2004H121.8V23.4004C121.8 22.0004 122.7 21.2004 123.9 21.2004C124.9 21.2004 125.6 21.8004 125.8 22.6004L129 20.9004V22.2004Z" fill="#E4DCD1"/>
<path d="M129 13.2992H124.2L127.7 14.8992V15.6992L124.2 17.3992H129V18.4992H121.8V17.3992L126.3 15.2992L121.8 13.2992V12.1992H129V13.2992Z" fill="#E4DCD1"/>
<path d="M123.4 7.09961L126.6 8.19962V5.9996L123.4 7.09961ZM129 5.19962L127.6 5.69962V8.4996L129 8.9996V10.1996L121.8 7.59961V6.69962L129 4.09961V5.19962Z" fill="#E4DCD1"/>
<path d="M15.7998 2.19922L11.8998 32.8992L7.99976 2.19922H0.299805L7.7998 51.6992H15.9998L23.4998 2.19922H15.7998Z" fill="#E4DCD1"/>
<path d="M28.2998 42.6V1H36.3998V43C36.3998 44.8 36.9997 45.8 38.1997 45.8C39.6997 45.8 40.4998 44.9 40.4998 43.2V1H48.5997V51.7H41.1997L41.0997 47.4C40.3997 50.5 38.6998 52.2 34.4998 52.2C29.7998 52.2 28.2998 49 28.2998 42.6Z" fill="#E4DCD1"/>
<path d="M64.6998 21.8996V9.3996C64.6998 8.1996 63.9999 6.8996 62.5999 6.8996C61.1999 6.8996 60.4999 7.6996 60.4999 9.3996V21.8996H64.6998ZM60.4999 27.9996V43.2996C60.4999 44.9996 61.1999 45.7996 62.5999 45.7996C63.9999 45.7996 64.6998 44.5996 64.6998 43.2996V32.6996H72.6998V39.8996C72.6998 47.3996 69.5999 52.2996 62.5999 52.2996C55.7999 52.2996 52.3999 48.1996 52.3999 39.8996V12.9996C52.3999 4.7996 55.7999 0.599609 62.5999 0.599609C69.6999 0.599609 72.6998 5.4996 72.6998 12.9996V27.9996H60.4999Z" fill="#E4DCD1"/>
<path d="M76.5996 2.19922V51.6992H93.1996V45.4992H84.6996V2.19922H76.5996Z" fill="#E4DCD1"/>
<path d="M103.2 43.3C103.2 45 103.9 45.8 105.3 45.8C106.7 45.8 107.4 45 107.4 43.3V9.5C107.4 7.8 106.7 7 105.3 7C103.9 7 103.2 7.8 103.2 9.5V43.3ZM115.6 12.9V39.8C115.6 47.2 112.5 52.2 105.4 52.2C98.5998 52.2 95.1997 48 95.1997 39.8V12.9C95.1997 4.69999 98.5998 0.5 105.4 0.5C112.4 0.5 115.6 5.59999 115.6 12.9Z" fill="#E4DCD1"/>
<path d="M115 77H4V88H115V77Z" fill="#E4DCD1"/>
</svg>
