<svg width="128" height="128" viewBox="0 0 128 128" fill="none" xmlns="http://www.w3.org/2000/svg">
<rect width="128" height="128" fill="#030304"/>
<path d="M50.3777 107.075C46.0639 105.654 42.4037 103.682 39.3971 101.16C36.3905 98.6377 33.9991 95.6691 32.2305 92.2465C30.4543 88.824 29.2855 85.1113 28.701 81.1159H44.8259C45.3257 83.6158 46.1177 85.8479 47.1943 87.8047C48.2708 89.7689 49.6703 91.4207 51.385 92.7674C53.0998 94.1141 55.1529 95.1557 57.5443 95.8848C59.9357 96.614 62.704 96.9785 65.8643 96.9785C67.6406 96.9785 69.3015 96.8595 70.8625 96.6363C72.4235 96.4056 73.8691 96.0783 75.1994 95.6542C76.5297 95.2301 77.7292 94.6869 78.8134 94.0099C79.89 93.3403 80.805 92.5516 81.5586 91.6439C82.3122 90.7436 82.8812 89.7317 83.2657 88.6157C83.6501 87.4997 83.8424 86.2497 83.8424 84.8658V84.8063C83.8424 82.6114 83.4425 80.796 82.6582 79.3526C81.8662 77.9092 80.7281 76.6666 79.2441 75.6324C77.76 74.5908 75.9991 73.7352 73.9537 73.0655C71.9083 72.3959 69.6783 71.7858 67.2485 71.2501L55.2221 68.5419C51.485 67.6565 48.0939 66.533 45.0489 65.164C42.0039 63.8024 39.4125 62.0912 37.2748 60.0302C35.1372 57.9767 33.4916 55.5512 32.3305 52.7611C31.1771 49.971 30.6004 46.7717 30.6004 43.1557V42.9846C30.6004 40.6037 30.9618 38.3344 31.7 36.1767C32.4305 34.0265 33.4685 32.0548 34.8219 30.2617C36.1675 28.4761 37.8054 26.8764 39.7355 25.4702C41.6655 24.064 43.8417 22.8661 46.2715 21.8617C48.7014 20.8647 51.3389 20.0983 54.1917 19.5849C57.0445 19.0641 60.028 18.8037 63.15 18.8037C68.0482 18.8037 72.4081 19.3915 76.2452 20.5596C80.0822 21.7352 83.4041 23.4167 86.2184 25.6041C89.0328 27.799 91.2935 30.4477 93.0082 33.5652C94.723 36.6827 95.8918 40.2391 96.507 44.2345H80.4359C79.8592 41.928 79.0364 39.9341 77.983 38.2674C76.9218 36.5934 75.6454 35.2169 74.1382 34.1455C72.6311 33.0667 70.9086 32.278 68.9632 31.7795C67.0178 31.281 64.834 31.0281 62.4041 31.0281C60.8969 31.0281 59.459 31.1322 58.0672 31.348C56.6831 31.5563 55.3913 31.8837 54.1917 32.3301C52.9998 32.7765 51.9156 33.3122 50.9544 33.9446C49.9932 34.5771 49.1705 35.3211 48.4938 36.1693C47.8171 37.0175 47.3019 37.9475 46.9328 38.9668C46.5637 39.9861 46.3869 41.1096 46.3869 42.3447V42.4637C46.3869 44.1155 46.656 45.5961 47.1943 46.9056C47.7325 48.2151 48.5399 49.3757 49.6241 50.3951C50.7007 51.4144 52.0386 52.2923 53.6381 53.0215C55.2375 53.7506 57.0753 54.3682 59.1591 54.8667L71.3008 57.6344C75.73 58.6761 79.6977 59.8368 83.2118 61.1239C86.7182 62.4111 89.6864 64.0182 92.1163 65.9378C94.5461 67.8648 96.3993 70.201 97.6911 72.9465C98.983 75.6994 99.6289 79.0326 99.6289 82.9537V83.1248C99.6289 85.9298 99.2444 88.5413 98.4755 90.9445C97.7065 93.3477 96.6069 95.5054 95.1844 97.4026C93.7541 99.3074 92.024 100.996 89.9786 102.477C87.9332 103.958 85.6494 105.2 83.1272 106.197C80.6051 107.194 77.8446 107.945 74.861 108.444C71.8698 108.942 68.7248 109.195 65.4107 109.195C59.7051 109.195 54.6992 108.481 50.3777 107.06V107.075Z" fill="#E4DCD1"/>
</svg>
