<svg width="1635" height="354" viewBox="0 0 1635 354" xmlns="http://www.w3.org/2000/svg">

<path d="M84.9769 345.667C68.1424 340.102 53.8586 332.381 42.1254 322.504C30.3923 312.627 21.0598 301.002 14.158 287.6C7.22611 274.197 2.66489 259.658 0.384277 244.012H63.3111C65.2616 253.802 68.3525 262.543 72.5536 270.206C76.7547 277.897 82.2162 284.366 88.908 289.639C95.5997 294.913 103.612 298.992 112.944 301.847C122.277 304.702 133.08 306.13 145.413 306.13C152.345 306.13 158.827 305.664 164.918 304.79C171.01 303.887 176.651 302.605 181.843 300.944C187.034 299.283 191.715 297.156 195.947 294.505C200.148 291.883 203.719 288.794 206.659 285.24C209.6 281.714 211.821 277.752 213.321 273.381C214.822 269.011 215.572 264.116 215.572 258.697V258.464C215.572 249.869 214.011 242.76 210.951 237.107C207.86 231.455 203.419 226.589 197.627 222.539C191.836 218.46 184.964 215.11 176.982 212.488C168.999 209.865 160.297 207.476 150.815 205.378L103.882 194.773C89.2981 191.306 76.0645 186.906 64.1813 181.545C52.2982 176.213 42.1855 169.512 33.8432 161.442C25.501 153.4 19.0793 143.902 14.5481 132.976C10.0469 122.05 7.79626 109.522 7.79626 95.3615V94.6914C7.79626 85.3679 9.20664 76.4815 12.0874 68.0321C14.9382 59.6119 18.9893 51.8909 24.2707 44.8692C29.5221 37.8766 35.9138 31.6124 43.4458 26.1057C50.9778 20.599 59.4701 15.9082 68.9526 11.9748C78.4352 8.07062 88.7279 5.06963 99.8609 3.05926C110.994 1.01975 122.637 0 134.82 0C153.935 0 170.95 2.30173 185.924 6.87605C200.898 11.4795 213.861 18.0642 224.844 26.6301C235.827 35.2252 244.65 45.5976 251.341 57.8055C258.033 70.0134 262.594 83.9403 264.995 99.5862H202.278C200.028 90.5541 196.817 82.7457 192.706 76.2193C188.565 69.6637 183.583 64.2736 177.702 60.0781C171.82 55.8534 165.098 52.765 157.506 50.8129C149.914 48.8608 141.392 47.8701 131.909 47.8701C126.028 47.8701 120.416 48.278 114.985 49.123C109.583 49.9388 104.542 51.2208 99.8609 52.9689C95.2096 54.7171 90.9785 56.8148 87.2275 59.2914C83.4765 61.7679 80.2656 64.6815 77.6249 68.003C74.9842 71.3245 72.9737 74.9665 71.5333 78.9581C70.0929 82.9497 69.4027 87.3492 69.4027 92.1857V92.6519C69.4027 99.12 70.453 104.918 72.5536 110.046C74.6541 115.174 77.805 119.719 82.0361 123.711C86.2372 127.702 91.4586 131.14 97.7003 133.996C103.942 136.851 111.114 139.269 119.246 141.221L166.629 152.06C183.913 156.139 199.398 160.684 213.111 165.725C226.795 170.765 238.378 177.058 247.86 184.575C257.343 192.122 264.575 201.27 269.616 212.021C274.658 222.802 277.178 235.854 277.178 251.209V251.879C277.178 262.863 275.678 273.09 272.677 282.501C269.676 291.912 265.385 300.361 259.834 307.791C254.252 315.25 247.5 321.863 239.518 327.661C231.536 333.459 222.624 338.325 212.781 342.229C202.938 346.133 192.166 349.076 180.522 351.028C168.849 352.98 156.576 353.971 143.643 353.971C121.377 353.971 101.841 351.174 84.9769 345.609V345.667Z"/>

<path d="M526.425 7.01953H599.074L730.599 347.005H664.732L630.883 256.189H489.875L456.476 347.005H395.11L526.425 7.01953ZM612.608 205.376L560.274 65.3203H559.824L507.7 205.376H612.608Z"/>

<path d="M984.468 7.01953H1057.12L1188.64 347.005H1122.77L1088.93 256.189H947.918L914.519 347.005H853.153L984.468 7.01953ZM1070.65 205.376L1018.32 65.3203H1017.87L965.743 205.376H1070.65Z"/>

<path d="M1338.92 7.01953H1453.52C1471.26 7.01953 1488.03 8.68027 1503.82 12.0018C1519.6 15.3232 1534.18 20.2181 1547.57 26.6862C1560.95 33.1544 1573.01 41.225 1583.79 50.8689C1594.53 60.5129 1603.62 71.6136 1611.09 84.2003C1618.54 96.787 1624.24 110.86 1628.23 126.447C1632.22 142.035 1634.2 158.934 1634.2 177.173V177.61C1634.2 195.674 1632.22 212.456 1628.23 227.869C1624.24 243.311 1618.54 257.267 1611.09 269.766C1603.65 282.266 1594.56 293.337 1583.79 302.981C1573.04 312.625 1560.95 320.696 1547.57 327.164C1534.18 333.632 1519.6 338.585 1503.82 341.965C1488.03 345.345 1471.26 347.035 1453.52 347.035H1338.92V7.01953ZM1452.62 296.426C1465.26 296.426 1476.9 295.231 1487.58 292.813C1498.26 290.395 1507.96 286.898 1516.69 282.324C1525.42 277.72 1533.1 272.039 1539.83 265.279C1546.52 258.491 1552.13 250.741 1556.63 242C1561.13 233.259 1564.52 223.499 1566.77 212.748C1569.02 201.996 1570.16 190.284 1570.16 177.61V177.173C1570.16 164.673 1569.02 153.048 1566.77 142.268C1564.52 131.517 1561.13 121.669 1556.63 112.783C1552.13 103.896 1546.52 96.0295 1539.83 89.1825C1533.13 82.3356 1525.42 76.5667 1516.69 71.905C1507.96 67.2433 1498.26 63.6887 1487.58 61.2996C1476.9 58.8813 1465.26 57.6867 1452.62 57.6867H1399.84V296.484H1452.62V296.426Z"/>

</svg>
