<svg width="14" height="15" viewBox="0 0 14 15" xmlns="http://www.w3.org/2000/svg">
<path d="M3.75 4.875V3.5625C3.75 1.89453 5.20089 0.5 7 0.5C8.77009 0.5 10.25 1.89453 10.25 3.5625V4.875H12.1071C12.8616 4.875 13.5 5.47656 13.5 6.1875V11.875C13.5 13.3242 12.2522 14.5 10.7143 14.5H3.28571C1.71875 14.5 0.5 13.3242 0.5 11.875V6.1875C0.5 5.47656 1.10938 4.875 1.89286 4.875H3.75ZM5.14286 4.875H8.85714V3.5625C8.85714 2.60547 8.01562 1.8125 7 1.8125C5.95536 1.8125 5.14286 2.60547 5.14286 3.5625V4.875ZM1.89286 6.1875V11.875C1.89286 12.6133 2.50223 13.1875 3.28571 13.1875H10.7143C11.4688 13.1875 12.1071 12.6133 12.1071 11.875V6.1875H10.25V7.71875C10.25 8.10156 9.9308 8.375 9.55357 8.375C9.14732 8.375 8.85714 8.10156 8.85714 7.71875V6.1875H5.14286V7.71875C5.14286 8.10156 4.82366 8.375 4.44643 8.375C4.04018 8.375 3.75 8.10156 3.75 7.71875V6.1875H1.89286Z"/>
</svg>
