<svg width="117" height="24" viewBox="0 0 117 24" xmlns="http://www.w3.org/2000/svg"><path d="M0 0V24H117V0H0ZM22.5 10.8L18.4 14.8L19.4 20.5C19.5 21 19.3 21.4 18.9 21.7C18.5 22 18 22 17.6 21.8L12.6 19.1L7.6 21.8C7.2 22 6.7 22 6.3 21.7C5.9 21.4 5.7 21 5.8 20.5L6.7 14.8L2.6 10.8C2.2 10.5 2.1 10 2.3 9.6C2.5 9.1 2.8 8.8 3.3 8.7L8.9 7.9L11.4 2.7C11.6 2.3 12 2 12.5 2C13 2 13.4 2.3 13.6 2.7L16.2 7.9L21.8 8.7C22.3 8.8 22.7 9.1 22.8 9.6C23 10 22.8 10.5 22.5 10.8ZM45.5 10.8L41.4 14.8L42.4 20.5C42.5 21 42.3 21.4 41.9 21.7C41.5 22 41 22 40.6 21.8L35.6 19.1L30.6 21.8C30.2 22 29.7 22 29.3 21.7C28.9 21.4 28.7 21 28.8 20.5L29.7 14.8L25.6 10.8C25.2 10.5 25.1 10 25.3 9.6C25.5 9.1 25.8 8.8 26.3 8.7L31.9 7.9L34.4 2.7C34.6 2.3 35 2 35.5 2C36 2 36.4 2.3 36.6 2.7L39.2 7.9L44.8 8.7C45.3 8.8 45.7 9.1 45.8 9.6C46 10 45.8 10.5 45.5 10.8ZM68.5 10.8L64.4 14.8L65.4 20.5C65.5 21 65.3 21.4 64.9 21.7C64.5 22 64 22 63.6 21.8L58.6 19.1L53.6 21.8C53.2 22 52.7 22 52.3 21.7C51.9 21.4 51.7 21 51.8 20.5L52.7 14.8L48.6 10.8C48.2 10.5 48.1 10 48.3 9.6C48.5 9.1 48.8 8.8 49.3 8.7L54.9 7.9L57.4 2.7C57.6 2.3 58 2 58.5 2C59 2 59.4 2.3 59.6 2.7L62.2 7.9L67.8 8.7C68.3 8.8 68.7 9.1 68.8 9.6C69 10 68.8 10.5 68.5 10.8ZM91.5 10.8L87.4 14.8L88.4 20.5C88.5 21 88.3 21.4 87.9 21.7C87.5 22 87 22 86.6 21.8L81.6 19.1L76.6 21.8C76.2 22 75.7 22 75.3 21.7C74.9 21.4 74.7 21 74.8 20.5L75.7 14.8L71.6 10.8C71.2 10.5 71.1 10 71.3 9.6C71.5 9.1 71.8 8.8 72.3 8.7L77.9 7.9L80.4 2.7C80.6 2.3 81 2 81.5 2C82 2 82.4 2.3 82.6 2.7L85.2 7.9L90.8 8.7C91.3 8.8 91.7 9.1 91.8 9.6C92 10 91.8 10.5 91.5 10.8ZM114.8 10C114.8 10.3 114.7 10.6 114.5 10.8L110.4 14.8L111.4 20.5C111.5 21 111.3 21.4 110.9 21.7C110.5 22 110 22 109.6 21.8L104.6 19.1L99.6 21.8C99.2 22 98.7 22 98.3 21.7C97.9 21.4 97.7 21 97.8 20.5L98.7 14.8L94.6 10.8C94.2 10.5 94.1 10 94.3 9.6C94.5 9.1 94.8 8.8 95.3 8.7L100.9 7.9L103.4 2.7C103.6 2.3 104 2 104.5 2C105 2 105.4 2.3 105.6 2.7L108.1 7.9L113.7 8.7C114.2 8.8 114.8 9 114.8 10Z"/></svg>