<svg width="41" height="40" viewBox="0 0 41 40" fill="none" xmlns="http://www.w3.org/2000/svg">
<path d="M40.9088 15.1346C40.6912 14.4549 40.1086 13.9626 39.4094 13.861L27.5079 12.0952L22.1787 1.05481C21.8679 0.406299 21.2154 0 20.5007 0C19.786 0 19.1412 0.406299 18.8227 1.05481L13.4934 12.0952L1.59193 13.861C0.892754 13.9704 0.310109 14.4627 0.0925889 15.1346C-0.124932 15.8066 0.0459773 16.5489 0.550936 17.0489L9.18184 25.6515L7.14647 37.8092C7.02994 38.5124 7.32515 39.2235 7.90002 39.6454C8.4749 40.0673 9.23622 40.1142 9.86547 39.7782L20.5007 34.0588L31.1436 39.7782C31.7651 40.1142 32.5342 40.0595 33.1091 39.6454L33.1013 39.6532C33.684 39.2313 33.9714 38.5202 33.8549 37.817L31.8195 25.6593L40.4504 17.0489C40.9476 16.5489 41.1263 15.8144 40.9088 15.1346ZM30.0716 23.8779C29.4967 24.4561 29.2403 25.2687 29.3724 26.0734L31.198 36.9732L21.7514 31.8945V5.89133L25.2706 13.1891C25.6279 13.9314 26.3271 14.4549 27.1428 14.5721L37.8246 16.1582L30.0716 23.8779Z" fill="white"/>
</svg>
