<svg width="14" height="13" viewBox="0 0 14 13" xmlns="http://www.w3.org/2000/svg"><path d="M9.0832 3.82837L12.7141 4.36157C13.0187 4.41235 13.2727 4.61548 13.3742 4.92017C13.4758 5.19946 13.3996 5.52954 13.1711 5.73267L10.5305 8.3479L11.1652 12.0549C11.216 12.3596 11.0891 12.6643 10.8352 12.842C10.5812 13.0452 10.2512 13.0452 9.97187 12.9182L6.72187 11.1663L3.44648 12.9182C3.19258 13.0452 2.83711 13.0452 2.60859 12.842C2.35468 12.6643 2.22773 12.3596 2.27851 12.0549L2.88789 8.3479L0.247263 5.73267C0.0187473 5.52954 -0.0574246 5.19946 0.0441379 4.92017C0.1457 4.61548 0.399607 4.41235 0.704294 4.36157L4.36054 3.82837L5.98554 0.451416C6.1125 0.172119 6.39179 -0.00561523 6.72187 -0.00561523C7.02656 -0.00561523 7.30586 0.172119 7.43281 0.451416L9.0832 3.82837Z"/></svg>